<svg width="44" height="45" fill="none" xmlns="http://www.w3.org/2000/svg"><path d="M28.875 31.87v-2.66c1.375-1.397 4.007-3.92 4.663-7.151.195.107.075.176.293.176 1.042 0 1.726-1.333 1.726-2.98 0-1.618-.901-2.93-1.923-2.97.197-.7.291-1.636.291-2.837 0-4.01-3.504-8.822-11.347-8.822-6.969 0-11.336 4.813-11.336 8.822 0 1.163.07 2.118.195 2.857-.958.142-1.714 1.4-1.714 2.95 0 1.646.844 2.979 1.887 2.979.216 0-.094-.07.1-.177.655 3.233 3.415 5.755 4.79 7.153v2.505c-5.5.667-9.625 3.563-9.625 6.461v1.099c0 1.101 1.132 1.101 2.247 1.101h25.754c1.117 0 2.249 0 2.249-1.101v-1.099c0-2.713-4.125-5.42-8.25-6.304z" fill="#6D76EE"/></svg>