<svg width="45" height="45" fill="none" xmlns="http://www.w3.org/2000/svg"><g clip-path="url(#clip0_1_1509)"><path d="M12.61 9.953c6.853 0 12.409 5.594 12.409 12.495 0 6.9-5.556 12.494-12.41 12.494C5.757 34.942.2 29.348.2 22.448c0-6.9 5.556-12.495 12.41-12.495zm19.817.732c3.426 0 6.204 5.266 6.204 11.763 0 6.495-2.777 11.763-6.204 11.763-3.427 0-6.205-5.268-6.205-11.763S29 10.685 32.427 10.685zm9.59 1.225c1.206 0 2.183 4.718 2.183 10.538 0 5.818-.977 10.537-2.182 10.537-1.206 0-2.182-4.718-2.182-10.537 0-5.82.977-10.538 2.182-10.538z" fill="#2D2D2D"/></g><defs><clipPath id="clip0_1_1509"><path fill="#fff" transform="translate(.2 .5)" d="M0 0h44v44H0z"/></clipPath></defs></svg>