<svg width="54" height="53" fill="none" xmlns="http://www.w3.org/2000/svg"><g clip-path="url(#clip0_1_955)"><path d="M11.013 17.667a1.472 1.472 0 01-1.473 1.472H2.18a1.472 1.472 0 110-2.945h7.36a1.472 1.472 0 011.473 1.473zm-2.945 7.36A1.472 1.472 0 016.596 26.5H2.179a1.472 1.472 0 110-2.945h4.417a1.473 1.473 0 011.472 1.473zM5.124 32.39a1.472 1.472 0 01-1.474 1.47H2.18a1.472 1.472 0 110-2.944h1.472a1.472 1.472 0 011.473 1.472z" fill="#55ACEE"/><path d="M46.264 26.018c-2.583-3.761-7.92 1.774-17.663 2.899-3.607.416-6.857 3.428-11.046 3.14-1.719-.117-4.117-5.06-5.913-4.272-.925.406-1.348 1.76-.399 2.779L21.791 43.15s.537.618 2.343.19c.444.13 7.134-2.55 11.002-7.917.926-1.285 2.03-2.355 3.173-3.25 3.712-2.743 7.745-3.7 7.745-3.7.517-.425.637-.878.61-1.271.033-.656-.4-1.184-.4-1.184z" fill="#5C913B"/><path d="M22.137 20.012c-3.783 5.25-10.408 7.737-10.408 7.737-1.236 1.047-.192 2.28-.192 2.28l10.438 12.36s.522.617 2.28.189c0 0 6.625-2.482 10.407-7.732 3.899-5.41 10.93-7.118 10.93-7.118 1.235-1.047.192-2.283.192-2.283L35.346 13.088s-.522-.618-2.28-.192c0 0-7.03 1.704-10.93 7.116z" fill="#A7D28B"/><path d="M32.66 29.238a5.5 5.5 0 100-11 5.5 5.5 0 000 11z" fill="#77B255"/><path d="M23.532 41.667c-.88 0-1.204-.328-1.247-.378l-9.41-10.983c-.018-.021-.495-.567-.437-1.261.035-.421.253-.796.647-1.115l.063-.038c.062-.024 6.163-2.532 9.584-7.065 3.617-4.796 9.858-6.854 9.92-6.874 1.745-.406 2.316.174 2.377.242l9.285 11.044c.017.018.493.566.435 1.26-.035.42-.253.796-.647 1.115l-.098.049c-.061.015-6.13 1.523-9.645 6.18-3.499 4.64-9.607 7.643-9.668 7.672a5.04 5.04 0 01-1.159.152zm-.87-.707s.451.416 1.864.088c.009-.011 6.01-2.962 9.436-7.504 3.438-4.555 9.225-6.182 9.867-6.351.258-.221.4-.466.422-.73.043-.48-.311-.892-.314-.896l-9.285-11.045c-.002 0-.45-.415-1.864-.087-.041.014-6.135 2.026-9.656 6.693-3.367 4.46-9.24 6.995-9.759 7.213-.268.225-.413.476-.436.745-.04.476.312.887.315.89l9.41 10.984z" fill="#5C913B"/><path d="M31.936 31.904l-.006 5.94.497.59c.969-.884 1.9-1.878 2.705-2.996a15.84 15.84 0 012.828-2.986l-.483-.575-5.541.027z" fill="#FFAC33"/><path d="M37.458 31.856L24.952 17.043c-1.017.836-1.993 1.811-2.823 2.964-.81 1.126-1.755 2.117-2.735 2.991l1.463 1.731-.002.001L31.93 37.844a18.711 18.711 0 002.726-3.003c.83-1.152 1.805-2.126 2.82-2.962l-.018-.023z" fill="#FFE8B6"/><path d="M25.14 32.293c-1.556-1.844-4.852 1.148-5.792.035-.455-.54-.162-1.238.436-1.742 1.005-.85 1.73-.355 2.185-.74.323-.272.306-.605.114-.834-.446-.527-1.586-.252-2.472.26l-.431-.51a.754.754 0 00-1.152.972l.446.529c-.677.898-.907 2.09-.106 3.037 1.496 1.77 4.833-1.172 5.883.072.364.432.262 1.256-.504 1.902-1.148.97-2.188.516-2.655.91-.228.19-.27.555-.026.844.387.457 1.62.359 2.805-.38a.01.01 0 01.002.007l.487.576a.756.756 0 101.153-.974l-.487-.576c-.005-.006-.013-.01-.02-.016.8-.978 1.07-2.267.135-3.372z" fill="#5C913B"/><path d="M43.118 42.326c.009-.008.019-.014.028-.021.068-.068.12-.146.18-.221.043-.052.09-.102.129-.155.035-.05.064-.101.096-.152 1.42-2.187.49-5.895-2.321-8.707-2.812-2.812-6.521-3.742-8.707-2.321a1.77 1.77 0 00-.153.096c-.053.039-.104.086-.154.127-.074.06-.152.113-.221.182-.01.009-.015.019-.022.028-.011.01-.024.018-.036.03l.006.005c-1 1.062-1.012 2.705-.006 3.712 1.008 1.008 2.65.994 3.713-.006l.01.012c-.02.02-.043.033-.063.053-1.06 1.059-1.084 2.748-.06 3.775 1.027 1.025 2.718 1 3.776-.06.02-.02.033-.042.053-.063l.01.012c-1 1.062-1.012 2.705-.004 3.713 1.007 1.006 2.649.994 3.71-.006l.007.006c.01-.014.018-.027.029-.04z" fill="#E1E8ED"/><path d="M31.936 34.969c.906.905 2.321.979 3.37.26.44-.75.565-1.462.565-1.685-2.207 1.646-4.177.009-4.618-.97-.183.846.04 1.75.683 2.395zm7.3 3.84c.297-.42.528-.824.636-1.098-1.405 1.288-4.09.345-4.905-1.698-.358.95-.175 2.044.571 2.79 1.002 1.002 2.634.994 3.697.006zm3.853 3.595l.03-.036c.01-.008.02-.014.027-.022.07-.068.122-.146.181-.22.043-.053.09-.102.128-.156.036-.05.065-.101.097-.152.065-.1.1-.218.155-.324-2.528 1.13-4.415-.788-4.944-1.745-.295.917-.103 1.944.61 2.657 1.005 1.007 2.647.995 3.71-.006l.006.004z" fill="#CCD6DD"/><path d="M24.616 22.236l.028-.022c.069-.068.122-.146.18-.22.043-.052.089-.101.128-.155.036-.05.065-.101.097-.152 1.42-2.187.489-5.896-2.322-8.707-2.812-2.812-6.52-3.743-8.707-2.323-.051.032-.103.06-.153.097-.054.039-.103.085-.155.127-.074.06-.152.112-.22.18-.01.01-.015.02-.022.029-.011.01-.025.019-.036.03l.005.005c-1 1.062-1.012 2.705-.005 3.712 1.007 1.007 2.65.995 3.712-.005l.01.01c-.02.02-.043.034-.063.054-1.06 1.059-1.084 2.748-.058 3.775 1.026 1.027 2.716 1 3.775-.058.02-.02.033-.043.053-.064l.01.01c-1 1.063-1.012 2.706-.004 3.713 1.007 1.007 2.649.995 3.71-.006l.006.006.03-.036z" fill="#E1E8ED"/><path d="M13.432 14.838c.906.906 2.321.98 3.37.26.44-.75.564-1.462.564-1.685-2.206 1.645-4.177.007-4.617-.972-.183.847.04 1.752.683 2.397zm7.301 3.838c.297-.42.528-.822.635-1.096-1.406 1.288-4.092.344-4.905-1.7-.358.95-.175 2.045.57 2.79 1.004 1.004 2.637.995 3.7.006zm3.851 3.597c.011-.011.02-.024.03-.036l.028-.022c.07-.068.122-.146.181-.22.042-.052.088-.101.127-.155.036-.05.065-.101.097-.152.065-.1.1-.22.155-.325-2.528 1.13-4.415-.787-4.944-1.744-.295.917-.103 1.944.61 2.656 1.006 1.007 2.648.995 3.71-.006l.006.004z" fill="#CCD6DD"/></g><defs><clipPath id="clip0_1_955"><path fill="#fff" transform="translate(.707)" d="M0 0h53v53H0z"/></clipPath></defs></svg>