<svg width="53" height="53" fill="none" xmlns="http://www.w3.org/2000/svg"><g clip-path="url(#clip0_1_825)"><path d="M49.32 26.5c2.032 0 3.68-2.307 3.68-5.153 0-2.846-1.648-5.153-3.68-5.153-2.034 0-3.681 2.307-3.681 5.153 0 2.846 1.647 5.153 3.68 5.153zm-45.64 0c2.033 0 3.681-2.307 3.681-5.153 0-2.846-1.648-5.153-3.68-5.153C1.648 16.194 0 18.501 0 21.347 0 24.193 1.648 26.5 3.68 26.5z" fill="#F4900C"/><path d="M50.055 27.972a1.472 1.472 0 01-1.472 1.472h-4.416a1.472 1.472 0 01-1.473-1.472v-13.25a1.472 1.472 0 011.473-1.472h4.416a1.472 1.472 0 011.472 1.472v13.25zm-39.75 0a1.472 1.472 0 01-1.472 1.472H4.417a1.472 1.472 0 01-1.473-1.472v-13.25a1.472 1.472 0 011.473-1.472h4.416a1.472 1.472 0 011.472 1.472v13.25z" fill="#FFAC33"/><path d="M41.222 7.361c0 4.065-6.593 5.889-14.722 5.889-8.131 0-14.723-1.824-14.723-5.889S18.37 0 26.5 0s14.722 3.296 14.722 7.361z" fill="#FFCC4D"/><path d="M36.805 6.011c0 2.372-4.615 4.295-10.305 4.295-5.692 0-10.306-1.923-10.306-4.295 0-2.371 4.614-4.294 10.306-4.294 5.69 0 10.305 1.923 10.305 4.294z" fill="#F4900C"/><path d="M44.166 8.097c0 2.033-1.647 2.208-3.68 2.208H12.514c-2.034 0-3.681-.175-3.681-2.208a3.68 3.68 0 013.68-3.68h27.973a3.68 3.68 0 013.68 3.68z" fill="#269"/><path d="M44.166 8.834H8.834a2.944 2.944 0 00-2.944 2.944v38.278h41.22V11.778a2.944 2.944 0 00-2.944-2.944z" fill="#55ACEE"/><path d="M51.528 48.583v-1.472a2.944 2.944 0 00-2.944-2.944h-16.09l-4.953 4.952a1.47 1.47 0 01-2.082 0l-4.952-4.953H4.417a2.944 2.944 0 00-2.944 2.945v1.472c0 1.626-.154 2.945 1.472 2.945h47.11c1.626 0 1.473-1.32 1.473-2.945z" fill="#3B88C3"/><path d="M36.07 27.972a6.625 6.625 0 100-13.25 6.625 6.625 0 000 13.25z" fill="#fff"/><path d="M36.07 25.353a4.006 4.006 0 100-8.012 4.006 4.006 0 000 8.012z" fill="#DD2E44"/><path d="M16.93 27.972a6.625 6.625 0 100-13.25 6.625 6.625 0 000 13.25z" fill="#fff"/><path d="M42.695 37.542a3.68 3.68 0 01-3.681 3.68H13.986a3.68 3.68 0 110-7.36h25.028a3.68 3.68 0 013.68 3.68z" fill="#F5F8FA"/><path d="M25.028 33.861h2.944v7.361h-2.944v-7.36zm-7.361 0h2.944v7.361h-2.944v-7.36zm14.722 0h2.944v7.361H32.39v-7.36zm-22.083 3.68a3.68 3.68 0 002.944 3.608v-7.214a3.681 3.681 0 00-2.944 3.607zm29.444-3.606v7.212a3.681 3.681 0 000-7.212z" fill="#CCD6DD"/><path d="M16.93 25.353a4.006 4.006 0 100-8.012 4.006 4.006 0 000 8.012z" fill="#DD2E44"/></g><defs><clipPath id="clip0_1_825"><path fill="#fff" d="M0 0h53v53H0z"/></clipPath></defs></svg>