<svg width="52" height="52" fill="none" xmlns="http://www.w3.org/2000/svg"><path d="M41.889 29.942v-2.836c1.444-1.488 4.209-4.174 4.898-7.616.205.114.079.188.307.188 1.095 0 1.814-1.42 1.814-3.174 0-1.725-.947-3.121-2.02-3.165.206-.745.306-1.742.306-3.021 0-4.27-3.682-9.397-11.921-9.397-7.32 0-11.908 5.127-11.908 9.397 0 1.239.074 2.256.205 3.043-1.007.152-1.801 1.492-1.801 3.142 0 1.753.887 3.173 1.983 3.173.227 0-.1-.074.104-.188.689 3.444 3.588 6.13 5.032 7.618v2.668c-5.777.71-10.11 3.796-10.11 6.883v1.17C18.777 39 19.965 39 21.137 39h27.054c1.174 0 2.363 0 2.363-1.173v-1.17c0-2.89-4.333-5.773-8.666-6.715z" fill="#55ACEE"/><path d="M24.555 41.497v-2.835c1.445-1.488 4.21-4.175 4.899-7.617.205.114.079.188.307.188 1.095 0 1.814-1.42 1.814-3.173 0-1.725-.947-3.122-2.02-3.165.206-.745.306-1.742.306-3.022 0-4.27-3.682-9.396-11.921-9.396-7.322 0-11.908 5.126-11.908 9.396 0 1.24.074 2.256.205 3.044-1.007.151-1.801 1.492-1.801 3.141 0 1.754.887 3.174 1.983 3.174.227 0-.1-.074.104-.188.689 3.443 3.588 6.129 5.032 7.618v2.668c-5.777.71-10.11 3.796-10.11 6.883v1.171c0 1.172 1.188 1.172 2.36 1.172h27.054c1.174 0 2.363 0 2.363-1.173V48.21c0-2.889-4.333-5.772-8.667-6.714z" fill="#269"/></svg>