<svg width="53" height="53" fill="none" xmlns="http://www.w3.org/2000/svg"><g clip-path="url(#clip0_1_870)"><path d="M7.542 7.361h8.833c1.626 0 2.764-.153 2.764 1.472V5.89c0-1.626-1.138-2.945-2.764-2.945H4.598c-2.945 0-5.275 3.129-4.417 7.361 0 0 2.637 13.803 2.822 14.66.49 2.271 3.127 4.48 5.95 4.48h10.243c1.627 0-.057-2.792-.057-4.417v-2.945c0 1.626-1.138 2.945-2.764 2.945h-5.888c-1.626 0-2.699-1.534-2.945-2.945-.246-1.41-2.332-10.796-2.332-10.796-.49-2.822.705-3.926 2.332-3.926zm38.001 0H36.71c-1.626 0-4.321-.153-4.321 1.472V5.89c0-1.626 2.695-2.945 4.32-2.945h11.779c2.944 0 5.276 3.129 4.416 7.361 0 0-2.404 13.867-2.607 14.723-.521 2.208-3.006 4.416-5.889 4.416h-10.52c-1.626 0-1.5-2.791-1.5-4.416v-2.945c0 1.626 2.697 2.945 4.322 2.945h5.889c1.625 0 2.7-1.534 2.944-2.945.245-1.41 2.332-10.796 2.332-10.796.489-2.822-.705-3.926-2.332-3.926zM30.67 32.389c0-10.244-3.988 0-3.988 0s-4.417-10.244-4.417 0c0 10.243-4.845 14.722-4.845 14.722h18.097c-.002 0-4.847-4.478-4.847-14.722z" fill="#FFAC33"/><path d="M42.875 9.683c0 9.974-9.967 26.782-16.194 26.782-6.23 0-16.195-16.808-16.195-26.782 0-7.649 1.473-9.303 4.417-9.303 2.023 0 8.87-.04 11.778-.04L36.986.338c4.295-.001 5.89 1.007 5.89 9.345z" fill="#FFCC4D"/><path d="M39.75 48.583c0 1.626.334 2.945-1.291 2.945H14.903c-1.627 0-1.653-1.32-1.653-2.945v-1.472c0-1.625 1.714-2.944 3.248-2.944h20.489c1.534 0 2.763 1.319 2.763 2.944v1.472z" fill="#C1694F"/><path d="M42.695 50.976c0 1.119.242 2.024-1.844 2.024h-28.34c-1.902 0-2.205-.905-2.205-2.024v-.368c0-1.12 1.086-2.024 2.205-2.024h28.34c1.118 0 1.844.905 1.844 2.024v.368z" fill="#C1694F"/></g><defs><clipPath id="clip0_1_870"><path fill="#fff" d="M0 0h53v53H0z"/></clipPath></defs></svg>