<svg width="53" height="53" fill="none" xmlns="http://www.w3.org/2000/svg"><path d="M5.776 33.748a1.473 1.473 0 11-2.72-1.133l6.798-18.458a1.471 1.471 0 112.718 1.132L5.776 33.748z" fill="#66757F"/><path d="M20.498 32.616a1.473 1.473 0 11-2.72 1.132l-6.794-18.459a1.473 1.473 0 012.72-1.132l6.794 18.459zm14.723 1.132a1.474 1.474 0 01-2.719-1.132l6.796-18.46a1.472 1.472 0 112.718 1.133L35.22 33.748z" fill="#66757F"/><path d="M49.942 32.615a1.473 1.473 0 01-2.72 1.133l-6.793-18.46a1.472 1.472 0 112.717-1.131l6.796 18.458z" fill="#66757F"/><path d="M21.873 32.389H1.683c-.93 0-1.683.752-1.683 1.683 0 3.716 5.274 6.73 11.778 6.73 6.504 0 11.778-3.014 11.778-6.73 0-.93-.754-1.683-1.683-1.683zm13.46 17.667H17.667a1.472 1.472 0 01-1.473-1.473c0-3.252 4.614-5.889 10.306-5.889 5.692 0 10.306 2.637 10.306 5.89a1.473 1.473 0 01-1.473 1.472zm15.984-17.667h-20.19c-.93 0-1.683.752-1.683 1.683 0 3.716 5.273 6.73 11.778 6.73 6.506 0 11.778-3.014 11.778-6.73 0-.93-.752-1.683-1.683-1.683z" fill="#FFAC33"/><path d="M27.972 4.417a1.472 1.472 0 10-2.945 0v39.75a1.473 1.473 0 002.945 0V4.417z" fill="#FFAC33"/><path d="M26.5 8.833a2.944 2.944 0 100-5.889 2.944 2.944 0 000 5.89zm-14.723 8.834a2.944 2.944 0 100-5.89 2.944 2.944 0 000 5.89zm29.445 0a2.944 2.944 0 100-5.89 2.944 2.944 0 000 5.89z" fill="#FFAC33"/><path d="M41.222 14.722c0 1.626 0 0-14.722 0-14.723 0-14.723 1.626-14.723 0 0-1.625 4.417-5.889 14.723-5.889 10.305 0 14.722 4.264 14.722 5.89z" fill="#FFAC33"/></svg>