<svg width="53" height="53" fill="none" xmlns="http://www.w3.org/2000/svg"><g clip-path="url(#clip0_1_973)"><path d="M47.111 19.139H5.89A5.89 5.89 0 000 25.028v2.944a5.889 5.889 0 005.889 5.89v13.25A5.889 5.889 0 0011.778 53h29.444a5.889 5.889 0 005.89-5.889v-13.25A5.889 5.889 0 0053 27.972v-2.944a5.889 5.889 0 00-5.889-5.89z" fill="#292F33"/><path d="M44.166 22.083a2.944 2.944 0 01-2.944 2.945H11.777a2.944 2.944 0 01-2.944-2.945V2.944A2.944 2.944 0 0111.777 0h29.445a2.944 2.944 0 012.944 2.944v19.14z" fill="#CCD6DD"/><path d="M26.5 19.139a1.472 1.472 0 01-1.473 1.472H13.25a1.472 1.472 0 01-1.473-1.472V4.417a1.473 1.473 0 011.473-1.473h11.777A1.472 1.472 0 0126.5 4.417v14.722z" fill="#55ACEE"/><path d="M44.166 47.111a2.944 2.944 0 01-2.944 2.945H11.777a2.944 2.944 0 01-2.944-2.945V30.917a2.944 2.944 0 012.944-2.945h29.445a2.944 2.944 0 012.944 2.945V47.11z" fill="#CCD6DD"/><path d="M41.222 5.889a1.472 1.472 0 01-1.472 1.472h-8.833a1.472 1.472 0 110-2.944h8.833a1.472 1.472 0 011.472 1.472zm0 5.889a1.472 1.472 0 01-1.472 1.472h-8.833a1.472 1.472 0 110-2.944h8.833a1.472 1.472 0 011.472 1.472zm0 5.889a1.472 1.472 0 01-1.472 1.472h-8.833a1.472 1.472 0 110-2.944h8.833a1.472 1.472 0 011.472 1.472z" fill="#66757F"/><path d="M20.611 29.444a1.472 1.472 0 01-2.944 0v-5.889a1.472 1.472 0 112.944 0v5.89zm14.723 0a1.472 1.472 0 01-2.945 0v-5.889a1.472 1.472 0 112.945 0v5.89z" fill="#99AAB5"/></g><defs><clipPath id="clip0_1_973"><path fill="#fff" d="M0 0h53v53H0z"/></clipPath></defs></svg>