<svg width="53" height="53" fill="none" xmlns="http://www.w3.org/2000/svg"><g clip-path="url(#clip0_1_845)"><path d="M52.414 23.968c-3.8-5.538-11.66 2.611-26.002 4.267-5.31.613-10.095 5.047-16.264 4.625-2.529-.174-6.06-7.451-8.705-6.291-1.36.598-1.984 2.593-.586 4.091l15.53 18.53s.788.91 3.447.28c.655.192 10.504-3.755 16.199-11.656 1.363-1.892 2.989-3.467 4.671-4.783 5.464-4.04 11.403-5.448 11.403-5.448.76-.627.938-1.294.896-1.872.05-.966-.589-1.743-.589-1.743z" fill="#5C913B"/><path d="M16.896 15.126c-5.57 7.729-15.323 11.39-15.323 11.39-1.82 1.542-.283 3.358-.283 3.358L16.657 48.07s.769.909 3.357.279c0 0 9.753-3.654 15.321-11.383 5.74-7.965 16.092-10.48 16.092-10.48 1.818-1.541.282-3.36.282-3.36L36.342 4.931s-.768-.91-3.356-.283c0 0-10.35 2.509-16.09 10.477z" fill="#A7D28B"/><path d="M32.39 28.708a8.097 8.097 0 100-16.194 8.097 8.097 0 000 16.194z" fill="#77B255"/><path d="M18.952 47.007c-1.297 0-1.772-.483-1.837-.557L3.263 30.28c-.027-.03-.729-.834-.643-1.856.051-.62.372-1.172.952-1.642l.093-.055c.09-.036 9.073-3.728 14.108-10.402C23.1 9.265 32.288 6.235 32.38 6.205c2.569-.597 3.41.256 3.5.357l13.67 16.259c.024.026.725.833.64 1.856-.052.619-.373 1.17-.953 1.64l-.146.072c-.09.023-9.023 2.243-14.198 9.1C29.741 42.32 20.748 46.74 20.66 46.783a7.443 7.443 0 01-1.707.224zm-1.282-1.041c.002 0 .665.612 2.746.13.011-.017 8.846-4.362 13.892-11.048 5.06-6.706 13.58-9.102 14.526-9.35.378-.326.587-.687.621-1.074.062-.706-.459-1.314-.463-1.32L35.322 7.043c-.003 0-.663-.611-2.744-.128-.06.02-9.032 2.983-14.216 9.854C13.407 23.335 4.76 27.066 3.996 27.387c-.395.33-.61.7-.643 1.096-.06.701.459 1.306.463 1.312l13.854 16.17z" fill="#5C913B"/><path d="M31.323 32.633l-.009 8.745.732.87c1.427-1.302 2.797-2.766 3.983-4.412a23.32 23.32 0 014.163-4.396l-.711-.846-8.158.04z" fill="#FFAC33"/><path d="M39.452 32.562L21.041 10.754c-1.496 1.231-2.933 2.667-4.155 4.364-1.194 1.658-2.584 3.117-4.027 4.403l2.153 2.549-.002.001 16.305 19.307a27.551 27.551 0 004.012-4.421c1.222-1.696 2.657-3.13 4.152-4.36l-.027-.035z" fill="#FFE8B6"/><path d="M21.316 33.206c-2.292-2.715-7.144 1.69-8.528.051-.67-.793-.239-1.822.642-2.564 1.48-1.252 2.547-.523 3.216-1.09.476-.4.451-.89.168-1.228-.656-.775-2.335-.37-3.639.383l-.635-.75a1.11 1.11 0 00-1.695 1.43l.656.78c-.997 1.321-1.335 3.076-.156 4.47 2.202 2.606 7.115-1.725 8.661.106.536.636.386 1.85-.742 2.8-1.69 1.43-3.221.76-3.909 1.34-.335.282-.396.817-.038 1.243.57.673 2.385.528 4.13-.558.003.003.003.006.003.009l.717.848a1.11 1.11 0 001.587.157 1.11 1.11 0 00.11-1.591l-.717-.848c-.007-.01-.02-.015-.028-.024 1.176-1.44 1.574-3.337.197-4.964z" fill="#5C913B"/><path d="M47.783 47.977c.013-.012.028-.021.041-.031.1-.1.178-.215.266-.326.062-.076.131-.15.189-.228.051-.074.094-.149.141-.224 2.09-3.22.722-8.678-3.417-12.818-4.14-4.14-9.6-5.51-12.818-3.417-.077.045-.152.088-.226.141-.078.057-.153.127-.226.187-.11.09-.224.166-.326.268-.013.013-.022.028-.032.041-.016.016-.035.027-.053.044l.009.008c-1.473 1.563-1.49 3.982-.01 5.465 1.485 1.484 3.902 1.463 5.467-.01l.016.018c-.03.03-.064.049-.094.078-1.559 1.56-1.596 4.046-.087 5.558 1.51 1.51 4 1.472 5.558-.087.03-.03.049-.063.078-.094l.016.018c-1.472 1.563-1.491 3.982-.007 5.466 1.482 1.481 3.9 1.463 5.463-.009l.01.009c.014-.02.026-.04.042-.057z" fill="#E1E8ED"/><path d="M31.324 37.146c1.334 1.332 3.417 1.44 4.961.384.647-1.104.832-2.154.832-2.482-3.249 2.423-6.15.013-6.798-1.428-.27 1.245.057 2.576 1.005 3.526zm10.746 5.653c.439-.617.779-1.213.938-1.617-2.069 1.897-6.023.508-7.222-2.5-.527 1.4-.257 3.01.841 4.108 1.475 1.475 3.878 1.464 5.443.009zm5.674 5.293l.042-.053c.015-.012.03-.021.042-.033.101-.1.18-.215.266-.324.063-.078.131-.15.189-.23.053-.072.095-.148.142-.223.096-.147.148-.321.229-.477-3.722 1.665-6.5-1.16-7.28-2.57-.433 1.35-.15 2.863.898 3.912 1.48 1.483 3.898 1.465 5.463-.008l.009.006z" fill="#CCD6DD"/><path d="M20.546 18.4l.041-.033c.102-.1.18-.215.267-.324.062-.076.13-.148.187-.228.053-.074.096-.149.143-.224 2.09-3.22.72-8.68-3.419-12.818-4.14-4.14-9.599-5.51-12.818-3.42-.075.047-.152.09-.226.143-.08.057-.151.125-.228.187-.109.088-.224.164-.324.266-.013.013-.022.03-.032.041-.016.015-.037.028-.053.044l.007.008c-1.472 1.563-1.49 3.982-.007 5.465 1.482 1.482 3.901 1.464 5.465-.008l.016.016c-.031.028-.065.049-.094.078-1.56 1.56-1.596 4.046-.086 5.558 1.51 1.512 3.999 1.474 5.558-.085.03-.03.049-.064.078-.095l.016.017c-1.472 1.563-1.491 3.982-.007 5.465 1.482 1.482 3.9 1.465 5.463-.01l.008.01c.016-.017.03-.036.045-.053z" fill="#E1E8ED"/><path d="M4.083 7.508c1.334 1.334 3.417 1.443 4.961.383.647-1.104.83-2.152.83-2.48-3.247 2.421-6.149.01-6.797-1.432-.27 1.247.058 2.58 1.006 3.53zm10.749 5.65c.437-.616.777-1.21.934-1.613-2.07 1.896-6.024.507-7.22-2.501-.528 1.399-.258 3.01.838 4.107 1.479 1.477 3.883 1.464 5.448.008zm5.67 5.296c.015-.016.029-.035.043-.053l.041-.032c.102-.1.18-.215.267-.324.062-.077.13-.149.187-.228.053-.074.096-.149.143-.224.095-.147.147-.322.228-.478-3.722 1.665-6.5-1.159-7.279-2.568-.434 1.35-.151 2.862.897 3.91 1.482 1.483 3.9 1.465 5.463-.009l.01.006z" fill="#CCD6DD"/></g><defs><clipPath id="clip0_1_845"><path fill="#fff" d="M0 0h53v53H0z"/></clipPath></defs></svg>