<svg width="53" height="53" fill="none" xmlns="http://www.w3.org/2000/svg"><g clip-path="url(#clip0_1_1244)"><path d="M25.238 19.139l-3.154 2.085s3.154 5.214 3.154 12.514v10.428h4.207V33.739c0-9.385-4.207-14.6-4.207-14.6z" fill="#66757F"/><path d="M27.766 18.72c.212.377.263.82.14 1.232a1.63 1.63 0 01-.794.968l-4.538 2.435a1.715 1.715 0 01-1.27.136 1.662 1.662 0 01-.997-.774l-.96-1.687a1.584 1.584 0 01.156-1.792c.137-.167.306-.305.498-.408l4.537-2.435a1.704 1.704 0 011.27-.136 1.649 1.649 0 01.997.775l.96 1.687z" fill="#99AAB5"/><path d="M22.3 15.461c9.094-4.409-7.465-12.517-7.465-12.517S13.207 19.871 22.3 15.461z" fill="#F4900C"/><path d="M20.914 12.844c3.897-2.45-3.2-6.955-3.2-6.955s-.696 9.4 3.2 6.955z" fill="#FFDC5D"/><path d="M18.766 39.434l-.001 34.173 16.554-.002v-34.17a4.142 4.142 0 00-4.14-4.14l-8.277.002a4.137 4.137 0 00-4.136 4.137z" fill="#31373D"/><path d="M35.32 59.461l-16.556.001v-4.22l16.554-.001.001 4.22z" fill="#66757F"/></g><defs><clipPath id="clip0_1_1244"><path fill="#fff" d="M0 0h53v53H0z"/></clipPath></defs></svg>