<svg width="53" height="53" fill="none" xmlns="http://www.w3.org/2000/svg"><path d="M46.96 35.242c-.88-9.743-5.738-14.63-5.738-14.63L32.39 8.832H20.61L11.777 20.61s-2.09 2.11-3.78 6.294c-2.928.971-5.054 3.701-5.054 6.956a7.317 7.317 0 002.37 5.381 7.277 7.277 0 00-.897 3.452c0 2.883 1.672 5.353 4.085 6.56 1.889 2.83 4.412 3.746 6.22 3.746h23.556c2.03 0 4.965-1.147 6.887-4.873 2.843-1.017 4.89-3.71 4.89-6.905a7.343 7.343 0 00-3.094-5.98zM26.5 8.833a4.36 4.36 0 002.208-.612c.652.38 1.4.612 2.209.612 2.439 0 5.888-3.45 5.888-5.889 0 0 0-2.944-2.944-2.944-1.16 0-1.472 1.472-2.944 1.472C29.444 1.472 29.444 0 26.5 0c-2.945 0-2.945 1.472-4.417 1.472S20.3 0 19.14 0c-2.945 0-2.945 2.944-2.945 2.944 0 2.438 3.451 5.89 5.89 5.89a4.37 4.37 0 002.208-.613c.652.38 1.4.612 2.208.612z" fill="#FDD888"/><path d="M35.333 8.834a1.472 1.472 0 01-1.472 1.472H19.139a1.472 1.472 0 010-2.945H33.86a1.472 1.472 0 011.472 1.473z" fill="#BF6952"/><path d="M35.187 36.131c0-6.591-12.633-6.161-12.633-10.138 0-1.925 1.916-2.866 4.139-2.866 3.736 0 4.402 2.31 6.093 2.31 1.197 0 1.774-.726 1.774-1.54 0-1.89-2.98-3.321-5.837-3.816v-1.826c0-1.138-.957-2.06-2.14-2.06-1.186 0-2.144.922-2.144 2.06v1.89c-3.116.68-5.796 2.76-5.796 6.147 0 6.33 12.63 6.073 12.63 10.52 0 1.54-1.735 3.08-4.58 3.08-4.271 0-5.693-2.78-7.428-2.78-.845 0-1.6.683-1.6 1.713 0 1.639 2.853 3.609 6.777 4.158l-.002.015v2.058c0 1.136.96 2.06 2.144 2.06 1.183 0 2.142-.924 2.142-2.06v-2.058c0-.025-.012-.045-.013-.067 3.53-.633 6.474-2.844 6.474-6.8z" fill="#67757F"/></svg>