<svg width="53" height="53" fill="none" xmlns="http://www.w3.org/2000/svg"><path d="M48.583 45.639c0 3.239-2.65 5.889-5.889 5.889H10.305c-3.239 0-5.888-2.65-5.888-5.89V20.612c0-3.239 2.65-5.889 5.888-5.889h32.39c3.238 0 5.888 2.65 5.888 5.89V45.64z" fill="#F9D7E8"/><path d="M53 16.195c0 3.238-2.65 5.888-5.889 5.888H5.89c-3.24 0-5.89-2.65-5.89-5.888 0-3.24 2.65-5.89 5.889-5.89H47.11c3.239 0 5.889 2.65 5.889 5.89z" fill="#F9D7E8"/><path d="M4.417 22.084h44.166v2.944H4.417v-2.944z" fill="#fff"/><path d="M27.972 4.417h-2.944a4.417 4.417 0 00-4.417 4.416v42.695H32.39V8.833a4.417 4.417 0 00-4.417-4.417z" fill="#FD91C9"/><path d="M23.556 10.305c1.62 0 1.86-.76.531-1.688l-9.896-6.929a2.642 2.642 0 00-3.874.868L7.35 7.75c-.803 1.406-.135 2.555 1.484 2.555h14.723zm5.889 0c-1.62 0-1.86-.76-.532-1.688l9.898-6.929a2.644 2.644 0 013.873.868l2.968 5.192c.803 1.408.134 2.557-1.485 2.557H29.444z" fill="#FD91C9"/></svg>