<svg width="48" height="48" fill="none" xmlns="http://www.w3.org/2000/svg"><path d="M1.333 22.667L12 13.333l21.333 1.334L34.666 36l-9.333 10.667s.001-7.999-8-16c-8.001-8.002-16-8-16-8z" fill="#A0041E"/><path d="M1.297 46.667S1.249 36.028 5.277 32C9.305 27.972 20 28.25 20 28.25s-.002 10.417-4.002 14.417-14.701 4-14.701 4z" fill="#FFAC33"/><path d="M11.998 41.333a5.333 5.333 0 100-10.666 5.333 5.333 0 000 10.666z" fill="#FFCC4D"/><path d="M47.999 0S34.665 0 18.665 13.333c-8 6.667-8 18.667-5.333 21.334C16 37.333 28 37.333 34.666 29.333 47.998 13.333 47.998 0 47.998 0z" fill="#55ACEE"/><path d="M35.998 6.667a5.328 5.328 0 00-4.854 3.146 5.292 5.292 0 015.959 1.082c1 1 1.562 2.357 1.562 3.772a5.3 5.3 0 01-.479 2.186A5.325 5.325 0 0039.77 8.23c-1-1-2.357-1.562-3.772-1.562z" fill="#000"/><path d="M10.667 37.333s0-5.333 1.333-6.666C13.334 29.333 29.335 16 30.667 17.333 31.999 18.665 18.666 34.667 17.332 36c-1.333 1.333-6.665 1.333-6.665 1.333z" fill="#A0041E"/></svg>