<svg width="55" height="76" fill="none" xmlns="http://www.w3.org/2000/svg"><g clip-path="url(#clip0_1_1057)"><path d="M7.888 45.445V60.57c0 2.495 1.336 3.036 1.336 3.036l14.146 11.12c2.226 1.75 1.629-1.934 1.629-1.934V58.889L7.888 45.445z" fill="#662113"/><path d="M42.11 45.445V60.57c0 2.495-1.299 3.036-1.299 3.036s-11.937 9.37-14.163 11.12C24.42 76.477 25 72.793 25 72.793V58.889l17.112-13.444z" fill="#C1694F"/><path d="M26.575 32.611c-.92-.745-2.43-.745-3.351 0L8.579 44.258c-.922.745-.922 1.964 0 2.708l14.695 11.79c.921.744 2.43.744 3.352 0L41.42 46.864c.922-.745.922-1.963 0-2.709L26.575 32.611z" fill="#D99E82"/><path d="M24.999 75.695c-.675 0-1.223-.59-1.223-1.318v-15.8c0-.728.548-1.317 1.223-1.317s1.222.589 1.222 1.317v15.8c0 .728-.547 1.318-1.222 1.318z" fill="#D99E82"/><path d="M37.22 55.022c0 1.35.128 2.012-1.221 2.985l-3.018 2.295c-1.35.974-1.871.138-1.871-1.212v-3.62c0-.235-.032-.488-.34-.743-3.15-2.597-15.385-12.315-17.615-14.109l5.653-4.495c1.547 1.132 13.143 10.086 17.994 13.905.24.19.419.4.419.63v4.364z" fill="#99AAB5"/><path d="M36.8 50.028c-4.85-3.82-16.445-12.773-17.992-13.905l-2.103 1.672-3.55 2.823c2.23 1.794 14.464 11.512 17.615 14.11a.843.843 0 01.303.453l6.03-4.847a1.45 1.45 0 00-.303-.306z" fill="#CCD6DD"/><path d="M37.22 55.022v-4.363c0-.23-.178-.44-.42-.631-4.85-3.82-16.445-12.773-17.992-13.905l-2.534 2.015C20.421 41.4 31.53 49.971 34.437 52.283c.313.25.34.507.34.743v5.91l1.222-.93c1.349-.974 1.222-1.635 1.222-2.984z" fill="#CCD6DD"/><path d="M36.8 50.028c-4.85-3.82-16.445-12.773-17.992-13.905l-2.534 2.015C20.421 41.4 31.53 49.971 34.437 52.283c.045.035.073.072.106.108l2.56-2.057a1.45 1.45 0 00-.303-.306z" fill="#E1E8ED"/></g><g clip-path="url(#clip1_1_1057)"><path d="M24.7 45.54a.574.574 0 01-.624-.14L4.603 27.528a.615.615 0 01-.168-.443.667.667 0 01.19-.448.626.626 0 01.436-.191.575.575 0 01.427.177l19.472 17.87a.602.602 0 01.15.27.669.669 0 01-.41.777z" fill="#66757F"/><path d="M24.7 45.54a.579.579 0 01-.689-.22L7.454 22.53a.611.611 0 01-.099-.224.648.648 0 01.086-.486.662.662 0 01.395-.29.593.593 0 01.465.081.584.584 0 01.168.174l16.555 22.788c.053.08.087.171.1.268a.655.655 0 01-.183.541.643.643 0 01-.243.158z" fill="#66757F"/><path d="M24.7 45.54a.586.586 0 01-.748-.335l-11.636-28.63a.659.659 0 01.348-.811.583.583 0 01.785.293l11.635 28.63a.66.66 0 01-.34.834l-.045.019z" fill="#66757F"/><path d="M24.7 45.54a.578.578 0 01-.693-.23.626.626 0 01-.096-.386.67.67 0 01.151-.376l20.929-20.293a.634.634 0 01.42-.228.578.578 0 01.442.139c.12.106.194.258.203.425a.665.665 0 01-.153.461L24.974 45.345a.652.652 0 01-.274.195z" fill="#66757F"/><path d="M24.698 45.54a.575.575 0 01-.668-.186.615.615 0 01-.126-.35.662.662 0 01.095-.37l17.862-24.852a.648.648 0 01.38-.28.585.585 0 01.72.433.659.659 0 01-.065.47L25.035 45.258a.643.643 0 01-.337.283z" fill="#66757F"/><path d="M24.699 45.54a.597.597 0 01-.335.021.576.576 0 01-.288-.163.606.606 0 01-.155-.298.656.656 0 01.022-.345L36.71 14.662a.661.661 0 01.32-.338.582.582 0 01.785.26c.07.139.086.303.044.458L25.092 45.136a.675.675 0 01-.393.404z" fill="#66757F"/><path d="M46.019 25.234s-4.939-3.027-20.816-2.075c-15.878.952-20.71 4.564-20.71 4.564s-7.617-17.817 20.474-19.5c28.09-1.685 21.052 17.01 21.052 17.01z" fill="#A0041E"/><path d="M12.202 24.902a61.074 61.074 0 014.708-.89L12.9 10.555c-1.714.668-3.13 1.444-4.291 2.289l3.593 12.058zm21.305-1.886c1.58.046 3.157.154 4.726.324l3.206-12.465c-1.187-.704-2.624-1.308-4.355-1.771l-3.578 13.912z" fill="#F4ABBA"/><path d="M33.507 23.016l3.577-13.912c-3.043-.813-6.99-1.19-12.118-.883-5.128.307-9.055 1.156-12.067 2.333l4.01 13.456a92.03 92.03 0 018.293-.852c2.77-.173 5.54-.22 8.305-.142z" fill="#DD2E44"/></g><defs><clipPath id="clip0_1_1057"><path fill="#fff" transform="translate(2.999 32)" d="M0 0h44v44H0z"/></clipPath><clipPath id="clip1_1_1057"><path fill="#fff" transform="matrix(.9397 -.34202 .29237 .9563 .001 15.234)" d="M0 0h44.542v44.542H0z"/></clipPath></defs></svg>