<svg width="48" height="48" fill="none" xmlns="http://www.w3.org/2000/svg"><g clip-path="url(#clip0_1_1044)"><path d="M42.667 31.944A57.705 57.705 0 0048 34.839v-2.76c-4.713-2.44-14.65-8.62-21.333-20.079 0 0 0-2.667-2.667-2.667S21.333 12 21.333 12C14.65 23.459 4.713 29.639 0 32.079v2.76a57.703 57.703 0 005.333-2.895V36H0v5.333h21.333V48h5.334v-6.667H48V36h-5.333v-4.056zM40 36h-5.333v-9.913A58.711 58.711 0 0040 30.213V36zM8 30.212a58.62 58.62 0 005.333-4.125V36H8v-5.788zM16 36V23.61a51.292 51.292 0 005.333-6.206V36H16zm10.667-18.595A51.399 51.399 0 0032 23.612V36h-5.333V17.405z" fill="#FE5011"/></g><defs><clipPath id="clip0_1_1044"><path fill="#fff" d="M0 0h48v48H0z"/></clipPath></defs></svg>