<svg width="32" height="32" fill="none" xmlns="http://www.w3.org/2000/svg"><g clip-path="url(#clip0_1_6437)" stroke="#434EDC" stroke-width="2" stroke-linecap="round" stroke-linejoin="round"><path d="M6.667 9.6A2.933 2.933 0 019.6 6.667h1.334c.774 0 1.517-.307 2.066-.854l.934-.933a2.934 2.934 0 014.16 0l.933.933a2.93 2.93 0 002.066.854h1.334A2.933 2.933 0 0125.36 9.6v1.334c0 .773.307 1.517.854 2.066l.933.934a2.934 2.934 0 010 4.16l-.933.933a2.933 2.933 0 00-.854 2.066v1.334a2.933 2.933 0 01-2.933 2.933h-1.334c-.774 0-1.517.307-2.066.854l-.934.933a2.933 2.933 0 01-4.16 0L13 26.214a2.933 2.933 0 00-2.066-.854H9.6a2.933 2.933 0 01-2.933-2.933v-1.334c0-.774-.307-1.517-.854-2.066l-.933-.934a2.933 2.933 0 010-4.16L5.813 13c.547-.55.853-1.292.854-2.066V9.6z"/><path d="M12 16l2.667 2.667L20 13.333"/></g><defs><clipPath id="clip0_1_6437"><path fill="#fff" d="M0 0h32v32H0z"/></clipPath></defs></svg>