<svg width="1440" height="3472" fill="none" xmlns="http://www.w3.org/2000/svg"><g opacity=".37" filter="url(#filter0_f_1_17975)"><path d="M275.5 990.5C272.3 657.3 600.5 592 765 601c222 80.5 53.5 175.5 53.5 298s599.5 493 584.5 569.5 114.5 592 145 863.5-290.5 477.5-447 527.5-435.5-57.5-435.5-287 298-657 290.5-909.5-676.5-256-680.5-672.5z" fill="url(#paint0_linear_1_17975)"/></g><g opacity=".3" filter="url(#filter1_f_1_17975)"><ellipse cx="1117.5" cy="1219.5" rx="357.5" ry="363.5" fill="url(#paint1_linear_1_17975)"/></g><g opacity=".3" filter="url(#filter2_f_1_17975)"><ellipse cx="1280.5" cy="1478.5" rx="583.5" ry="592.5" fill="url(#paint2_linear_1_17975)"/></g><defs><linearGradient id="paint0_linear_1_17975" x1="912.753" y1="600.221" x2="912.753" y2="2871.55" gradientUnits="userSpaceOnUse"><stop stop-color="#434EDC"/><stop offset=".427" stop-color="#434EDC" stop-opacity=".74"/><stop offset=".766" stop-color="#FF48B5" stop-opacity=".23"/><stop offset="1" stop-color="#434EDC" stop-opacity="0"/></linearGradient><linearGradient id="paint1_linear_1_17975" x1="1020.26" y1="856" x2="1120.73" y2="1582.55" gradientUnits="userSpaceOnUse"><stop stop-color="#E5FAF9"/><stop offset="1" stop-color="#E3E8F8"/></linearGradient><linearGradient id="paint2_linear_1_17975" x1="1121.79" y1="886" x2="1285.34" y2="2070.33" gradientUnits="userSpaceOnUse"><stop stop-color="#E5FAF9"/><stop offset="1" stop-color="#E3E8F8"/></linearGradient><filter id="filter0_f_1_17975" x="-324.523" y=".221" width="2474.55" height="3471.33" filterUnits="userSpaceOnUse" color-interpolation-filters="sRGB"><feFlood flood-opacity="0" result="BackgroundImageFix"/><feBlend in="SourceGraphic" in2="BackgroundImageFix" result="shape"/><feGaussianBlur stdDeviation="300" result="effect1_foregroundBlur_1_17975"/></filter><filter id="filter1_f_1_17975" x="260" y="356" width="1715" height="1727" filterUnits="userSpaceOnUse" color-interpolation-filters="sRGB"><feFlood flood-opacity="0" result="BackgroundImageFix"/><feBlend in="SourceGraphic" in2="BackgroundImageFix" result="shape"/><feGaussianBlur stdDeviation="250" result="effect1_foregroundBlur_1_17975"/></filter><filter id="filter2_f_1_17975" x="197" y="386" width="2167" height="2185" filterUnits="userSpaceOnUse" color-interpolation-filters="sRGB"><feFlood flood-opacity="0" result="BackgroundImageFix"/><feBlend in="SourceGraphic" in2="BackgroundImageFix" result="shape"/><feGaussianBlur stdDeviation="250" result="effect1_foregroundBlur_1_17975"/></filter></defs></svg>