<svg width="680" height="304" fill="none" xmlns="http://www.w3.org/2000/svg"><rect width="680" height="304" rx="16" fill="#fff"/><path d="M32.488 85.752c-.966.326-1.886.488-2.76.488-.868 0-1.64-.199-2.317-.597a4.286 4.286 0 01-1.574-1.627c-.377-.688-.566-1.468-.566-2.341 0-1.313.427-2.403 1.28-3.271.857-.869 1.89-1.303 3.1-1.303.894 0 1.84.168 2.837.504v1.388c-1.008-.46-1.91-.69-2.705-.69a2.98 2.98 0 00-1.489.395c-.465.259-.824.664-1.077 1.217a4.053 4.053 0 00-.38 1.705c0 .78.243 1.525.729 2.233.49.708 1.258 1.062 2.302 1.062.315 0 .625-.02.93-.062.305-.047.868-.21 1.69-.489v1.388zm5.813.488c-1.24 0-2.232-.431-2.976-1.294-.744-.868-1.116-1.961-1.116-3.28 0-1.317.372-2.407 1.116-3.27.744-.863 1.736-1.295 2.976-1.295 1.235 0 2.225.432 2.97 1.295.743.863 1.115 1.953 1.115 3.27 0 1.319-.372 2.412-1.116 3.28-.744.863-1.734 1.294-2.969 1.294zm0-1.201c.77 0 1.383-.3 1.837-.9.455-.599.683-1.423.683-2.472 0-1.044-.228-1.866-.682-2.465-.455-.6-1.068-.9-1.838-.9-.775 0-1.39.3-1.844.9-.455.6-.682 1.421-.682 2.465 0 1.049.227 1.873.682 2.473.454.6 1.07.899 1.844.899zm5.97.961v-8.658h1.44v1.891c.414-.667.913-1.189 1.497-1.566.584-.377 1.168-.566 1.752-.566.511 0 .976.137 1.395.411.419.269.71.623.876 1.062.17.44.256 1.302.256 2.59V86h-1.442v-5.015c0-.832-.041-1.38-.124-1.644a1.262 1.262 0 00-.442-.658 1.088 1.088 0 00-.698-.256c-.506 0-1.051.24-1.635.72a5.794 5.794 0 00-1.434 1.807V86H44.27zm16.773-.349c-.677.284-1.168.452-1.472.504-.305.057-.6.085-.884.085a3.894 3.894 0 01-1.659-.349 2.463 2.463 0 01-1.14-1.03c-.253-.455-.38-1.158-.38-2.109v-3.488h-2.162v-1.201h2.163v-3.489h1.442v3.489h3.852v1.201h-3.852v3.465c0 .698.082 1.191.248 1.48.165.285.384.494.658.628.28.135.608.202.985.202.697 0 1.431-.22 2.201-.66v1.272zm3.031.349v-8.658h1.442v1.891c.45-.713.964-1.245 1.542-1.597a3.66 3.66 0 011.946-.535c.522 0 1.044.08 1.566.24v3.125h-1.388v-1.977a3.639 3.639 0 00-.573-.062c-.538 0-1.065.212-1.582.635-.516.424-1.02 1.06-1.511 1.907V86h-1.442zm14.488-1.946c-.44.724-.97 1.269-1.59 1.636-.614.367-1.18.55-1.697.55-.724 0-1.375-.312-1.953-.938-.574-.625-.86-1.573-.86-2.844 0-1.003.19-1.897.573-2.682.382-.791.894-1.414 1.535-1.868.64-.46 1.434-.69 2.38-.69.273 0 .687.028 1.24.085.082.01.206.023.372.039h1.45v6.115c0 1.044.108 1.892.325 2.543h-1.504c-.114-.475-.204-1.124-.271-1.946zm0-1.713v-3.713a5.636 5.636 0 00-1.427-.201c-.888 0-1.63.343-2.224 1.03-.59.688-.884 1.623-.884 2.807 0 .858.16 1.506.48 1.945.326.434.696.651 1.109.651.45 0 .946-.227 1.488-.682.543-.454 1.029-1.067 1.458-1.837zm11.13 3.411c-.966.326-1.885.488-2.759.488-.868 0-1.64-.199-2.317-.597a4.286 4.286 0 01-1.574-1.627c-.377-.688-.566-1.468-.566-2.341 0-1.313.426-2.403 1.279-3.271.858-.869 1.891-1.303 3.1-1.303.895 0 1.84.168 2.838.504v1.388c-1.008-.46-1.91-.69-2.706-.69-.527 0-1.023.132-1.488.395-.465.259-.824.664-1.077 1.217a4.055 4.055 0 00-.38 1.705c0 .78.243 1.525.728 2.233.491.708 1.259 1.062 2.303 1.062.315 0 .625-.02.93-.062.305-.047.868-.21 1.69-.489v1.388zm9.489-.1c-.678.283-1.168.451-1.473.503-.305.057-.6.085-.884.085a3.894 3.894 0 01-1.659-.349 2.463 2.463 0 01-1.14-1.03c-.252-.455-.38-1.158-.38-2.109v-3.488h-2.162v-1.201h2.163v-3.489h1.442v3.489h3.852v1.201H95.09v3.465c0 .698.082 1.191.248 1.48.165.285.385.494.659.628.279.135.607.202.984.202.698 0 1.431-.22 2.201-.66v1.272zm28.649 24.1c-.966.326-1.886.488-2.76.488-.868 0-1.64-.199-2.317-.597a4.283 4.283 0 01-1.574-1.627c-.377-.688-.566-1.468-.566-2.341 0-1.313.427-2.403 1.279-3.271.858-.869 1.892-1.303 3.101-1.303.894 0 1.84.168 2.837.504v1.388c-1.008-.46-1.91-.69-2.705-.69a2.98 2.98 0 00-1.489.395c-.465.259-.824.664-1.077 1.217a4.057 4.057 0 00-.38 1.705c0 .781.243 1.525.729 2.233.491.708 1.258 1.062 2.302 1.062.315 0 .625-.021.93-.062.305-.047.868-.21 1.69-.489v1.388zm5.813.488c-1.24 0-2.232-.431-2.976-1.294-.744-.868-1.116-1.961-1.116-3.279 0-1.318.372-2.408 1.116-3.271.744-.863 1.736-1.295 2.976-1.295 1.236 0 2.225.432 2.969 1.295.744.863 1.116 1.953 1.116 3.271 0 1.318-.372 2.411-1.116 3.279-.744.863-1.733 1.294-2.969 1.294zm0-1.201c.77 0 1.383-.3 1.838-.899.454-.6.682-1.424.682-2.473 0-1.044-.228-1.866-.682-2.465-.455-.599-1.068-.899-1.838-.899-.775 0-1.39.3-1.844.899-.455.599-.683 1.421-.683 2.465 0 1.049.228 1.873.683 2.473.454.599 1.069.899 1.844.899zm5.969.961v-8.658h1.442v1.891c.413-.667.912-1.189 1.496-1.566s1.168-.566 1.752-.566c.511 0 .976.137 1.395.411.419.269.711.623.876 1.062.17.439.256 1.302.256 2.589V110h-1.442v-5.015c0-.832-.041-1.38-.124-1.644a1.264 1.264 0 00-.442-.658 1.085 1.085 0 00-.698-.256c-.506 0-1.051.24-1.635.721a5.775 5.775 0 00-1.434 1.806V110h-1.442zm9.635-.457v-1.527a5.848 5.848 0 001.837.798c.646.15 1.194.225 1.644.225.728 0 1.253-.116 1.573-.349.321-.238.481-.532.481-.884a.86.86 0 00-.225-.597c-.15-.165-.522-.369-1.116-.612l-.496-.201-1-.396c-1.075-.418-1.752-.806-2.031-1.162-.284-.352-.427-.781-.427-1.287 0-.713.274-1.3.822-1.76.553-.46 1.447-.69 2.682-.69.925 0 1.801.135 2.628.403v1.31c-.951-.341-1.845-.511-2.682-.511-.61 0-1.088.108-1.434.325-.341.212-.512.478-.512.799 0 .31.15.558.45.744.294.186.775.4 1.442.643l.976.357c.894.325 1.522.679 1.884 1.062.362.382.542.86.542 1.434 0 .749-.289 1.367-.868 1.852-.573.481-1.493.721-2.759.721-1.106 0-2.243-.232-3.411-.697zm16.674.108c-.677.284-1.168.452-1.473.504-.305.057-.6.085-.884.085a3.892 3.892 0 01-1.659-.349 2.46 2.46 0 01-1.139-1.03c-.253-.455-.38-1.158-.38-2.109v-3.488h-2.163v-1.202h2.163v-3.488h1.442v3.488h3.852v1.202h-3.852v3.465c0 .698.082 1.191.248 1.48.165.285.385.494.659.628.279.135.607.202.984.202.698 0 1.432-.22 2.202-.659v1.271zm7.984-1.597c-.44.724-.969 1.269-1.589 1.636-.615.367-1.181.55-1.698.55-.724 0-1.375-.312-1.953-.938-.574-.625-.861-1.573-.861-2.844 0-1.003.191-1.897.574-2.682.382-.791.894-1.414 1.535-1.869.64-.459 1.434-.689 2.379-.689.274 0 .688.028 1.241.085.082.01.206.023.372.039h1.449v6.116c0 1.043.109 1.891.326 2.542h-1.504c-.114-.475-.204-1.124-.271-1.946zm0-1.713v-3.713a5.655 5.655 0 00-1.427-.201c-.889 0-1.63.343-2.224 1.031-.589.687-.884 1.622-.884 2.806 0 .858.16 1.506.481 1.945.325.434.695.652 1.108.652.45 0 .946-.228 1.488-.683.543-.454 1.029-1.067 1.458-1.837zM177.75 110v-8.658h1.442v1.891c.413-.667.912-1.189 1.496-1.566s1.168-.566 1.752-.566c.512 0 .977.137 1.395.411.419.269.711.623.876 1.062.171.439.256 1.302.256 2.589V110h-1.442v-5.015c0-.832-.041-1.38-.124-1.644a1.258 1.258 0 00-.442-.658 1.085 1.085 0 00-.697-.256c-.507 0-1.052.24-1.636.721a5.775 5.775 0 00-1.434 1.806V110h-1.442zm16.774-.349c-.676.284-1.167.452-1.472.504-.305.057-.6.085-.884.085a3.886 3.886 0 01-1.659-.349 2.46 2.46 0 01-1.139-1.03c-.253-.455-.38-1.158-.38-2.109v-3.488h-2.163v-1.202h2.163v-3.488h1.442v3.488h3.852v1.202h-3.852v3.465c0 .698.082 1.191.248 1.48.165.285.385.494.659.628.279.135.607.202.984.202.698 0 1.431-.22 2.201-.659v1.271z" fill="#638EF6"/><path d="M371.475 81.07c.481.253.832.501 1.054.744.227.243.395.494.504.752.114.253.17.545.17.876 0 .295-.051.68-.155 1.155l-.193.884c-.104.48-.155.837-.155 1.07 0 .315.121.58.364.798.248.222.754.333 1.519.333h1.202v1.201h-1.217c-1.416 0-2.328-.227-2.737-.682-.408-.454-.612-.968-.612-1.542 0-.305.039-.633.116-.985l.14-.62.132-.674.093-.41c.036-.192.054-.378.054-.559 0-.48-.163-.891-.488-1.233-.321-.34-.889-.511-1.706-.511h-.69v-1.201h.69c.806 0 1.372-.168 1.698-.504.331-.336.496-.755.496-1.256 0-.186-.018-.367-.054-.543l-.093-.403-.132-.674-.14-.62a4.724 4.724 0 01-.116-.992c0-.569.204-1.08.612-1.535.409-.46 1.321-.69 2.737-.69h1.217v1.21h-1.202c-.759 0-1.263.11-1.511.332a1.029 1.029 0 00-.372.806c0 .228.051.582.155 1.063l.193.883c.104.476.155.86.155 1.155 0 .33-.056.625-.17.884a2.615 2.615 0 01-.504.744c-.222.243-.573.49-1.054.744zM63.47 110V97.97h2.35c1.41 0 2.353.108 2.828.325.481.212.84.527 1.078.946.238.418.356.897.356 1.434 0 .424-.07.827-.209 1.209a3.35 3.35 0 01-.62 1.039c-.274.31-.672.605-1.194.884.956.382 1.602.852 1.938 1.41.341.558.512 1.117.512 1.675 0 .532-.145 1.049-.434 1.55a2.88 2.88 0 01-1.202 1.155c-.517.269-1.343.403-2.48.403H63.47zm1.566-6.612h1.644c.532-.222.92-.455 1.162-.698.248-.248.432-.522.55-.821a2.61 2.61 0 00.187-1c0-.569-.168-.992-.504-1.272-.33-.278-.98-.418-1.946-.418h-1.093v4.209zm0 5.411h1.48c.828 0 1.437-.194 1.83-.582.398-.393.597-.863.597-1.411a2 2 0 00-.326-1.108c-.217-.341-.553-.61-1.007-.806-.455-.202-1.168-.303-2.14-.303h-.434v4.21zM75.198 110V98.698H72.61V97.49h4.031v11.31h2.706v1.2h-4.148zm12.899-1.946c-.44.724-.97 1.269-1.59 1.636-.614.367-1.18.55-1.697.55-.723 0-1.374-.312-1.953-.938-.574-.625-.86-1.573-.86-2.844 0-1.003.19-1.897.573-2.682.383-.791.894-1.414 1.535-1.869.64-.459 1.434-.689 2.38-.689.273 0 .687.028 1.24.085.083.01.207.023.372.039h1.45v6.116c0 1.043.108 1.891.325 2.542h-1.504c-.114-.475-.204-1.124-.271-1.946zm0-1.713v-3.713a5.652 5.652 0 00-1.426-.201c-.89 0-1.63.343-2.225 1.031-.59.687-.884 1.622-.884 2.806 0 .858.16 1.506.48 1.945.326.434.696.652 1.11.652.449 0 .945-.228 1.488-.683.542-.454 1.028-1.067 1.457-1.837zm3.945 3.202v-1.527a5.846 5.846 0 001.837.798c.646.15 1.194.225 1.644.225.728 0 1.253-.116 1.573-.349.32-.238.48-.532.48-.884a.86.86 0 00-.224-.597c-.15-.165-.522-.369-1.116-.612l-.496-.201-1-.396c-1.075-.418-1.752-.806-2.031-1.162-.284-.352-.426-.781-.426-1.287 0-.713.273-1.3.821-1.76.553-.46 1.447-.69 2.682-.69.925 0 1.801.135 2.628.403v1.31c-.95-.341-1.845-.511-2.682-.511-.61 0-1.088.108-1.434.325-.341.212-.512.478-.512.799 0 .31.15.558.45.744.295.186.775.4 1.442.643l.977.357c.894.325 1.521.679 1.883 1.062.362.382.543.86.543 1.434 0 .749-.29 1.367-.868 1.852-.574.481-1.494.721-2.76.721-1.106 0-2.243-.232-3.41-.697zm16.674.108c-.677.284-1.168.452-1.473.504a4.803 4.803 0 01-.884.085 3.884 3.884 0 01-1.658-.349 2.458 2.458 0 01-1.14-1.03c-.253-.455-.38-1.158-.38-2.109v-3.488h-2.162v-1.202h2.162v-3.488h1.442v3.488h3.852v1.202h-3.852v3.465c0 .698.083 1.191.248 1.48.165.285.385.494.659.628.279.135.607.202.984.202.698 0 1.432-.22 2.202-.659v1.271zm98.97-6.364c.445-.723.975-1.268 1.59-1.635.614-.367 1.18-.551 1.697-.551.724 0 1.375.313 1.953.938.579.626.869 1.574.869 2.845 0 1.003-.194 1.899-.582 2.69-.382.785-.894 1.408-1.535 1.868-.64.455-1.434.682-2.379.682-.269 0-.682-.028-1.24-.085a12.463 12.463 0 00-.373-.039h-1.441V97.49h1.441v5.797zm0 1.713v3.713a5.792 5.792 0 001.442.202c.874 0 1.607-.341 2.202-1.023.599-.688.899-1.626.899-2.814 0-.863-.163-1.512-.489-1.946-.325-.434-.695-.651-1.108-.651-.45 0-.946.227-1.488.682-.538.455-1.023 1.067-1.458 1.837zm10.527 5V98.698h-2.589V97.49h4.031v11.31h2.705v1.2h-4.147zm12.898-1.946c-.439.724-.969 1.269-1.589 1.636-.615.367-1.18.55-1.697.55-.724 0-1.375-.312-1.954-.938-.573-.625-.86-1.573-.86-2.844 0-1.003.191-1.897.574-2.682.382-.791.894-1.414 1.534-1.869.641-.459 1.434-.689 2.38-.689.274 0 .687.028 1.24.085.083.01.207.023.372.039h1.45v6.116c0 1.043.108 1.891.325 2.542h-1.503c-.114-.475-.204-1.124-.272-1.946zm0-1.713v-3.713a5.648 5.648 0 00-1.426-.201c-.889 0-1.63.343-2.225 1.031-.589.687-.883 1.622-.883 2.806 0 .858.16 1.506.48 1.945.326.434.695.652 1.109.652.449 0 .946-.228 1.488-.683.543-.454 1.028-1.067 1.457-1.837zm3.946 3.202v-1.527a5.848 5.848 0 001.837.798c.646.15 1.194.225 1.643.225.729 0 1.253-.116 1.574-.349.32-.238.48-.532.48-.884a.863.863 0 00-.224-.597c-.15-.165-.522-.369-1.117-.612l-.496-.201-1-.396c-1.074-.418-1.751-.806-2.03-1.162-.285-.352-.427-.781-.427-1.287 0-.713.274-1.3.822-1.76.553-.46 1.447-.69 2.682-.69.925 0 1.801.135 2.628.403v1.31c-.951-.341-1.845-.511-2.682-.511-.61 0-1.088.108-1.434.325-.342.212-.512.478-.512.799 0 .31.15.558.45.744.294.186.775.4 1.441.643l.977.357c.894.325 1.522.679 1.884 1.062.361.382.542.86.542 1.434 0 .749-.289 1.367-.868 1.852-.574.481-1.493.721-2.759.721-1.106 0-2.243-.232-3.411-.697zm16.673.108c-.677.284-1.168.452-1.472.504-.305.057-.6.085-.884.085a3.886 3.886 0 01-1.659-.349 2.46 2.46 0 01-1.139-1.03c-.254-.455-.38-1.158-.38-2.109v-3.488h-2.163v-1.202h2.163v-3.488h1.442v3.488h3.852v1.202h-3.852v3.465c0 .698.082 1.191.248 1.48.165.285.385.494.658.628.279.135.608.202.985.202.698 0 1.431-.22 2.201-.659v1.271zm85.677 3.233c-1.431-.088-2.638-.494-3.62-1.217-.982-.719-1.767-1.69-2.356-2.915-.584-1.225-.876-2.452-.876-3.682s.292-2.457.876-3.682c.589-1.225 1.374-2.196 2.356-2.914.982-.724 2.189-1.132 3.62-1.225v1.21c-1.08.097-2.01.462-2.79 1.092-.775.625-1.385 1.424-1.83 2.395a7.428 7.428 0 00-.666 3.124c0 1.111.222 2.152.666 3.124.445.971 1.055 1.77 1.83 2.395.78.625 1.71.99 2.79 1.093v1.202zm269.402-15.635c1.432.093 2.638.501 3.62 1.225.982.718 1.765 1.689 2.349 2.914.589 1.225.884 2.452.884 3.682s-.295 2.457-.884 3.682c-.584 1.225-1.367 2.196-2.349 2.915-.982.723-2.188 1.129-3.62 1.217v-1.202c1.08-.103 2.008-.468 2.783-1.093.78-.625 1.393-1.424 1.837-2.395.45-.972.675-2.013.675-3.124a7.344 7.344 0 00-.675-3.124c-.444-.971-1.057-1.77-1.837-2.395-.775-.63-1.703-.995-2.783-1.093v-1.21zm11.604 16.115v-.961c.372-.098.654-.24.845-.426.197-.181.352-.414.465-.698.119-.279.179-.618.179-1.015-.481 0-.835-.135-1.062-.404-.228-.273-.341-.565-.341-.875 0-.357.126-.657.379-.9.254-.248.548-.372.884-.372.434 0 .809.189 1.124.566.315.372.473.884.473 1.535 0 .568-.124 1.103-.372 1.605a3.893 3.893 0 01-1.016 1.294c-.423.357-.943.574-1.558.651zm1.349-9.736c-.346 0-.643-.124-.891-.372a1.216 1.216 0 01-.372-.891 1.2 1.2 0 01.372-.892c.253-.248.55-.372.891-.372.341 0 .636.124.884.372.253.243.38.54.38.892 0 .346-.124.643-.372.891a1.22 1.22 0 01-.892.372z" fill="#2D2D2D"/><path d="M118.242 85.86c-.899.336-1.705.504-2.418.504a4.75 4.75 0 01-2.597-.752c-.791-.506-1.405-1.255-1.845-2.247-.439-.998-.659-2.124-.659-3.38 0-1.245.217-2.364.652-3.356.434-.993 1.046-1.745 1.837-2.256a4.708 4.708 0 012.612-.768c.713 0 1.519.168 2.418.504v1.427c-.832-.481-1.659-.721-2.48-.721-.62 0-1.189.212-1.705.635-.512.424-.925 1.047-1.241 1.868a7.346 7.346 0 00-.473 2.667c0 .977.163 1.878.489 2.705.325.827.741 1.447 1.248 1.86.506.409 1.067.613 1.682.613.816 0 1.643-.24 2.48-.721v1.419zm5.868.38c-1.24 0-2.232-.431-2.976-1.294-.745-.868-1.117-1.961-1.117-3.28 0-1.317.372-2.407 1.117-3.27.744-.863 1.736-1.295 2.976-1.295 1.235 0 2.225.432 2.969 1.295.744.863 1.116 1.953 1.116 3.27 0 1.319-.372 2.412-1.116 3.28-.744.863-1.734 1.294-2.969 1.294zm0-1.201c.77 0 1.383-.3 1.837-.9.455-.599.682-1.423.682-2.472 0-1.044-.227-1.866-.682-2.465-.454-.6-1.067-.9-1.837-.9-.775 0-1.39.3-1.845.9-.454.6-.682 1.421-.682 2.465 0 1.049.228 1.873.682 2.473.455.6 1.07.899 1.845.899zm5.969.961v-8.658h1.442v1.891c.413-.667.912-1.189 1.496-1.566s1.167-.566 1.751-.566c.512 0 .977.137 1.396.411.418.269.71.623.876 1.062.17.44.255 1.302.255 2.59V86h-1.441v-5.015c0-.832-.042-1.38-.124-1.644a1.265 1.265 0 00-.442-.658 1.09 1.09 0 00-.698-.256c-.506 0-1.051.24-1.635.72a5.788 5.788 0 00-1.434 1.807V86h-1.442zm16.774-.349c-.677.284-1.168.452-1.473.504a4.81 4.81 0 01-.883.085 3.893 3.893 0 01-1.659-.349 2.463 2.463 0 01-1.14-1.03c-.253-.455-.38-1.158-.38-2.109v-3.488h-2.162v-1.201h2.162v-3.489h1.442v3.489h3.853v1.201h-3.853v3.465c0 .698.083 1.191.248 1.48.166.285.385.494.659.628.279.135.607.202.985.202.697 0 1.431-.22 2.201-.66v1.272zm3.031.349v-8.658h1.442v1.891c.449-.713.963-1.245 1.542-1.597a3.662 3.662 0 011.946-.535c.522 0 1.044.08 1.566.24v3.125h-1.388v-1.977a3.638 3.638 0 00-.574-.062c-.537 0-1.064.212-1.581.635-.517.424-1.021 1.06-1.511 1.907V86h-1.442zm14.487-1.946c-.439.724-.969 1.269-1.589 1.636-.615.367-1.181.55-1.697.55-.724 0-1.375-.312-1.954-.938-.573-.625-.86-1.573-.86-2.844 0-1.003.191-1.897.573-2.682.383-.791.894-1.414 1.535-1.868.641-.46 1.434-.69 2.38-.69.274 0 .687.028 1.24.085.083.01.207.023.372.039h1.45v6.115c0 1.044.108 1.892.325 2.543h-1.503c-.114-.475-.205-1.124-.272-1.946zm0-1.713v-3.713a5.632 5.632 0 00-1.426-.201c-.889 0-1.63.343-2.225 1.03-.589.688-.883 1.623-.883 2.807 0 .858.16 1.506.48 1.945.326.434.695.651 1.109.651.449 0 .945-.227 1.488-.682.543-.454 1.028-1.067 1.457-1.837zm11.131 3.411c-.966.326-1.886.488-2.759.488-.868 0-1.641-.199-2.318-.597a4.282 4.282 0 01-1.573-1.627c-.378-.688-.566-1.468-.566-2.341 0-1.313.426-2.403 1.279-3.271.858-.869 1.891-1.303 3.1-1.303.894 0 1.84.168 2.837.504v1.388c-1.007-.46-1.909-.69-2.705-.69a2.97 2.97 0 00-1.488.395c-.465.259-.824.664-1.078 1.217a4.057 4.057 0 00-.379 1.705c0 .78.242 1.525.728 2.233.491.708 1.259 1.062 2.302 1.062.316 0 .626-.02.931-.062.304-.047.868-.21 1.689-.489v1.388zm9.488-.1c-.677.283-1.168.451-1.473.503a4.803 4.803 0 01-.883.085 3.893 3.893 0 01-1.659-.349 2.468 2.468 0 01-1.14-1.03c-.253-.455-.379-1.158-.379-2.109v-3.488h-2.163v-1.201h2.163v-3.489h1.441v3.489h3.853v1.201h-3.853v3.465c0 .698.083 1.191.248 1.48.166.285.385.494.659.628.279.135.608.202.985.202.697 0 1.431-.22 2.201-.66v1.272zm2.705.348L186.3 73.97h1.426l.822 7.325.109 1.217h.038l.155-1.217 1.264-7.325h1.426l1.442 7.62.147 1.162h.039l.093-1.17.907-7.612h1.225L193.935 86h-1.48l-1.55-8.154-.163-1.225h-.039l-.147 1.225L189.16 86h-1.465zm11.55 0v-7.457h-2.403v-1.201h3.845v7.457h2.411V86h-3.853zm-.24-11.782c0-.326.111-.569.333-.729.222-.16.432-.24.628-.24.202 0 .413.08.636.24.222.16.333.403.333.729 0 .32-.111.56-.333.72-.223.16-.434.241-.636.241-.196 0-.406-.08-.628-.24-.222-.16-.333-.4-.333-.721zm14.588 11.433c-.677.284-1.168.452-1.473.504a4.81 4.81 0 01-.883.085 3.893 3.893 0 01-1.659-.349 2.468 2.468 0 01-1.14-1.03c-.253-.455-.379-1.158-.379-2.109v-3.488h-2.163v-1.201h2.163v-3.489h1.441v3.489h3.853v1.201H209.5v3.465c0 .698.083 1.191.248 1.48.166.285.385.494.659.628.279.135.607.202.985.202.697 0 1.431-.22 2.201-.66v1.272zm2.295.349V73.49h1.441v5.743c.414-.667.912-1.189 1.496-1.566s1.168-.566 1.752-.566c.491 0 .938.127 1.341.38.408.248.693.55.853.907.129.274.217.566.263.876.047.305.07.938.07 1.9V86h-1.442v-5.015c0-.832-.041-1.38-.124-1.644a1.254 1.254 0 00-.442-.658 1.085 1.085 0 00-.697-.256c-.507 0-1.052.24-1.636.72a5.817 5.817 0 00-1.434 1.807V86h-1.441zm10.092 0h-1.504l3.705-12.03h1.589L233.499 86h-1.651l-.822-2.643h-4.232L225.98 86zm1.186-3.845h3.511l-1.449-4.565-.341-1.21-.303 1.21-1.418 4.565zm14.914-4.813V86h-1.442v-1.9c-.465.714-.982 1.249-1.55 1.605-.569.357-1.137.535-1.706.535-.506 0-.971-.134-1.395-.403a2.176 2.176 0 01-.876-1.07c-.165-.444-.248-1.307-.248-2.588v-4.837h1.442v5.015c0 .832.039 1.382.116 1.65.083.264.23.481.442.652.217.17.45.256.698.256.506 0 1.049-.238 1.627-.713a5.805 5.805 0 001.45-1.814v-5.046h1.442zm9.65 8.31c-.677.283-1.168.451-1.472.503-.305.057-.6.085-.884.085a3.893 3.893 0 01-1.659-.349 2.461 2.461 0 01-1.139-1.03c-.254-.455-.38-1.158-.38-2.109v-3.488h-2.163v-1.201h2.163v-3.489h1.442v3.489h3.852v1.201h-3.852v3.465c0 .698.082 1.191.248 1.48.165.285.385.494.658.628.279.135.608.202.985.202.698 0 1.431-.22 2.201-.66v1.272zm5.86.588c-1.24 0-2.232-.431-2.976-1.294-.744-.868-1.116-1.961-1.116-3.28 0-1.317.372-2.407 1.116-3.27.744-.863 1.736-1.295 2.976-1.295 1.235 0 2.225.432 2.969 1.295.744.863 1.116 1.953 1.116 3.27 0 1.319-.372 2.412-1.116 3.28-.744.863-1.734 1.294-2.969 1.294zm0-1.201c.77 0 1.383-.3 1.837-.9.455-.599.683-1.423.683-2.472 0-1.044-.228-1.866-.683-2.465-.454-.6-1.067-.9-1.837-.9-.775 0-1.39.3-1.844.9-.455.6-.683 1.421-.683 2.465 0 1.049.228 1.873.683 2.473.454.6 1.069.899 1.844.899zm5.318.961v-8.658h1.263v1.984c.398-.842.768-1.424 1.109-1.744.346-.32.695-.48 1.046-.48.419 0 .755.165 1.008.495.258.326.388.791.388 1.396v.465c.17-.527.374-.954.612-1.28.243-.33.493-.59.752-.782.258-.197.555-.295.891-.295.372 0 .69.158.954.473.263.315.395.943.395 1.884V86h-1.264v-5.914c0-.486-.015-.817-.046-.993-.031-.18-.093-.317-.186-.41a.422.422 0 00-.302-.14c-.269 0-.558.207-.869.62-.304.409-.617 1.088-.937 2.039V86h-1.21v-5.907c0-.764-.075-1.214-.224-1.348-.15-.135-.285-.202-.404-.202-.263 0-.547.23-.852.69-.3.46-.587 1.049-.861 1.767v5h-1.263zm15.875-1.946c-.439.724-.969 1.269-1.589 1.636-.615.367-1.181.55-1.698.55-.723 0-1.374-.312-1.953-.938-.574-.625-.861-1.573-.861-2.844 0-1.003.192-1.897.574-2.682.383-.791.894-1.414 1.535-1.868.641-.46 1.434-.69 2.38-.69.273 0 .687.028 1.24.085.083.01.207.023.372.039h1.449v6.115c0 1.044.109 1.892.326 2.543h-1.504c-.113-.475-.204-1.124-.271-1.946zm0-1.713v-3.713a5.638 5.638 0 00-1.426-.201c-.889 0-1.631.343-2.225 1.03-.589.688-.884 1.623-.884 2.807 0 .858.16 1.506.481 1.945.325.434.695.651 1.108.651.45 0 .946-.227 1.489-.682.542-.454 1.028-1.067 1.457-1.837zm11.084 3.31c-.676.284-1.167.452-1.472.504-.305.057-.6.085-.884.085a3.893 3.893 0 01-1.659-.349 2.461 2.461 0 01-1.139-1.03c-.253-.455-.38-1.158-.38-2.109v-3.488h-2.163v-1.201h2.163v-3.489h1.442v3.489h3.852v1.201h-3.852v3.465c0 .698.082 1.191.248 1.48.165.285.385.494.659.628.279.135.607.202.984.202.698 0 1.432-.22 2.201-.66v1.272zm4.721.349v-7.457h-2.403v-1.201h3.845v7.457h2.411V86h-3.853zm-.24-11.782c0-.326.111-.569.333-.729.222-.16.432-.24.628-.24.202 0 .413.08.636.24.222.16.333.403.333.729 0 .32-.111.56-.333.72-.223.16-.434.241-.636.241-.196 0-.406-.08-.628-.24-.222-.16-.333-.4-.333-.721zm14.635 11.534c-.967.326-1.887.488-2.76.488-.868 0-1.641-.199-2.318-.597a4.289 4.289 0 01-1.573-1.627c-.377-.688-.566-1.468-.566-2.341 0-1.313.426-2.403 1.279-3.271.858-.869 1.891-1.303 3.101-1.303.894 0 1.839.168 2.837.504v1.388c-1.008-.46-1.91-.69-2.706-.69a2.97 2.97 0 00-1.488.395c-.465.259-.824.664-1.077 1.217a4.043 4.043 0 00-.38 1.705c0 .78.243 1.525.728 2.233.491.708 1.259 1.062 2.303 1.062.315 0 .625-.02.93-.062.305-.047.868-.21 1.69-.489v1.388zm5.03.248v-5.566l-3.581-6.464h1.775l2.674 4.775 2.667-4.775h1.605l-3.574 6.464V86h-1.566zm9.178 0v-7.457h-2.403v-1.201h3.845v7.457h2.411V86h-3.853zm-.24-11.782c0-.326.111-.569.333-.729.222-.16.432-.24.628-.24.201 0 .413.08.636.24.222.16.333.403.333.729 0 .32-.111.56-.333.72-.223.16-.435.241-.636.241-.196 0-.406-.08-.628-.24-.222-.16-.333-.4-.333-.721zM337.5 85.426c-1.152.548-2.243.822-3.271.822-.78 0-1.478-.194-2.093-.581-.615-.388-1.108-.94-1.48-1.66a5.053 5.053 0 01-.551-2.317c0-.79.176-1.55.527-2.279.352-.728.843-1.294 1.473-1.697a3.798 3.798 0 012.109-.613c1.028 0 1.852.367 2.472 1.101.626.734.938 1.865.938 3.395v.31h-5.968c0 .6.124 1.147.372 1.644.253.496.584.868.992 1.116.408.248.873.372 1.395.372.93 0 1.959-.31 3.085-.93v1.317zm-5.759-4.596h4.317v-.21c0-.708-.173-1.27-.519-1.69-.346-.418-.809-.627-1.387-.627-.584 0-1.091.214-1.52.643-.423.424-.721 1.052-.891 1.884zM342.159 86V74.698h-2.589V73.49h4.031V84.8h2.705V86h-4.147zm12.991-1.946c-.439.724-.969 1.269-1.589 1.636-.615.367-1.181.55-1.697.55-.724 0-1.375-.312-1.954-.938-.573-.625-.86-1.573-.86-2.844 0-1.003.191-1.897.574-2.682.382-.791.894-1.414 1.534-1.868.641-.46 1.434-.69 2.38-.69.274 0 .687.028 1.24.085.083.01.207.023.372.039v-3.853h1.45V86h-1.45v-1.946zm0-1.713v-3.713a5.632 5.632 0 00-1.426-.201c-.889 0-1.63.343-2.225 1.03-.589.688-.883 1.623-.883 2.807 0 .858.16 1.506.48 1.945.326.434.695.651 1.109.651.449 0 .945-.227 1.488-.682.543-.454 1.028-1.067 1.457-1.837z" fill="#F8C555"/><path d="M271.326 103.869v1.201h-8.418v-1.201h8.418zm0 2.705v1.201h-8.418v-1.201h8.418z" fill="#67CDCC"/><path d="M282.759 110V97.97h2.349c1.411 0 2.354.108 2.829.325.481.212.84.527 1.078.946.238.418.356.897.356 1.434a3.331 3.331 0 01-.829 2.248c-.274.31-.672.605-1.194.884.956.382 1.602.852 1.938 1.41.341.558.512 1.117.512 1.675 0 .532-.145 1.049-.434 1.55a2.885 2.885 0 01-1.202 1.155c-.517.269-1.343.403-2.48.403h-2.923zm1.566-6.612h1.644c.532-.222.919-.455 1.162-.698.248-.248.432-.522.551-.821a2.63 2.63 0 00.186-1c0-.569-.168-.992-.504-1.272-.331-.278-.979-.418-1.946-.418h-1.093v4.209zm0 5.411h1.481c.827 0 1.436-.194 1.829-.582.398-.393.597-.863.597-1.411a2 2 0 00-.326-1.108c-.217-.341-.553-.61-1.007-.806-.455-.202-1.168-.303-2.14-.303h-.434v4.21zM294.487 110V98.698h-2.589V97.49h4.031v11.31h2.705v1.2h-4.147zm12.899-1.946c-.439.724-.969 1.269-1.589 1.636-.615.367-1.181.55-1.698.55-.723 0-1.374-.312-1.953-.938-.574-.625-.861-1.573-.861-2.844 0-1.003.192-1.897.574-2.682.382-.791.894-1.414 1.535-1.869.641-.459 1.434-.689 2.379-.689.274 0 .688.028 1.241.085.082.01.206.023.372.039h1.449v6.116c0 1.043.109 1.891.326 2.542h-1.504c-.114-.475-.204-1.124-.271-1.946zm0-1.713v-3.713a5.654 5.654 0 00-1.426-.201c-.889 0-1.631.343-2.225 1.031-.589.687-.884 1.622-.884 2.806 0 .858.16 1.506.481 1.945.325.434.695.652 1.108.652.45 0 .946-.228 1.489-.683.542-.454 1.028-1.067 1.457-1.837zm3.945 3.202v-1.527a5.848 5.848 0 001.837.798c.646.15 1.194.225 1.644.225.728 0 1.253-.116 1.573-.349.321-.238.481-.532.481-.884a.86.86 0 00-.225-.597c-.15-.165-.522-.369-1.116-.612l-.496-.201-1-.396c-1.075-.418-1.752-.806-2.031-1.162-.284-.352-.426-.781-.426-1.287 0-.713.273-1.3.821-1.76.553-.46 1.447-.69 2.682-.69.925 0 1.801.135 2.628.403v1.31c-.951-.341-1.845-.511-2.682-.511-.61 0-1.088.108-1.434.325-.341.212-.512.478-.512.799 0 .31.15.558.45.744.295.186.775.4 1.442.643l.976.357c.894.325 1.522.679 1.884 1.062.362.382.543.86.543 1.434 0 .749-.29 1.367-.869 1.852-.573.481-1.493.721-2.759.721-1.106 0-2.243-.232-3.411-.697zm16.674.108c-.677.284-1.168.452-1.473.504-.305.057-.6.085-.884.085a3.892 3.892 0 01-1.659-.349 2.46 2.46 0 01-1.139-1.03c-.253-.455-.38-1.158-.38-2.109v-3.488h-2.163v-1.202h2.163v-3.488h1.442v3.488h3.852v1.202h-3.852v3.465c0 .698.083 1.191.248 1.48.165.285.385.494.659.628.279.135.607.202.984.202.698 0 1.432-.22 2.202-.659v1.271zm15.386-12.038c1.37 0 2.414.576 3.132 1.729.718 1.147 1.077 2.695 1.077 4.643 0 1.953-.359 3.506-1.077 4.658-.718 1.148-1.762 1.721-3.132 1.721-1.364 0-2.408-.573-3.131-1.721-.719-1.152-1.078-2.705-1.078-4.658 0-1.948.359-3.496 1.078-4.643.723-1.153 1.767-1.729 3.131-1.729zm-2.348 8.945l4.162-6.519c-.263-.48-.55-.803-.86-.969a1.929 1.929 0 00-.954-.255c-.863 0-1.519.48-1.969 1.441-.449.956-.674 2.171-.674 3.644 0 .335.01.697.031 1.085.021.387.109.912.264 1.573zm4.682-5.085l-4.132 6.558c.222.377.478.662.767.853.29.186.613.279.969.279.982 0 1.68-.548 2.093-1.643.414-1.101.62-2.321.62-3.659a8.94 8.94 0 00-.317-2.388zm4.542 8.527H348.6l3.403-4.535-3.178-4.123h1.845l2.256 2.906 2.193-2.906h1.636l-3.008 3.984 3.574 4.674h-1.853l-2.635-3.449-2.566 3.449zm12.914 0v-3.364h-5.108v-1.209l5.108-7.457h1.449v7.457h2.225v1.209h-2.225V110h-1.449zm0-4.573v-5.271l-3.574 5.271h3.574zm5.178 4.356v-1.519c1.183.599 2.209.899 3.077.899.796 0 1.452-.24 1.969-.721.522-.486.783-1.109.783-1.868 0-.765-.287-1.388-.86-1.868-.569-.481-1.538-.721-2.907-.721h-.799v-1.202h1.109c1.007 0 1.736-.224 2.186-.674.449-.455.674-.959.674-1.512 0-.501-.183-.922-.55-1.263-.367-.346-.93-.52-1.69-.52-.853 0-1.77.24-2.752.722v-1.373c.982-.366 1.881-.55 2.698-.55 1.462 0 2.47.29 3.023.868.558.574.837 1.23.837 1.969a2.9 2.9 0 01-.442 1.543c-.295.48-.837.909-1.628 1.286.698.207 1.225.46 1.582.76.356.3.625.654.806 1.062.186.408.279.866.279 1.372 0 1.127-.419 2.057-1.256 2.791-.832.733-1.909 1.1-3.232 1.1-.383 0-.801-.028-1.256-.085-.45-.057-1-.222-1.651-.496zm13.17-12.17c1.369 0 2.413.576 3.131 1.729.718 1.147 1.078 2.695 1.078 4.643 0 1.953-.36 3.506-1.078 4.658-.718 1.148-1.762 1.721-3.131 1.721-1.365 0-2.409-.573-3.132-1.721-.718-1.152-1.077-2.705-1.077-4.658 0-1.948.359-3.496 1.077-4.643.723-1.153 1.767-1.729 3.132-1.729zm-2.349 8.945l4.162-6.519c-.263-.48-.55-.803-.86-.969a1.928 1.928 0 00-.953-.255c-.863 0-1.52.48-1.969 1.441-.45.956-.675 2.171-.675 3.644 0 .335.011.697.031 1.085.021.387.109.912.264 1.573zm4.682-5.085l-4.132 6.558c.222.377.478.662.768.853.289.186.612.279.969.279.981 0 1.679-.548 2.092-1.643.414-1.101.621-2.321.621-3.659a8.9 8.9 0 00-.318-2.388zm7.201-3.86c1.369 0 2.413.576 3.131 1.729.719 1.147 1.078 2.695 1.078 4.643 0 1.953-.359 3.506-1.078 4.658-.718 1.148-1.762 1.721-3.131 1.721-1.364 0-2.408-.573-3.132-1.721-.718-1.152-1.077-2.705-1.077-4.658 0-1.948.359-3.496 1.077-4.643.724-1.153 1.768-1.729 3.132-1.729zm-2.349 8.945l4.163-6.519c-.264-.48-.551-.803-.861-.969a1.925 1.925 0 00-.953-.255c-.863 0-1.519.48-1.969 1.441-.45.956-.674 2.171-.674 3.644 0 .335.01.697.031 1.085.02.387.108.912.263 1.573zm4.682-5.085l-4.131 6.558c.222.377.478.662.767.853.289.186.612.279.969.279.982 0 1.679-.548 2.093-1.643.413-1.101.62-2.321.62-3.659a8.9 8.9 0 00-.318-2.388zm7.201-3.86c1.37 0 2.413.576 3.132 1.729.718 1.147 1.077 2.695 1.077 4.643 0 1.953-.359 3.506-1.077 4.658-.719 1.148-1.762 1.721-3.132 1.721-1.364 0-2.408-.573-3.131-1.721-.719-1.152-1.078-2.705-1.078-4.658 0-1.948.359-3.496 1.078-4.643.723-1.153 1.767-1.729 3.131-1.729zm-2.349 8.945l4.163-6.519c-.264-.48-.55-.803-.86-.969a1.929 1.929 0 00-.954-.255c-.863 0-1.519.48-1.969 1.441-.449.956-.674 2.171-.674 3.644 0 .335.01.697.031 1.085.021.387.108.912.263 1.573zm4.682-5.085l-4.131 6.558c.222.377.478.662.767.853.29.186.613.279.969.279.982 0 1.68-.548 2.093-1.643.413-1.101.62-2.321.62-3.659a8.9 8.9 0 00-.318-2.388zm7.201-3.86c1.37 0 2.414.576 3.132 1.729.718 1.147 1.078 2.695 1.078 4.643 0 1.953-.36 3.506-1.078 4.658-.718 1.148-1.762 1.721-3.132 1.721-1.364 0-2.408-.573-3.131-1.721-.718-1.152-1.078-2.705-1.078-4.658 0-1.948.36-3.496 1.078-4.643.723-1.153 1.767-1.729 3.131-1.729zm-2.348 8.945l4.162-6.519c-.263-.48-.55-.803-.86-.969a1.929 1.929 0 00-.954-.255c-.863 0-1.519.48-1.968 1.441-.45.956-.675 2.171-.675 3.644 0 .335.011.697.031 1.085.021.387.109.912.264 1.573zm4.682-5.085l-4.132 6.558c.222.377.478.662.768.853.289.186.612.279.968.279.982 0 1.68-.548 2.093-1.643.414-1.101.62-2.321.62-3.659a8.9 8.9 0 00-.317-2.388zm7.201-3.86c1.369 0 2.413.576 3.131 1.729.719 1.147 1.078 2.695 1.078 4.643 0 1.953-.359 3.506-1.078 4.658-.718 1.148-1.762 1.721-3.131 1.721-1.364 0-2.408-.573-3.132-1.721-.718-1.152-1.077-2.705-1.077-4.658 0-1.948.359-3.496 1.077-4.643.724-1.153 1.768-1.729 3.132-1.729zm-2.349 8.945l4.163-6.519c-.264-.48-.551-.803-.861-.969a1.925 1.925 0 00-.953-.255c-.863 0-1.52.48-1.969 1.441-.45.956-.674 2.171-.674 3.644 0 .335.01.697.031 1.085.02.387.108.912.263 1.573zm4.682-5.085l-4.132 6.558c.223.377.478.662.768.853.289.186.612.279.969.279.982 0 1.679-.548 2.093-1.643.413-1.101.62-2.321.62-3.659a8.9 8.9 0 00-.318-2.388zm7.201-3.86c1.369 0 2.413.576 3.132 1.729.718 1.147 1.077 2.695 1.077 4.643 0 1.953-.359 3.506-1.077 4.658-.719 1.148-1.763 1.721-3.132 1.721-1.364 0-2.408-.573-3.132-1.721-.718-1.152-1.077-2.705-1.077-4.658 0-1.948.359-3.496 1.077-4.643.724-1.153 1.768-1.729 3.132-1.729zm-2.349 8.945l4.163-6.519c-.264-.48-.55-.803-.86-.969a1.929 1.929 0 00-.954-.255c-.863 0-1.519.48-1.969 1.441-.449.956-.674 2.171-.674 3.644 0 .335.01.697.031 1.085.021.387.108.912.263 1.573zm4.682-5.085l-4.131 6.558c.222.377.478.662.767.853.29.186.612.279.969.279.982 0 1.68-.548 2.093-1.643.413-1.101.62-2.321.62-3.659a8.9 8.9 0 00-.318-2.388zm7.201-3.86c1.37 0 2.414.576 3.132 1.729.718 1.147 1.077 2.695 1.077 4.643 0 1.953-.359 3.506-1.077 4.658-.718 1.148-1.762 1.721-3.132 1.721-1.364 0-2.408-.573-3.131-1.721-.719-1.152-1.078-2.705-1.078-4.658 0-1.948.359-3.496 1.078-4.643.723-1.153 1.767-1.729 3.131-1.729zm-2.348 8.945l4.162-6.519c-.263-.48-.55-.803-.86-.969a1.929 1.929 0 00-.954-.255c-.863 0-1.519.48-1.968 1.441-.45.956-.675 2.171-.675 3.644 0 .335.01.697.031 1.085.021.387.109.912.264 1.573zm4.682-5.085l-4.132 6.558c.222.377.478.662.767.853.29.186.613.279.969.279.982 0 1.68-.548 2.093-1.643.414-1.101.62-2.321.62-3.659a8.94 8.94 0 00-.317-2.388zm7.201-3.86c1.369 0 2.413.576 3.131 1.729.719 1.147 1.078 2.695 1.078 4.643 0 1.953-.359 3.506-1.078 4.658-.718 1.148-1.762 1.721-3.131 1.721-1.365 0-2.408-.573-3.132-1.721-.718-1.152-1.077-2.705-1.077-4.658 0-1.948.359-3.496 1.077-4.643.724-1.153 1.767-1.729 3.132-1.729zm-2.349 8.945l4.163-6.519c-.264-.48-.551-.803-.861-.969a1.928 1.928 0 00-.953-.255c-.863 0-1.52.48-1.969 1.441-.45.956-.675 2.171-.675 3.644 0 .335.011.697.031 1.085.021.387.109.912.264 1.573zm4.682-5.085l-4.132 6.558c.223.377.478.662.768.853.289.186.612.279.969.279.982 0 1.679-.548 2.093-1.643.413-1.101.62-2.321.62-3.659a8.9 8.9 0 00-.318-2.388zm7.201-3.86c1.369 0 2.413.576 3.132 1.729.718 1.147 1.077 2.695 1.077 4.643 0 1.953-.359 3.506-1.077 4.658-.719 1.148-1.763 1.721-3.132 1.721-1.364 0-2.408-.573-3.132-1.721-.718-1.152-1.077-2.705-1.077-4.658 0-1.948.359-3.496 1.077-4.643.724-1.153 1.768-1.729 3.132-1.729zm-2.349 8.945l4.163-6.519c-.264-.48-.551-.803-.861-.969a1.922 1.922 0 00-.953-.255c-.863 0-1.519.48-1.969 1.441-.449.956-.674 2.171-.674 3.644 0 .335.01.697.031 1.085.02.387.108.912.263 1.573zm4.682-5.085l-4.131 6.558c.222.377.478.662.767.853.289.186.612.279.969.279.982 0 1.679-.548 2.093-1.643.413-1.101.62-2.321.62-3.659a8.9 8.9 0 00-.318-2.388zm7.201-3.86c1.37 0 2.414.576 3.132 1.729.718 1.147 1.077 2.695 1.077 4.643 0 1.953-.359 3.506-1.077 4.658-.718 1.148-1.762 1.721-3.132 1.721-1.364 0-2.408-.573-3.131-1.721-.719-1.152-1.078-2.705-1.078-4.658 0-1.948.359-3.496 1.078-4.643.723-1.153 1.767-1.729 3.131-1.729zm-2.348 8.945l4.162-6.519c-.263-.48-.55-.803-.86-.969a1.929 1.929 0 00-.954-.255c-.863 0-1.519.48-1.969 1.441-.449.956-.674 2.171-.674 3.644 0 .335.01.697.031 1.085.021.387.109.912.264 1.573zm4.681-5.085l-4.131 6.558c.222.377.478.662.767.853.29.186.613.279.969.279.982 0 1.68-.548 2.093-1.643.414-1.101.62-2.321.62-3.659a8.9 8.9 0 00-.318-2.388zm7.202-3.86c1.369 0 2.413.576 3.131 1.729.718 1.147 1.078 2.695 1.078 4.643 0 1.953-.36 3.506-1.078 4.658-.718 1.148-1.762 1.721-3.131 1.721-1.365 0-2.409-.573-3.132-1.721-.718-1.152-1.077-2.705-1.077-4.658 0-1.948.359-3.496 1.077-4.643.723-1.153 1.767-1.729 3.132-1.729zm-2.349 8.945l4.162-6.519c-.263-.48-.55-.803-.86-.969a1.928 1.928 0 00-.953-.255c-.863 0-1.52.48-1.969 1.441-.45.956-.675 2.171-.675 3.644 0 .335.011.697.031 1.085.021.387.109.912.264 1.573zm4.682-5.085l-4.132 6.558c.222.377.478.662.768.853.289.186.612.279.969.279.981 0 1.679-.548 2.092-1.643.414-1.101.621-2.321.621-3.659a8.9 8.9 0 00-.318-2.388zm7.201-3.86c1.369 0 2.413.576 3.131 1.729.719 1.147 1.078 2.695 1.078 4.643 0 1.953-.359 3.506-1.078 4.658-.718 1.148-1.762 1.721-3.131 1.721-1.364 0-2.408-.573-3.132-1.721-.718-1.152-1.077-2.705-1.077-4.658 0-1.948.359-3.496 1.077-4.643.724-1.153 1.768-1.729 3.132-1.729zm-2.349 8.945l4.163-6.519c-.264-.48-.551-.803-.861-.969a1.925 1.925 0 00-.953-.255c-.863 0-1.519.48-1.969 1.441-.45.956-.674 2.171-.674 3.644 0 .335.01.697.031 1.085.02.387.108.912.263 1.573zm4.682-5.085l-4.131 6.558c.222.377.478.662.767.853.289.186.612.279.969.279.982 0 1.679-.548 2.093-1.643.413-1.101.62-2.321.62-3.659a8.9 8.9 0 00-.318-2.388zm7.201-3.86c1.37 0 2.413.576 3.132 1.729.718 1.147 1.077 2.695 1.077 4.643 0 1.953-.359 3.506-1.077 4.658-.719 1.148-1.762 1.721-3.132 1.721-1.364 0-2.408-.573-3.131-1.721-.719-1.152-1.078-2.705-1.078-4.658 0-1.948.359-3.496 1.078-4.643.723-1.153 1.767-1.729 3.131-1.729zm-2.349 8.945l4.163-6.519c-.264-.48-.55-.803-.86-.969a1.929 1.929 0 00-.954-.255c-.863 0-1.519.48-1.969 1.441-.449.956-.674 2.171-.674 3.644 0 .335.01.697.031 1.085.021.387.108.912.263 1.573zm4.682-5.085l-4.131 6.558c.222.377.478.662.767.853.29.186.613.279.969.279.982 0 1.68-.548 2.093-1.643.413-1.101.62-2.321.62-3.659a8.9 8.9 0 00-.318-2.388zm7.201-3.86c1.37 0 2.414.576 3.132 1.729.718 1.147 1.078 2.695 1.078 4.643 0 1.953-.36 3.506-1.078 4.658-.718 1.148-1.762 1.721-3.132 1.721-1.364 0-2.408-.573-3.131-1.721-.718-1.152-1.078-2.705-1.078-4.658 0-1.948.36-3.496 1.078-4.643.723-1.153 1.767-1.729 3.131-1.729zm-2.348 8.945l4.162-6.519c-.263-.48-.55-.803-.86-.969a1.929 1.929 0 00-.954-.255c-.863 0-1.519.48-1.968 1.441-.45.956-.675 2.171-.675 3.644 0 .335.011.697.031 1.085.021.387.109.912.264 1.573zm4.682-5.085l-4.132 6.558c.222.377.478.662.768.853.289.186.612.279.968.279.982 0 1.68-.548 2.093-1.643.414-1.101.62-2.321.62-3.659a8.9 8.9 0 00-.317-2.388zm7.201-3.86c1.369 0 2.413.576 3.131 1.729.719 1.147 1.078 2.695 1.078 4.643 0 1.953-.359 3.506-1.078 4.658-.718 1.148-1.762 1.721-3.131 1.721-1.364 0-2.408-.573-3.132-1.721-.718-1.152-1.077-2.705-1.077-4.658 0-1.948.359-3.496 1.077-4.643.724-1.153 1.768-1.729 3.132-1.729zm-2.349 8.945l4.163-6.519c-.264-.48-.551-.803-.861-.969a1.925 1.925 0 00-.953-.255c-.863 0-1.519.48-1.969 1.441-.45.956-.674 2.171-.674 3.644 0 .335.01.697.031 1.085.02.387.108.912.263 1.573zm4.682-5.085l-4.132 6.558c.223.377.478.662.768.853.289.186.612.279.969.279.982 0 1.679-.548 2.093-1.643.413-1.101.62-2.321.62-3.659a8.9 8.9 0 00-.318-2.388zm7.201-3.86c1.37 0 2.413.576 3.132 1.729.718 1.147 1.077 2.695 1.077 4.643 0 1.953-.359 3.506-1.077 4.658-.719 1.148-1.762 1.721-3.132 1.721-1.364 0-2.408-.573-3.132-1.721-.718-1.152-1.077-2.705-1.077-4.658 0-1.948.359-3.496 1.077-4.643.724-1.153 1.768-1.729 3.132-1.729zm-2.349 8.945l4.163-6.519c-.264-.48-.55-.803-.86-.969a1.929 1.929 0 00-.954-.255c-.863 0-1.519.48-1.969 1.441-.449.956-.674 2.171-.674 3.644 0 .335.01.697.031 1.085.021.387.108.912.263 1.573zm4.682-5.085l-4.131 6.558c.222.377.478.662.767.853.29.186.613.279.969.279.982 0 1.68-.548 2.093-1.643.413-1.101.62-2.321.62-3.659a8.9 8.9 0 00-.318-2.388zm7.201-3.86c1.37 0 2.414.576 3.132 1.729.718 1.147 1.077 2.695 1.077 4.643 0 1.953-.359 3.506-1.077 4.658-.718 1.148-1.762 1.721-3.132 1.721-1.364 0-2.408-.573-3.131-1.721-.719-1.152-1.078-2.705-1.078-4.658 0-1.948.359-3.496 1.078-4.643.723-1.153 1.767-1.729 3.131-1.729zm-2.348 8.945l4.162-6.519c-.263-.48-.55-.803-.86-.969a1.929 1.929 0 00-.954-.255c-.863 0-1.519.48-1.968 1.441-.45.956-.675 2.171-.675 3.644 0 .335.01.697.031 1.085.021.387.109.912.264 1.573zm4.682-5.085l-4.132 6.558c.222.377.478.662.767.853.29.186.613.279.969.279.982 0 1.68-.548 2.093-1.643.414-1.101.62-2.321.62-3.659a8.94 8.94 0 00-.317-2.388zm7.201-3.86c1.369 0 2.413.576 3.131 1.729.719 1.147 1.078 2.695 1.078 4.643 0 1.953-.359 3.506-1.078 4.658-.718 1.148-1.762 1.721-3.131 1.721-1.365 0-2.408-.573-3.132-1.721-.718-1.152-1.077-2.705-1.077-4.658 0-1.948.359-3.496 1.077-4.643.724-1.153 1.767-1.729 3.132-1.729zm-2.349 8.945l4.163-6.519c-.264-.48-.551-.803-.861-.969a1.928 1.928 0 00-.953-.255c-.863 0-1.52.48-1.969 1.441-.45.956-.675 2.171-.675 3.644 0 .335.011.697.031 1.085.021.387.109.912.264 1.573zm4.682-5.085l-4.132 6.558c.223.377.478.662.768.853.289.186.612.279.969.279.982 0 1.679-.548 2.093-1.643.413-1.101.62-2.321.62-3.659a8.9 8.9 0 00-.318-2.388zm7.201-3.86c1.369 0 2.413.576 3.132 1.729.718 1.147 1.077 2.695 1.077 4.643 0 1.953-.359 3.506-1.077 4.658-.719 1.148-1.763 1.721-3.132 1.721-1.364 0-2.408-.573-3.132-1.721-.718-1.152-1.077-2.705-1.077-4.658 0-1.948.359-3.496 1.077-4.643.724-1.153 1.768-1.729 3.132-1.729zm-2.349 8.945l4.163-6.519c-.264-.48-.551-.803-.861-.969a1.922 1.922 0 00-.953-.255c-.863 0-1.519.48-1.969 1.441-.449.956-.674 2.171-.674 3.644 0 .335.01.697.031 1.085.02.387.108.912.263 1.573zm4.682-5.085l-4.131 6.558c.222.377.478.662.767.853.289.186.612.279.969.279.982 0 1.679-.548 2.093-1.643.413-1.101.62-2.321.62-3.659a8.9 8.9 0 00-.318-2.388zm7.201-3.86c1.37 0 2.414.576 3.132 1.729.718 1.147 1.077 2.695 1.077 4.643 0 1.953-.359 3.506-1.077 4.658-.718 1.148-1.762 1.721-3.132 1.721-1.364 0-2.408-.573-3.131-1.721-.719-1.152-1.078-2.705-1.078-4.658 0-1.948.359-3.496 1.078-4.643.723-1.153 1.767-1.729 3.131-1.729zm-2.348 8.945l4.162-6.519c-.263-.48-.55-.803-.86-.969a1.929 1.929 0 00-.954-.255c-.863 0-1.519.48-1.969 1.441-.449.956-.674 2.171-.674 3.644 0 .335.01.697.031 1.085.021.387.109.912.264 1.573zm4.681-5.085l-4.131 6.558c.222.377.478.662.767.853.29.186.613.279.969.279.982 0 1.68-.548 2.093-1.643.414-1.101.62-2.321.62-3.659a8.9 8.9 0 00-.318-2.388zm7.202-3.86c1.369 0 2.413.576 3.131 1.729.718 1.147 1.078 2.695 1.078 4.643 0 1.953-.36 3.506-1.078 4.658-.718 1.148-1.762 1.721-3.131 1.721-1.365 0-2.409-.573-3.132-1.721-.718-1.152-1.077-2.705-1.077-4.658 0-1.948.359-3.496 1.077-4.643.723-1.153 1.767-1.729 3.132-1.729zm-2.349 8.945l4.162-6.519c-.263-.48-.55-.803-.86-.969a1.928 1.928 0 00-.953-.255c-.863 0-1.52.48-1.969 1.441-.45.956-.675 2.171-.675 3.644 0 .335.011.697.031 1.085.021.387.109.912.264 1.573zm4.682-5.085l-4.132 6.558c.222.377.478.662.768.853.289.186.612.279.969.279.981 0 1.679-.548 2.092-1.643.414-1.101.621-2.321.621-3.659a8.9 8.9 0 00-.318-2.388zm7.201-3.86c1.369 0 2.413.576 3.131 1.729.719 1.147 1.078 2.695 1.078 4.643 0 1.953-.359 3.506-1.078 4.658-.718 1.148-1.762 1.721-3.131 1.721-1.364 0-2.408-.573-3.132-1.721-.718-1.152-1.077-2.705-1.077-4.658 0-1.948.359-3.496 1.077-4.643.724-1.153 1.768-1.729 3.132-1.729zm-2.349 8.945l4.163-6.519c-.264-.48-.551-.803-.861-.969a1.925 1.925 0 00-.953-.255c-.863 0-1.519.48-1.969 1.441-.45.956-.674 2.171-.674 3.644 0 .335.01.697.031 1.085.02.387.108.912.263 1.573zm4.682-5.085l-4.131 6.558c.222.377.478.662.767.853.289.186.612.279.969.279.982 0 1.679-.548 2.093-1.643.413-1.101.62-2.321.62-3.659a8.9 8.9 0 00-.318-2.388zm7.201-3.86c1.37 0 2.413.576 3.132 1.729.718 1.147 1.077 2.695 1.077 4.643 0 1.953-.359 3.506-1.077 4.658-.719 1.148-1.762 1.721-3.132 1.721-1.364 0-2.408-.573-3.131-1.721-.719-1.152-1.078-2.705-1.078-4.658 0-1.948.359-3.496 1.078-4.643.723-1.153 1.767-1.729 3.131-1.729zm-2.348 8.945l4.162-6.519c-.264-.48-.55-.803-.86-.969a1.929 1.929 0 00-.954-.255c-.863 0-1.519.48-1.969 1.441-.449.956-.674 2.171-.674 3.644 0 .335.01.697.031 1.085.021.387.108.912.264 1.573zm4.681-5.085l-4.131 6.558c.222.377.478.662.767.853.29.186.613.279.969.279.982 0 1.68-.548 2.093-1.643.413-1.101.62-2.321.62-3.659a8.9 8.9 0 00-.318-2.388zm7.202-3.86c1.369 0 2.413.576 3.131 1.729.718 1.147 1.078 2.695 1.078 4.643 0 1.953-.36 3.506-1.078 4.658-.718 1.148-1.762 1.721-3.131 1.721-1.365 0-2.409-.573-3.132-1.721-.718-1.152-1.078-2.705-1.078-4.658 0-1.948.36-3.496 1.078-4.643.723-1.153 1.767-1.729 3.132-1.729zm-2.349 8.945l4.162-6.519c-.263-.48-.55-.803-.86-.969a1.928 1.928 0 00-.953-.255c-.863 0-1.52.48-1.969 1.441-.45.956-.675 2.171-.675 3.644 0 .335.011.697.031 1.085.021.387.109.912.264 1.573zm4.682-5.085l-4.132 6.558c.222.377.478.662.768.853.289.186.612.279.968.279.982 0 1.68-.548 2.093-1.643.414-1.101.621-2.321.621-3.659a8.9 8.9 0 00-.318-2.388z" fill="#FF48B5"/><path d="M70.965 157.75c-.974.328-1.901.492-2.781.492-.875 0-1.654-.2-2.336-.601A4.324 4.324 0 0164.262 156c-.38-.693-.57-1.479-.57-2.359 0-1.323.43-2.422 1.289-3.297.864-.875 1.906-1.313 3.125-1.313.9 0 1.854.17 2.859.508v1.399c-1.016-.464-1.925-.696-2.727-.696-.531 0-1.031.133-1.5.399-.469.26-.83.669-1.086 1.226a4.085 4.085 0 00-.383 1.719c0 .786.245 1.536.735 2.25.495.713 1.268 1.07 2.32 1.07.318 0 .63-.021.938-.062.307-.047.875-.211 1.703-.492v1.398zm5.86.492c-1.25 0-2.25-.435-3-1.304-.75-.876-1.126-1.977-1.126-3.305s.375-2.427 1.125-3.297c.75-.87 1.75-1.305 3-1.305 1.245 0 2.242.435 2.992 1.305.75.87 1.125 1.969 1.125 3.297s-.375 2.429-1.125 3.305c-.75.869-1.747 1.304-2.992 1.304zm0-1.211c.775 0 1.392-.302 1.85-.906.46-.604.688-1.435.688-2.492 0-1.052-.229-1.88-.687-2.485-.459-.604-1.076-.906-1.852-.906-.781 0-1.4.302-1.86.906-.457.605-.687 1.433-.687 2.485 0 1.057.23 1.888.688 2.492.458.604 1.078.906 1.86.906zm6.015.969v-8.727h1.453v1.907c.417-.672.92-1.198 1.508-1.578.588-.381 1.177-.571 1.765-.571.516 0 .985.138 1.407.414.421.271.716.628.883 1.071.171.442.257 1.312.257 2.609V158H88.66v-5.055c0-.838-.041-1.39-.125-1.656a1.272 1.272 0 00-.445-.664 1.096 1.096 0 00-.703-.258c-.51 0-1.06.242-1.649.727a5.836 5.836 0 00-1.445 1.82V158H82.84zm9.71-.461V156c.584.38 1.201.648 1.852.805.651.151 1.204.226 1.657.226.734 0 1.263-.117 1.585-.351.323-.24.485-.537.485-.891a.862.862 0 00-.227-.601c-.15-.167-.526-.373-1.125-.618l-.5-.203-1.008-.398c-1.083-.422-1.765-.813-2.046-1.172-.287-.354-.43-.787-.43-1.297 0-.719.276-1.31.828-1.773.557-.464 1.458-.696 2.703-.696.933 0 1.815.136 2.649.407v1.32c-.959-.344-1.86-.516-2.704-.516-.614 0-1.096.11-1.445.328-.343.214-.515.482-.515.805 0 .313.15.563.453.75.297.187.781.404 1.453.648l.984.36c.901.328 1.534.685 1.899 1.07.364.386.546.867.546 1.445 0 .756-.291 1.378-.875 1.868-.578.484-1.505.726-2.78.726-1.115 0-2.261-.234-3.438-.703zm16.805.109c-.682.287-1.177.456-1.484.508a4.794 4.794 0 01-.891.086 3.926 3.926 0 01-1.671-.351 2.487 2.487 0 01-1.149-1.039c-.255-.459-.383-1.167-.383-2.125v-3.516h-2.179V150h2.179v-3.516h1.453V150h3.883v1.211h-3.883v3.492c0 .703.084 1.201.25 1.492.167.287.388.498.665.633.281.136.612.203.992.203.703 0 1.442-.221 2.218-.664v1.281zm3.055.352v-8.727h1.453v1.907c.453-.719.972-1.256 1.555-1.61a3.693 3.693 0 011.961-.539c.526 0 1.052.081 1.578.242v3.149h-1.398v-1.992a3.641 3.641 0 00-.579-.063c-.541 0-1.072.214-1.593.641-.521.427-1.029 1.068-1.524 1.922V158h-1.453zm16.047-8.727V158h-1.453v-1.914c-.469.719-.99 1.258-1.563 1.617s-1.145.539-1.718.539c-.511 0-.98-.135-1.407-.406a2.19 2.19 0 01-.882-1.078c-.167-.448-.25-1.318-.25-2.61v-4.875h1.453v5.055c0 .839.039 1.393.117 1.664.083.266.232.485.445.656.219.172.453.258.703.258.511 0 1.058-.239 1.641-.718a5.862 5.862 0 001.461-1.829v-5.086h1.453zm9.773 8.477c-.973.328-1.901.492-2.781.492-.875 0-1.653-.2-2.336-.601a4.33 4.33 0 01-1.586-1.641c-.38-.693-.57-1.479-.57-2.359 0-1.323.43-2.422 1.289-3.297.865-.875 1.906-1.313 3.125-1.313.901 0 1.854.17 2.859.508v1.399c-1.015-.464-1.924-.696-2.726-.696-.531 0-1.031.133-1.5.399-.469.26-.831.669-1.086 1.226a4.088 4.088 0 00-.383 1.719c0 .786.245 1.536.735 2.25.494.713 1.268 1.07 2.32 1.07.318 0 .63-.021.937-.062.308-.047.875-.211 1.703-.492v1.398zm9.563-.102c-.682.287-1.177.456-1.484.508a4.81 4.81 0 01-.891.086 3.93 3.93 0 01-1.672-.351 2.485 2.485 0 01-1.148-1.039c-.256-.459-.383-1.167-.383-2.125v-3.516h-2.18V150h2.18v-3.516h1.453V150h3.883v1.211h-3.883v3.492c0 .703.083 1.201.25 1.492.167.287.388.498.664.633.281.136.612.203.992.203.703 0 1.443-.221 2.219-.664v1.281zm5.906.594c-1.25 0-2.25-.435-3-1.304-.75-.876-1.125-1.977-1.125-3.305s.375-2.427 1.125-3.297c.75-.87 1.75-1.305 3-1.305 1.245 0 2.242.435 2.992 1.305.75.87 1.125 1.969 1.125 3.297s-.375 2.429-1.125 3.305c-.75.869-1.747 1.304-2.992 1.304zm0-1.211c.776 0 1.393-.302 1.852-.906.458-.604.687-1.435.687-2.492 0-1.052-.229-1.88-.687-2.485-.459-.604-1.076-.906-1.852-.906-.781 0-1.401.302-1.859.906-.458.605-.688 1.433-.688 2.485 0 1.057.23 1.888.688 2.492.458.604 1.078.906 1.859.906zm6.758.969v-8.727h1.453v1.907c.453-.719.972-1.256 1.555-1.61a3.69 3.69 0 011.961-.539c.526 0 1.052.081 1.578.242v3.149h-1.399v-1.992a3.62 3.62 0 00-.578-.063c-.541 0-1.073.214-1.593.641-.521.427-1.029 1.068-1.524 1.922V158h-1.453z" fill="#638EF6"/><path d="M176.488 160.906c-1.442-.088-2.659-.497-3.648-1.226-.99-.724-1.781-1.703-2.375-2.938-.589-1.234-.883-2.471-.883-3.711 0-1.239.294-2.476.883-3.711.594-1.234 1.385-2.213 2.375-2.937.989-.729 2.206-1.141 3.648-1.235v1.219c-1.088.099-2.026.466-2.812 1.102-.781.63-1.396 1.435-1.844 2.414a7.474 7.474 0 00-.672 3.148c0 1.12.224 2.17.672 3.149.448.979 1.063 1.784 1.844 2.414.786.63 1.724.997 2.812 1.101v1.211zm2.461-15.758c1.443.094 2.659.506 3.649 1.235.989.724 1.778 1.703 2.367 2.937.594 1.235.89 2.472.89 3.711 0 1.24-.296 2.477-.89 3.711-.589 1.235-1.378 2.214-2.367 2.938-.99.729-2.206 1.138-3.649 1.226v-1.211c1.089-.104 2.024-.471 2.805-1.101.786-.63 1.404-1.435 1.851-2.414.454-.979.68-2.029.68-3.149a7.39 7.39 0 00-.68-3.148c-.447-.979-1.065-1.784-1.851-2.414-.781-.636-1.716-1.003-2.805-1.102v-1.219zm22.266 7.883c.484.255.838.505 1.062.75.23.245.399.498.508.758.115.255.172.55.172.883 0 .297-.052.685-.156 1.164l-.196.891c-.104.484-.156.843-.156 1.078 0 .317.123.586.367.804.25.224.761.336 1.532.336h1.211v1.211h-1.227c-1.427 0-2.346-.229-2.758-.687-.411-.459-.617-.977-.617-1.555 0-.307.039-.638.117-.992l.141-.625.133-.68.093-.414c.037-.193.055-.38.055-.562 0-.485-.164-.899-.492-1.243-.323-.343-.896-.515-1.719-.515h-.695v-1.211h.695c.813 0 1.383-.169 1.711-.508.333-.338.5-.76.5-1.266 0-.187-.018-.369-.055-.546l-.093-.407-.133-.679-.141-.625a4.742 4.742 0 01-.117-1c0-.573.206-1.089.617-1.547.412-.464 1.331-.696 2.758-.696h1.227v1.219h-1.211c-.766 0-1.274.112-1.524.336-.25.219-.375.49-.375.813 0 .229.052.586.156 1.07l.196.891c.104.479.156.867.156 1.164 0 .333-.057.63-.172.89a2.6 2.6 0 01-.508.75c-.224.245-.578.495-1.062.75zm-99.647 46.362c.437-.712.959-1.249 1.564-1.61.605-.361 1.162-.542 1.671-.542.712 0 1.353.308 1.923.924.569.615.854 1.548.854 2.8 0 .986-.191 1.869-.572 2.647-.377.773-.88 1.386-1.511 1.839-.631.447-1.411.671-2.342.671-.265 0-.671-.028-1.221-.084-.081-.01-.203-.023-.366-.038h-1.419v-12.314h1.419v5.707zm0 1.686v3.655c.514.132.987.198 1.419.198.86 0 1.582-.336 2.167-1.007.59-.677.885-1.6.885-2.77 0-.849-.16-1.487-.481-1.915-.32-.427-.684-.641-1.091-.641-.442 0-.931.224-1.465.672-.529.447-1.007 1.05-1.434 1.808zM111.929 206v-11.124h-2.548v-1.19h3.967v11.131h2.662V206h-4.081zm12.695-1.915c-.432.712-.954 1.249-1.564 1.61-.605.361-1.162.542-1.671.542-.712 0-1.353-.308-1.922-.924-.565-.615-.847-1.548-.847-2.8 0-.986.188-1.866.564-2.639.377-.779.88-1.391 1.511-1.839.631-.453 1.411-.679 2.342-.679.27 0 .677.028 1.221.084.081.01.203.023.366.038h1.427v6.02c0 1.027.107 1.861.32 2.502h-1.48c-.112-.468-.201-1.106-.267-1.915zm0-1.686v-3.655a5.552 5.552 0 00-1.404-.198c-.875 0-1.604.338-2.189 1.015-.58.676-.87 1.597-.87 2.762 0 .844.158 1.482.473 1.915.32.427.684.64 1.091.64.442 0 .931-.223 1.465-.671.534-.447 1.012-1.05 1.434-1.808zm3.883 3.151v-1.503c.57.371 1.173.633 1.809.786.635.147 1.175.221 1.617.221.717 0 1.233-.114 1.549-.343.315-.234.473-.524.473-.87a.848.848 0 00-.221-.588c-.148-.162-.514-.363-1.099-.602l-.488-.199-.985-.389c-1.057-.412-1.724-.793-1.998-1.144-.28-.346-.42-.768-.42-1.267 0-.702.27-1.279.809-1.732.544-.452 1.424-.679 2.639-.679.911 0 1.773.133 2.587.397v1.29c-.936-.336-1.816-.504-2.64-.504-.6 0-1.071.107-1.411.32-.336.209-.504.471-.504.786 0 .305.148.55.443.733.289.183.763.394 1.419.633l.961.351c.88.32 1.498.669 1.854 1.045.356.376.534.847.534 1.412 0 .737-.285 1.345-.855 1.823-.564.473-1.469.71-2.716.71-1.088 0-2.207-.229-3.357-.687zm16.411.107c-.666.279-1.149.445-1.449.496-.3.056-.59.084-.87.084a3.835 3.835 0 01-1.633-.344 2.422 2.422 0 01-1.121-1.015c-.25-.447-.374-1.139-.374-2.075v-3.433h-2.129v-1.182h2.129v-3.434h1.419v3.434h3.792v1.182h-3.792v3.41c0 .687.081 1.173.244 1.458.163.279.379.485.649.618.274.132.597.198.969.198.686 0 1.408-.216 2.166-.649v1.252zm5.76.702c-.34 0-.633-.122-.877-.367a1.196 1.196 0 01-.366-.877c0-.346.122-.638.366-.877a1.21 1.21 0 01.877-.367c.336 0 .626.122.87.367.249.239.374.531.374.877 0 .341-.122.633-.366.877a1.195 1.195 0 01-.878.367zm172.41 2.479c-1.409-.086-2.597-.486-3.563-1.198-.967-.707-1.74-1.663-2.32-2.868-.574-1.206-.862-2.414-.862-3.624 0-1.211.288-2.419.862-3.624.58-1.206 1.353-2.162 2.32-2.869.966-.712 2.154-1.114 3.563-1.205v1.19c-1.064.096-1.979.455-2.747 1.076-.763.615-1.363 1.401-1.801 2.357a7.309 7.309 0 00-.656 3.075c0 1.093.219 2.118.656 3.074.438.957 1.038 1.742 1.801 2.358.768.615 1.683.974 2.747 1.076v1.182zm5.126-2.838v-5.478l-3.524-6.363h1.747l2.632 4.7 2.624-4.7h1.58l-3.517 6.363V206h-1.542zm9.034 0v-7.339h-2.365v-1.183h3.784v7.339h2.372V206h-3.791zm-.237-11.597c0-.32.11-.559.328-.717.219-.158.425-.236.618-.236.199 0 .407.078.626.236.219.158.328.397.328.717 0 .316-.109.552-.328.71-.219.158-.427.236-.626.236-.193 0-.399-.078-.618-.236-.218-.158-.328-.394-.328-.71zm14.321 11.032c-1.135.54-2.208.809-3.22.809-.768 0-1.455-.191-2.06-.572-.605-.382-1.091-.926-1.457-1.633a4.974 4.974 0 01-.542-2.281c0-.778.173-1.526.519-2.243.346-.717.829-1.274 1.449-1.671a3.74 3.74 0 012.076-.603c1.012 0 1.823.362 2.433 1.084.616.722.924 1.836.924 3.342v.305h-5.875c0 .59.122 1.129.366 1.617.249.488.575.855.977 1.099s.859.366 1.373.366c.916 0 1.928-.305 3.037-.916v1.297zm-5.669-4.524h4.249v-.206c0-.697-.17-1.251-.511-1.663-.34-.412-.796-.618-1.365-.618-.575 0-1.074.211-1.496.633-.417.417-.709 1.035-.877 1.854zM355.917 206v-11.124h-2.548v-1.19h3.967v11.131h2.663V206h-4.082zm12.787-1.915c-.433.712-.954 1.249-1.564 1.61-.606.361-1.163.542-1.671.542-.712 0-1.353-.308-1.923-.924-.564-.615-.847-1.548-.847-2.8 0-.986.189-1.866.565-2.639.376-.779.88-1.391 1.511-1.839.63-.453 1.411-.679 2.342-.679.269 0 .676.028 1.22.084.082.01.204.023.367.038v-3.792h1.426V206h-1.426v-1.915zm0-1.686v-3.655a5.565 5.565 0 00-1.404-.198c-.875 0-1.605.338-2.19 1.015-.58.676-.87 1.597-.87 2.762 0 .844.158 1.482.474 1.915.32.427.684.64 1.091.64.442 0 .93-.223 1.464-.671.534-.447 1.013-1.05 1.435-1.808zm7.194 3.96c-.341 0-.633-.122-.877-.367a1.196 1.196 0 01-.366-.877c0-.346.122-.638.366-.877a1.21 1.21 0 01.877-.367c.336 0 .626.122.87.367.249.239.374.531.374.877 0 .341-.122.633-.366.877a1.197 1.197 0 01-.878.367zm6.432-.359h-1.48l3.647-11.841h1.564L389.73 206h-1.625l-.808-2.602h-4.166L382.33 206zm1.167-3.784h3.456l-1.427-4.494-.335-1.19-.298 1.19-1.396 4.494zm7.446-8.057h1.541v7.775c0 1.022.084 1.721.252 2.098.173.371.435.656.786.854.356.193.75.29 1.183.29.457 0 .864-.104 1.22-.313.361-.213.626-.544.794-.992.173-.452.259-1.299.259-2.54v-7.172h1.419v7.729c0 1.103-.165 1.968-.496 2.594-.325.62-.752 1.088-1.281 1.404-.529.315-1.196.473-1.999.473-.743 0-1.396-.138-1.961-.412a2.796 2.796 0 01-1.282-1.236c-.29-.55-.435-1.542-.435-2.976v-7.576zM403.28 206v-10.536h-3.548v-1.305h8.645v1.305h-3.556V206h-1.541zm10.155.359c-1.343 0-2.37-.565-3.082-1.694-.707-1.134-1.061-2.663-1.061-4.585 0-1.918.354-3.441 1.061-4.57.712-1.135 1.739-1.702 3.082-1.702 1.348 0 2.375.567 3.082 1.702.707 1.129 1.061 2.652 1.061 4.57 0 1.922-.354 3.451-1.061 4.585-.707 1.129-1.734 1.694-3.082 1.694zm0-1.191c.742 0 1.36-.419 1.854-1.258.498-.845.747-2.121.747-3.83s-.249-2.984-.747-3.823c-.494-.844-1.112-1.266-1.854-1.266-.743 0-1.363.422-1.862 1.266-.493.839-.74 2.114-.74 3.823s.247 2.985.74 3.83c.499.839 1.119 1.258 1.862 1.258zm6.37.832h-1.243v-11.841h1.549l2.731 7.797 2.731-7.797h1.511V206h-1.419v-7.545l.038-1.038h-.038l-.336 1.038-1.831 5.18h-1.541l-1.854-5.18-.298-1.038h-.038l.038 1.038V206zm9.446 0h-1.481l3.647-11.841h1.564l3.67 11.841h-1.625l-.809-2.602h-4.165l-.801 2.602zm1.167-3.784h3.456l-1.427-4.494-.335-1.19-.298 1.19-1.396 4.494zM440.817 206v-10.536h-3.548v-1.305h8.644v1.305h-3.555V206h-1.541zm6.782 0v-1.183h2.602v-9.468h-2.602v-1.19h6.745v1.19h-2.602v9.468h2.602V206h-6.745zm16.373-.137c-.885.33-1.679.496-2.38.496a4.682 4.682 0 01-2.556-.74c-.778-.499-1.384-1.236-1.816-2.213-.432-.982-.649-2.09-.649-3.326 0-1.226.214-2.327.641-3.304.428-.977 1.03-1.717 1.808-2.22a4.637 4.637 0 012.572-.755c.701 0 1.495.165 2.38.496v1.403c-.819-.473-1.633-.709-2.441-.709-.611 0-1.17.208-1.679.625-.503.417-.91 1.03-1.221 1.839a7.236 7.236 0 00-.465 2.625c0 .961.16 1.848.481 2.662.32.814.729 1.424 1.228 1.831.498.402 1.05.603 1.656.603.803 0 1.617-.236 2.441-.71v1.397zm4.318 3.448v-.946c.366-.097.644-.236.832-.42a1.85 1.85 0 00.458-.686c.117-.275.175-.608.175-1-.473 0-.821-.132-1.045-.396-.224-.27-.336-.557-.336-.862 0-.351.125-.646.374-.885.249-.245.539-.367.87-.367.427 0 .796.186 1.106.557.31.366.465.87.465 1.511 0 .559-.122 1.086-.366 1.579a3.82 3.82 0 01-.999 1.274c-.417.351-.929.565-1.534.641zm89.401-.473c-1.408-.086-2.596-.486-3.563-1.198-.966-.707-1.739-1.663-2.319-2.868-.575-1.206-.862-2.414-.862-3.624 0-1.211.287-2.419.862-3.624.58-1.206 1.353-2.162 2.319-2.869.967-.712 2.155-1.114 3.563-1.205v1.19c-1.063.096-1.978.455-2.746 1.076-.763.615-1.363 1.401-1.801 2.357a7.309 7.309 0 00-.656 3.075c0 1.093.219 2.118.656 3.074.438.957 1.038 1.742 1.801 2.358.768.615 1.683.974 2.746 1.076v1.182zm11.788-15.388c1.409.091 2.596.493 3.563 1.205.966.707 1.737 1.663 2.311 2.869.58 1.205.87 2.413.87 3.624 0 1.21-.29 2.418-.87 3.624-.574 1.205-1.345 2.161-2.311 2.868-.967.712-2.154 1.112-3.563 1.198v-1.182c1.063-.102 1.976-.461 2.739-1.076.768-.616 1.371-1.401 1.808-2.358a7.238 7.238 0 00.664-3.074 7.239 7.239 0 00-.664-3.075c-.437-.956-1.04-1.742-1.808-2.357-.763-.621-1.676-.98-2.739-1.076v-1.19zm9.384 0c1.409.091 2.597.493 3.563 1.205.966.707 1.737 1.663 2.312 2.869.579 1.205.869 2.413.869 3.624 0 1.21-.29 2.418-.869 3.624-.575 1.205-1.346 2.161-2.312 2.868-.966.712-2.154 1.112-3.563 1.198v-1.182c1.063-.102 1.976-.461 2.739-1.076.768-.616 1.371-1.401 1.808-2.358a7.223 7.223 0 00.664-3.074 7.224 7.224 0 00-.664-3.075c-.437-.956-1.04-1.742-1.808-2.357-.763-.621-1.676-.98-2.739-1.076v-1.19zm11.421 15.861v-.946c.366-.097.644-.236.832-.42a1.85 1.85 0 00.458-.686c.117-.275.175-.608.175-1-.473 0-.821-.132-1.045-.396-.224-.27-.336-.557-.336-.862 0-.351.125-.646.374-.885.249-.245.539-.367.87-.367.427 0 .796.186 1.106.557.31.366.465.87.465 1.511 0 .559-.122 1.086-.366 1.579a3.82 3.82 0 01-.999 1.274c-.417.351-.929.565-1.534.641zm1.328-9.582c-.341 0-.634-.122-.878-.367a1.196 1.196 0 01-.366-.877c0-.346.122-.638.366-.877.25-.244.542-.367.878-.367.335 0 .625.123.869.367.25.239.374.531.374.877 0 .341-.122.633-.366.877a1.195 1.195 0 01-.877.367zM66.74 225.148c-.473-.25-.822-.494-1.045-.733a2.63 2.63 0 01-.489-.732 2.225 2.225 0 01-.16-.87c0-.29.048-.669.145-1.137l.19-.869c.103-.473.153-.824.153-1.053 0-.311-.122-.572-.366-.786-.239-.219-.735-.328-1.488-.328h-1.182v-1.19h1.198c1.393 0 2.291.226 2.693.679.407.447.61.951.61 1.51 0 .305-.04.631-.122.977l-.137.61-.13.664-.091.397a3.074 3.074 0 00-.054.557c0 .468.158.869.473 1.205.32.336.883.504 1.686.504h.68v1.182h-.68c-.793 0-1.353.168-1.678.504-.32.33-.48.742-.48 1.236 0 .178.017.353.053.526l.091.404.13.664.137.611c.082.351.122.676.122.976 0 .565-.203 1.068-.61 1.511-.402.447-1.3.671-2.693.671h-1.198v-1.182h1.183c.752 0 1.248-.11 1.487-.328.244-.214.366-.479.366-.794 0-.224-.05-.572-.152-1.045l-.19-.87c-.097-.468-.146-.847-.146-1.137 0-.325.053-.613.16-.862.107-.254.27-.501.489-.74.223-.239.572-.483 1.045-.732zm-37.537 24c-.473-.25-.821-.494-1.045-.733a2.632 2.632 0 01-.488-.732 2.227 2.227 0 01-.16-.87c0-.29.048-.669.144-1.137l.191-.869c.102-.473.153-.824.153-1.053 0-.311-.122-.572-.366-.786-.24-.219-.735-.328-1.488-.328H24.96v-1.19h1.198c1.394 0 2.292.226 2.693.679.407.447.61.951.61 1.51 0 .305-.04.631-.121.977l-.138.61-.13.664-.091.397a3.074 3.074 0 00-.053.557c0 .468.157.869.473 1.205.32.336.882.504 1.686.504h.679v1.182h-.68c-.793 0-1.352.168-1.678.504-.32.33-.48.742-.48 1.236 0 .178.017.353.053.526l.091.404.13.664.138.611c.081.351.122.676.122.976 0 .565-.204 1.068-.61 1.511-.402.447-1.3.671-2.694.671H24.96v-1.182h1.183c.753 0 1.248-.11 1.488-.328.244-.214.366-.479.366-.794 0-.224-.051-.572-.153-1.045l-.19-.87c-.097-.468-.146-.847-.146-1.137 0-.325.054-.613.16-.862.108-.254.27-.501.489-.74.224-.239.572-.483 1.045-.732z" fill="#2D2D2D"/><path d="M163.732 205.756c-.951.32-1.856.481-2.716.481-.854 0-1.615-.196-2.281-.588a4.231 4.231 0 01-1.549-1.602c-.371-.677-.557-1.445-.557-2.304 0-1.292.42-2.365 1.259-3.22.845-.854 1.862-1.282 3.052-1.282.88 0 1.811.166 2.792.496v1.366c-.991-.453-1.879-.679-2.662-.679a2.93 2.93 0 00-1.465.389c-.458.254-.811.654-1.061 1.198a3.993 3.993 0 00-.373 1.678c0 .768.239 1.501.717 2.198.483.696 1.238 1.045 2.266 1.045.31 0 .615-.02.915-.061.3-.046.855-.206 1.663-.481v1.366zm5.722.481c-1.22 0-2.197-.425-2.929-1.275-.733-.854-1.099-1.93-1.099-3.227s.366-2.37 1.099-3.219c.732-.85 1.709-1.275 2.929-1.275 1.216 0 2.19.425 2.922 1.275.733.849 1.099 1.922 1.099 3.219s-.366 2.373-1.099 3.227c-.732.85-1.706 1.275-2.922 1.275zm0-1.183c.758 0 1.361-.295 1.809-.885.447-.59.671-1.401.671-2.434 0-1.027-.224-1.836-.671-2.426-.448-.59-1.051-.885-1.809-.885-.763 0-1.368.295-1.815.885-.448.59-.672 1.399-.672 2.426 0 1.033.224 1.844.672 2.434.447.59 1.052.885 1.815.885zm5.875.946v-8.522h1.419v1.862c.407-.657.898-1.17 1.473-1.542.574-.371 1.149-.557 1.724-.557.503 0 .961.135 1.373.405.412.264.699.613.862 1.045.168.432.252 1.282.252 2.548V206h-1.419v-4.936c0-.819-.041-1.358-.122-1.618a1.24 1.24 0 00-.435-.648 1.07 1.07 0 00-.687-.252c-.498 0-1.035.237-1.609.71a5.694 5.694 0 00-1.412 1.777V206h-1.419zm11.368 0v-6.63h-1.892v-1.182h1.892v-.397c0-1.124.127-1.956.381-2.495a3.208 3.208 0 011.175-1.328c.534-.345 1.239-.518 2.114-.518.661 0 1.332.068 2.014.206v1.35c-.738-.244-1.391-.366-1.961-.366a2.71 2.71 0 00-1.198.252c-.346.167-.618.442-.816.824-.193.376-.29 1.017-.29 1.922v.55h3.38v1.182h-3.38V206h-1.419zm9.788 0v-7.339h-2.365v-1.183h3.784v7.339h2.373V206h-3.792zm-.236-11.597c0-.32.109-.559.328-.717.219-.158.425-.236.618-.236.198 0 .407.078.625.236.219.158.329.397.329.717 0 .316-.11.552-.329.71-.218.158-.427.236-.625.236-.193 0-.399-.078-.618-.236-.219-.158-.328-.394-.328-.71zm12.924 9.682c-.432.712-.954 1.249-1.564 1.61-.605.361-1.162.542-1.671.542-.712 0-1.353-.308-1.922-.924-.565-.615-.847-1.548-.847-2.8 0-.986.188-1.866.564-2.639.377-.779.88-1.391 1.511-1.839.631-.453 1.411-.679 2.342-.679.27 0 .677.028 1.221.084.081.01.203.023.366.038h1.427v6.027c0 1.435-.021 2.309-.061 2.625-.036.32-.097.643-.183.969-.204.757-.669 1.355-1.397 1.793-.722.437-1.597.656-2.624.656-1.033 0-2.078-.265-3.136-.794v-1.434c.402.275.895.516 1.48.725.59.213 1.16.32 1.709.32.433 0 .842-.069 1.229-.206.386-.137.699-.336.938-.595.239-.259.402-.562.488-.908.087-.341.13-.796.13-1.366v-1.205zm0-1.686v-3.655a5.558 5.558 0 00-1.404-.198c-.875 0-1.604.338-2.189 1.015-.58.676-.87 1.597-.87 2.762 0 .844.158 1.482.473 1.915.32.427.684.64 1.091.64.442 0 .931-.223 1.465-.671.534-.447 1.012-1.05 1.434-1.808zm10.704-4.921V206h-1.419v-1.869c-.458.702-.966 1.228-1.526 1.579-.559.351-1.119.527-1.678.527-.499 0-.957-.133-1.374-.397a2.145 2.145 0 01-.862-1.053c-.163-.437-.244-1.287-.244-2.548v-4.761h1.419v4.936c0 .819.038 1.361.115 1.625.081.26.226.473.434.641.214.168.443.252.687.252.499 0 1.033-.234 1.602-.702a5.711 5.711 0 001.427-1.785v-4.967h1.419zm3.098 8.522v-8.522h1.419v1.862c.442-.702.948-1.226 1.518-1.572a3.603 3.603 0 011.915-.527c.514 0 1.027.079 1.541.237v3.075h-1.366v-1.946a3.536 3.536 0 00-.564-.061c-.529 0-1.048.209-1.557.626-.508.417-1.004 1.042-1.487 1.877V206h-1.419zm15.747-.565c-1.135.54-2.208.809-3.22.809-.768 0-1.455-.191-2.06-.572-.605-.382-1.091-.926-1.457-1.633a4.974 4.974 0 01-.542-2.281c0-.778.173-1.526.519-2.243.346-.717.829-1.274 1.45-1.671a3.734 3.734 0 012.075-.603c1.012 0 1.823.362 2.434 1.084.615.722.923 1.836.923 3.342v.305h-5.875c0 .59.122 1.129.366 1.617.25.488.575.855.977 1.099s.859.366 1.373.366c.916 0 1.928-.305 3.037-.916v1.297zm-5.669-4.524h4.25v-.206c0-.697-.171-1.251-.512-1.663-.34-.412-.796-.618-1.365-.618-.575 0-1.073.211-1.496.633-.417.417-.709 1.035-.877 1.854zm15.083 4.952c-.885.33-1.678.496-2.38.496a4.682 4.682 0 01-2.556-.74c-.778-.499-1.383-1.236-1.816-2.213-.432-.982-.648-2.09-.648-3.326 0-1.226.213-2.327.641-3.304.427-.977 1.03-1.717 1.808-2.22a4.631 4.631 0 012.571-.755c.702 0 1.495.165 2.38.496v1.403c-.819-.473-1.632-.709-2.441-.709-.61 0-1.17.208-1.679.625-.503.417-.91 1.03-1.22 1.839a7.236 7.236 0 00-.466 2.625c0 .961.161 1.848.481 2.662.32.814.73 1.424 1.228 1.831.499.402 1.051.603 1.656.603.804 0 1.617-.236 2.441-.71v1.397zm5.776.374c-1.221 0-2.197-.425-2.93-1.275-.732-.854-1.099-1.93-1.099-3.227s.367-2.37 1.099-3.219c.733-.85 1.709-1.275 2.93-1.275 1.215 0 2.189.425 2.922 1.275.732.849 1.098 1.922 1.098 3.219s-.366 2.373-1.098 3.227c-.733.85-1.707 1.275-2.922 1.275zm0-1.183c.758 0 1.36-.295 1.808-.885.448-.59.671-1.401.671-2.434 0-1.027-.223-1.836-.671-2.426-.448-.59-1.05-.885-1.808-.885-.763 0-1.368.295-1.816.885-.448.59-.671 1.399-.671 2.426 0 1.033.223 1.844.671 2.434.448.59 1.053.885 1.816.885zm5.874.946v-8.522h1.42v1.862c.406-.657.897-1.17 1.472-1.542.575-.371 1.149-.557 1.724-.557.504 0 .962.135 1.374.405.412.264.699.613.862 1.045.167.432.251 1.282.251 2.548V206h-1.419v-4.936c0-.819-.04-1.358-.122-1.618a1.24 1.24 0 00-.435-.648 1.068 1.068 0 00-.686-.252c-.499 0-1.035.237-1.61.71a5.691 5.691 0 00-1.411 1.777V206h-1.42zm16.51-.343c-.666.279-1.149.445-1.449.496-.3.056-.59.084-.87.084a3.835 3.835 0 01-1.633-.344 2.422 2.422 0 01-1.121-1.015c-.249-.447-.374-1.139-.374-2.075v-3.433h-2.129v-1.182h2.129v-3.434h1.419v3.434h3.792v1.182h-3.792v3.41c0 .687.082 1.173.244 1.458.163.279.379.485.649.618.274.132.597.198.969.198.686 0 1.409-.216 2.166-.649v1.252zm2.984.343v-8.522h1.419v1.862c.442-.702.948-1.226 1.518-1.572a3.603 3.603 0 011.915-.527c.514 0 1.027.079 1.541.237v3.075h-1.366v-1.946a3.536 3.536 0 00-.564-.061c-.529 0-1.048.209-1.557.626-.508.417-1.004 1.042-1.487 1.877V206h-1.419zm14.259-1.915c-.432.712-.954 1.249-1.564 1.61-.605.361-1.162.542-1.671.542-.712 0-1.353-.308-1.923-.924-.564-.615-.846-1.548-.846-2.8 0-.986.188-1.866.564-2.639.377-.779.88-1.391 1.511-1.839.63-.453 1.411-.679 2.342-.679.27 0 .676.028 1.221.084.081.01.203.023.366.038h1.427v6.02c0 1.027.106 1.861.32 2.502h-1.48c-.112-.468-.201-1.106-.267-1.915zm0-1.686v-3.655a5.565 5.565 0 00-1.404-.198c-.875 0-1.605.338-2.19 1.015-.579.676-.869 1.597-.869 2.762 0 .844.157 1.482.473 1.915.32.427.684.64 1.091.64.442 0 .93-.223 1.465-.671.534-.447 1.012-1.05 1.434-1.808zm10.956 3.357c-.951.32-1.857.481-2.716.481-.855 0-1.615-.196-2.282-.588a4.221 4.221 0 01-1.548-1.602c-.372-.677-.557-1.445-.557-2.304 0-1.292.419-2.365 1.259-3.22.844-.854 1.861-1.282 3.051-1.282.88 0 1.811.166 2.793.496v1.366c-.992-.453-1.88-.679-2.663-.679a2.93 2.93 0 00-1.465.389c-.458.254-.811.654-1.06 1.198a3.979 3.979 0 00-.374 1.678c0 .768.239 1.501.717 2.198.483.696 1.239 1.045 2.266 1.045.31 0 .615-.02.915-.061.301-.046.855-.206 1.664-.481v1.366zm9.338-.099c-.666.279-1.149.445-1.45.496-.3.056-.59.084-.869.084-.595 0-1.14-.115-1.633-.344a2.422 2.422 0 01-1.121-1.015c-.25-.447-.374-1.139-.374-2.075v-3.433h-2.129v-1.182h2.129v-3.434h1.419v3.434h3.792v1.182h-3.792v3.41c0 .687.081 1.173.244 1.458.163.279.379.485.648.618.275.132.598.198.969.198.687 0 1.409-.216 2.167-.649v1.252zm249.748-11.849c1.348 0 2.376.567 3.083 1.702.707 1.129 1.06 2.652 1.06 4.57 0 1.922-.353 3.451-1.06 4.585-.707 1.129-1.735 1.694-3.083 1.694-1.342 0-2.37-.565-3.082-1.694-.707-1.134-1.06-2.663-1.06-4.585 0-1.918.353-3.441 1.06-4.57.712-1.135 1.74-1.702 3.082-1.702zm-2.311 8.805l4.097-6.417c-.26-.473-.542-.791-.847-.953a1.896 1.896 0 00-.939-.252c-.849 0-1.495.473-1.938 1.419-.442.941-.663 2.136-.663 3.586 0 .33.01.686.03 1.068.021.381.107.898.26 1.549zm4.608-5.005l-4.067 6.454c.219.371.471.651.756.839.284.183.602.275.953.275.967 0 1.653-.539 2.06-1.617.407-1.084.611-2.284.611-3.601 0-.814-.105-1.598-.313-2.35z" fill="#FF48B5"/><path d="M490.606 204.085c-.432.712-.954 1.249-1.564 1.61-.605.361-1.162.542-1.671.542-.712 0-1.353-.308-1.922-.924-.565-.615-.847-1.548-.847-2.8 0-.986.188-1.866.564-2.639.377-.779.88-1.391 1.511-1.839.631-.453 1.411-.679 2.342-.679.27 0 .677.028 1.221.084.081.01.203.023.366.038h1.427v6.02c0 1.027.107 1.861.32 2.502h-1.48c-.112-.468-.201-1.106-.267-1.915zm0-1.686v-3.655a5.552 5.552 0 00-1.404-.198c-.875 0-1.604.338-2.189 1.015-.58.676-.87 1.597-.87 2.762 0 .844.158 1.482.473 1.915.32.427.684.64 1.091.64.442 0 .931-.223 1.465-.671.534-.447 1.012-1.05 1.434-1.808zm9.476 1.686c-.432.712-.954 1.249-1.564 1.61-.605.361-1.162.542-1.671.542-.712 0-1.353-.308-1.923-.924-.564-.615-.846-1.548-.846-2.8 0-.986.188-1.866.564-2.639.376-.779.88-1.391 1.511-1.839.63-.453 1.411-.679 2.342-.679.27 0 .676.028 1.221.084.081.01.203.023.366.038v-3.792h1.427V206h-1.427v-1.915zm0-1.686v-3.655a5.565 5.565 0 00-1.404-.198c-.875 0-1.605.338-2.19 1.015-.579.676-.869 1.597-.869 2.762 0 .844.157 1.482.473 1.915.32.427.684.64 1.091.64.442 0 .93-.223 1.465-.671.534-.447 1.012-1.05 1.434-1.808zm9.384 1.686c-.432.712-.954 1.249-1.564 1.61-.605.361-1.162.542-1.671.542-.712 0-1.353-.308-1.922-.924-.565-.615-.847-1.548-.847-2.8 0-.986.188-1.866.564-2.639.377-.779.88-1.391 1.511-1.839.631-.453 1.411-.679 2.342-.679.27 0 .677.028 1.221.084.081.01.203.023.366.038v-3.792h1.427V206h-1.427v-1.915zm0-1.686v-3.655a5.558 5.558 0 00-1.404-.198c-.875 0-1.605.338-2.189 1.015-.58.676-.87 1.597-.87 2.762 0 .844.157 1.482.473 1.915.32.427.684.64 1.091.64.442 0 .931-.223 1.465-.671.534-.447 1.012-1.05 1.434-1.808zm4.417 3.601v-8.522h1.419v1.862c.443-.702.949-1.226 1.519-1.572a3.6 3.6 0 011.915-.527c.513 0 1.027.079 1.541.237v3.075h-1.366v-1.946a3.536 3.536 0 00-.564-.061c-.529 0-1.048.209-1.557.626-.508.417-1.004 1.042-1.488 1.877V206h-1.419zm15.747-.565c-1.134.54-2.207.809-3.219.809-.768 0-1.455-.191-2.06-.572-.605-.382-1.091-.926-1.457-1.633a4.974 4.974 0 01-.542-2.281c0-.778.173-1.526.519-2.243.346-.717.829-1.274 1.449-1.671a3.74 3.74 0 012.076-.603c1.012 0 1.823.362 2.433 1.084.616.722.924 1.836.924 3.342v.305h-5.875c0 .59.122 1.129.366 1.617.249.488.575.855.977 1.099s.859.366 1.373.366c.916 0 1.928-.305 3.036-.916v1.297zm-5.668-4.524h4.249v-.206c0-.697-.17-1.251-.511-1.663-.341-.412-.796-.618-1.365-.618-.575 0-1.074.211-1.496.633-.417.417-.709 1.035-.877 1.854zm8.064 4.639v-1.503c.57.371 1.173.633 1.808.786.636.147 1.175.221 1.618.221.717 0 1.233-.114 1.548-.343.316-.234.474-.524.474-.87a.844.844 0 00-.222-.588c-.147-.162-.513-.363-1.098-.602l-.489-.199-.984-.389c-1.058-.412-1.724-.793-1.999-1.144-.279-.346-.419-.768-.419-1.267 0-.702.269-1.279.808-1.732.545-.452 1.425-.679 2.64-.679.911 0 1.773.133 2.586.397v1.29c-.935-.336-1.815-.504-2.639-.504-.6 0-1.071.107-1.412.32-.335.209-.503.471-.503.786 0 .305.147.55.442.733.29.183.763.394 1.419.633l.962.351c.88.32 1.498.669 1.854 1.045.356.376.534.847.534 1.412 0 .737-.285 1.345-.855 1.823-.564.473-1.47.71-2.716.71-1.088 0-2.207-.229-3.357-.687zm9.384 0v-1.503c.57.371 1.173.633 1.808.786.636.147 1.175.221 1.618.221.717 0 1.233-.114 1.549-.343.315-.234.473-.524.473-.87a.844.844 0 00-.222-.588c-.147-.162-.513-.363-1.098-.602l-.489-.199-.984-.389c-1.058-.412-1.724-.793-1.999-1.144-.279-.346-.419-.768-.419-1.267 0-.702.269-1.279.809-1.732.544-.452 1.424-.679 2.639-.679.911 0 1.773.133 2.587.397v1.29c-.936-.336-1.816-.504-2.64-.504-.6 0-1.071.107-1.412.32-.335.209-.503.471-.503.786 0 .305.147.55.442.733.29.183.763.394 1.419.633l.962.351c.88.32 1.498.669 1.854 1.045.356.376.534.847.534 1.412 0 .737-.285 1.345-.855 1.823-.564.473-1.47.71-2.716.71-1.088 0-2.207-.229-3.357-.687z" fill="#638EF6"/><path d="M0 48h680" stroke="#CDCDCD"/><path d="M0 16C0 7.163 7.163 0 16 0h648c8.837 0 16 7.163 16 16v32H0V16z" fill="#F7F7F7"/><circle cx="30" cy="26" r="6" fill="#FF6174"/><circle cx="50" cy="26" r="6" fill="#FCFF56"/><circle cx="70" cy="26" r="6" fill="#5FF5B8"/><path d="M263.336 27.04c-.117 1.035-.475 1.947-1.072 2.736-.597.779-1.387 1.387-2.368 1.824-.981.437-2.101.656-3.36.656-1.376 0-2.587-.261-3.632-.784-1.035-.523-1.84-1.253-2.416-2.192-.576-.939-.864-2.032-.864-3.28 0-1.248.288-2.341.864-3.28.576-.939 1.381-1.67 2.416-2.192 1.045-.523 2.256-.784 3.632-.784 1.259 0 2.379.219 3.36.656.981.437 1.771 1.045 2.368 1.824.597.779.955 1.69 1.072 2.736h-3.04a2.964 2.964 0 00-.656-1.392c-.32-.384-.747-.677-1.28-.88-.523-.213-1.131-.32-1.824-.32-.8 0-1.488.15-2.064.448a3.066 3.066 0 00-1.328 1.248c-.309.544-.464 1.19-.464 1.936 0 .747.155 1.392.464 1.936.309.544.752.965 1.328 1.264.576.288 1.264.432 2.064.432.693 0 1.301-.101 1.824-.304.533-.203.96-.496 1.28-.88.331-.384.549-.853.656-1.408h3.04zm6.764 5.216c-1.152 0-2.16-.203-3.024-.608-.864-.405-1.536-.97-2.016-1.696-.48-.725-.72-1.563-.72-2.512 0-.96.24-1.797.72-2.512.48-.725 1.152-1.29 2.016-1.696.875-.405 1.883-.608 3.024-.608 1.152 0 2.16.203 3.024.608.864.405 1.536.97 2.016 1.696.491.715.736 1.552.736 2.512s-.245 1.803-.736 2.528c-.48.715-1.152 1.275-2.016 1.68-.864.405-1.872.608-3.024.608zm0-2.24c.587 0 1.083-.101 1.488-.304a2.19 2.19 0 00.944-.896c.224-.384.336-.843.336-1.376 0-.533-.112-.992-.336-1.376a2.076 2.076 0 00-.944-.896c-.405-.213-.901-.32-1.488-.32-.565 0-1.056.107-1.472.32a2.169 2.169 0 00-.96.896c-.224.384-.336.843-.336 1.376 0 .533.112.992.336 1.376.224.384.544.683.96.896.416.203.907.304 1.472.304zM285.687 32l-.4-3.44.544-1.088-.528-1.376.736-6.416h3.088l-.912 7.536.544 4.784h-3.072zm.688-4.56c-.16.97-.464 1.819-.912 2.544a5.011 5.011 0 01-1.696 1.68c-.683.395-1.451.592-2.304.592-.896 0-1.686-.203-2.368-.608a4.292 4.292 0 01-1.584-1.68c-.384-.725-.576-1.568-.576-2.528s.192-1.797.576-2.512a4.265 4.265 0 011.584-1.696c.682-.405 1.472-.608 2.368-.608.853 0 1.621.203 2.304.608.682.395 1.248.95 1.696 1.664.458.715.762 1.563.912 2.544zm-6.432 0c0 .49.101.928.304 1.312.202.373.48.672.832.896.362.213.778.32 1.248.32.469 0 .912-.107 1.328-.32a3.79 3.79 0 001.12-.896c.32-.384.56-.821.72-1.312-.16-.49-.4-.923-.72-1.296a3.474 3.474 0 00-1.12-.896 2.76 2.76 0 00-1.328-.336c-.47 0-.886.112-1.248.336-.352.213-.63.512-.832.896-.203.373-.304.805-.304 1.296zm15.687 4.816c-1.088 0-2.064-.203-2.928-.608-.854-.405-1.526-.97-2.016-1.696-.491-.725-.736-1.573-.736-2.544 0-.95.234-1.781.704-2.496.469-.715 1.114-1.275 1.936-1.68.832-.405 1.77-.608 2.816-.608 1.066 0 1.984.235 2.752.704.768.47 1.36 1.13 1.776 1.984.416.853.624 1.856.624 3.008h-8.224v-1.872h6.592l-1.072.672c-.032-.501-.155-.923-.368-1.264a2.033 2.033 0 00-.816-.8c-.342-.192-.747-.288-1.216-.288-.512 0-.955.101-1.328.304a2.236 2.236 0 00-.88.848c-.203.363-.304.784-.304 1.264 0 .608.133 1.125.4 1.552.277.427.672.752 1.184.976.522.224 1.157.336 1.904.336.682 0 1.365-.09 2.047-.272a7.015 7.015 0 001.841-.8v1.936a7.377 7.377 0 01-2.128.992 8.95 8.95 0 01-2.56.352zm15.671 0c-1.088 0-2.064-.203-2.928-.608-.853-.405-1.525-.97-2.016-1.696-.49-.725-.736-1.573-.736-2.544 0-.95.235-1.781.704-2.496.47-.715 1.115-1.275 1.936-1.68.832-.405 1.771-.608 2.816-.608 1.067 0 1.984.235 2.752.704.768.47 1.36 1.13 1.776 1.984.416.853.624 1.856.624 3.008h-8.224v-1.872h6.592l-1.072.672c-.032-.501-.154-.923-.368-1.264a2.02 2.02 0 00-.816-.8c-.341-.192-.746-.288-1.216-.288-.512 0-.954.101-1.328.304a2.25 2.25 0 00-.88.848c-.202.363-.304.784-.304 1.264 0 .608.134 1.125.4 1.552.278.427.672.752 1.184.976.523.224 1.158.336 1.904.336.683 0 1.366-.09 2.048-.272a7.008 7.008 0 001.84-.8v1.936a7.365 7.365 0 01-2.128.992 8.94 8.94 0 01-2.56.352zm4.914-.256l4.256-5.136v.976l-4.016-4.96h3.312l2.72 3.296h-.944l2.72-3.296h3.248l-4.128 5.008-.144-1.28L327.767 32h-3.376l-2.944-3.536h.992L319.527 32h-3.312zm20.017 0l-.4-3.312.432-1.248-.432-1.232.4-3.328h3.088l-.56 4.56.56 4.56h-3.088zm.736-4.56c-.16.97-.464 1.819-.912 2.544a5.003 5.003 0 01-1.696 1.68c-.682.395-1.45.592-2.304.592-.896 0-1.685-.203-2.368-.608a4.292 4.292 0 01-1.584-1.68c-.384-.725-.576-1.568-.576-2.528s.192-1.797.576-2.512a4.265 4.265 0 011.584-1.696c.683-.405 1.472-.608 2.368-.608.854 0 1.622.203 2.304.608a4.86 4.86 0 011.696 1.664c.459.715.763 1.563.912 2.544zm-6.432 0c0 .49.102.928.304 1.312.203.373.48.672.832.896.363.213.779.32 1.248.32.47 0 .912-.107 1.328-.32.427-.224.8-.523 1.12-.896.32-.384.56-.821.72-1.312-.16-.49-.4-.923-.72-1.296a3.463 3.463 0 00-1.12-.896 2.758 2.758 0 00-1.328-.336c-.469 0-.885.112-1.248.336a2.253 2.253 0 00-.832.896c-.202.373-.304.805-.304 1.296zm10.039-4.56h2.96l.592 3.552V32h-2.976v-6.016l-.576-3.104zm6.752-.256c.832 0 1.536.176 2.112.528a3.337 3.337 0 011.328 1.488c.309.63.464 1.387.464 2.272V32h-2.976v-4.64c0-.757-.165-1.328-.496-1.712-.331-.395-.816-.592-1.456-.592-.448 0-.837.107-1.168.32a2.04 2.04 0 00-.752.88c-.171.373-.256.821-.256 1.344l-.944-.496c.117-.97.368-1.787.752-2.448.395-.661.88-1.163 1.456-1.504a3.693 3.693 0 011.936-.528zm7.088 0c.832 0 1.541.176 2.128.528a3.337 3.337 0 011.328 1.488c.309.63.464 1.387.464 2.272V32h-2.976v-4.64c0-.757-.165-1.328-.496-1.712-.331-.395-.816-.592-1.456-.592-.448 0-.837.107-1.168.32a2.04 2.04 0 00-.752.88c-.171.373-.256.821-.256 1.344l-.944-.496c.117-.97.368-1.787.752-2.448s.869-1.163 1.456-1.504a3.665 3.665 0 011.92-.528zm5.717.256h2.96v2.752l-.112.384v2.368l.112.704v5.552h-2.96V22.88zm1.984 4.56c.16-.981.464-1.83.912-2.544a4.86 4.86 0 011.696-1.664 4.48 4.48 0 012.304-.608c.896 0 1.68.203 2.352.608.683.405 1.216.97 1.6 1.696.384.715.576 1.552.576 2.512s-.192 1.803-.576 2.528a4.254 4.254 0 01-1.6 1.68c-.672.405-1.456.608-2.352.608-.853 0-1.621-.197-2.304-.592-.672-.405-1.237-.965-1.696-1.68-.448-.725-.752-1.573-.912-2.544zm6.432 0c0-.49-.101-.923-.304-1.296a2.216 2.216 0 00-.848-.896c-.352-.224-.763-.336-1.232-.336s-.917.112-1.344.336a3.526 3.526 0 00-1.104.896 4.156 4.156 0 00-.72 1.296c.171.49.411.928.72 1.312.32.373.688.672 1.104.896.427.213.875.32 1.344.32.469 0 .88-.107 1.232-.32a2.36 2.36 0 00.848-.896c.203-.384.304-.821.304-1.312zm4.506-7.76h2.96V32h-2.96V19.68zm10.107 12.576c-1.088 0-2.064-.203-2.928-.608-.854-.405-1.526-.97-2.016-1.696-.491-.725-.736-1.573-.736-2.544 0-.95.234-1.781.704-2.496.469-.715 1.114-1.275 1.936-1.68.832-.405 1.77-.608 2.816-.608 1.066 0 1.984.235 2.752.704.768.47 1.36 1.13 1.776 1.984.416.853.624 1.856.624 3.008h-8.224v-1.872h6.592l-1.072.672c-.032-.501-.155-.923-.368-1.264a2.033 2.033 0 00-.816-.8c-.342-.192-.747-.288-1.216-.288-.512 0-.955.101-1.328.304a2.236 2.236 0 00-.88.848c-.203.363-.304.784-.304 1.264 0 .608.133 1.125.4 1.552.277.427.672.752 1.184.976.522.224 1.157.336 1.904.336.682 0 1.365-.09 2.048-.272a7.023 7.023 0 001.84-.8v1.936a7.377 7.377 0 01-2.128.992 8.95 8.95 0 01-2.56.352zm16.68-3.184c0 .683-.202 1.264-.608 1.744-.394.47-.976.827-1.744 1.072-.768.245-1.701.368-2.8.368-1.12 0-2.101-.139-2.944-.416-.842-.277-1.498-.667-1.968-1.168a2.675 2.675 0 01-.752-1.744h3.024c.064.267.214.501.448.704.246.203.56.357.944.464.384.096.838.144 1.36.144.704 0 1.238-.075 1.6-.224.363-.15.544-.373.544-.672 0-.224-.133-.395-.4-.512-.256-.117-.72-.203-1.392-.256l-1.664-.128c-1.045-.085-1.877-.25-2.496-.496-.618-.256-1.061-.581-1.328-.976a2.388 2.388 0 01-.384-1.328c0-.672.208-1.227.624-1.664.427-.448 1.014-.784 1.76-1.008.747-.235 1.622-.352 2.624-.352 1.003 0 1.894.133 2.672.4.79.267 1.419.635 1.888 1.104.48.47.752 1.019.816 1.648h-3.024a1.113 1.113 0 00-.352-.592c-.181-.181-.448-.325-.8-.432-.341-.117-.789-.176-1.344-.176-.629 0-1.109.07-1.44.208-.33.139-.496.341-.496.608 0 .203.102.368.304.496.203.117.587.197 1.152.24l2.16.16c1.024.085 1.824.25 2.4.496.587.235 1.003.544 1.248.928.246.384.368.837.368 1.36z" fill="#2D2D2D"/><path d="M642 22l-4 4 4 4m10-8l4 4-4 4" stroke="#5C5C5C" stroke-width="1.5" stroke-linecap="round" stroke-linejoin="round"/></svg>