<svg width="16" height="17" fill="none" xmlns="http://www.w3.org/2000/svg"><path d="M13.635 14.195A7.85 7.85 0 017.952 16.5a7.692 7.692 0 01-5.64-2.304 7.655 7.655 0 01-2.31-5.65c0-2.299.77-4.214 2.31-5.746A7.701 7.701 0 017.952.502a7.842 7.842 0 015.683 2.297C15.211 4.33 16 6.246 16 8.545a7.589 7.589 0 01-2.364 5.65z" fill="#E4E4E4"/><path d="M8 3.014L4.8 8.467 8 6.973V3.014z" fill="#8B8B8B"/><path d="M8 6.973L4.8 8.467 8 10.408V6.973z" fill="#393939"/><path d="M8 3.014v3.959l3.197 1.494L8 3.014z" fill="#343434"/><path d="M8 6.973v3.436l3.197-1.942L8 6.973z" fill="#161616"/><path d="M4.8 9.09L8 13.722v-2.69L4.8 9.09z" fill="#8B8B8B"/><path d="M11.2 9.09L8 11.033v2.689l3.2-4.632z" fill="#343434"/></svg>