<svg width="24" height="24" fill="none" xmlns="http://www.w3.org/2000/svg"><g clip-path="url(#clip0_1_7758)" stroke="#DC4355" stroke-width="1.5" stroke-linecap="round" stroke-linejoin="round"><path d="M9.103 2h5.794a3 3 0 012.122.879l4.101 4.1A3 3 0 0122 9.104v5.794a3.002 3.002 0 01-.879 2.122l-4.1 4.101a3 3 0 01-2.123.88H9.103a3 3 0 01-2.122-.88l-4.101-4.1A3 3 0 012 14.897V9.103a3 3 0 01.879-2.122l4.1-4.101A3 3 0 019.104 2h-.001zM12 9h.01"/><path d="M11 12h1v4h1"/></g><defs><clipPath id="clip0_1_7758"><path fill="#fff" d="M0 0h24v24H0z"/></clipPath></defs></svg>