<svg width="1376" height="397" fill="none" xmlns="http://www.w3.org/2000/svg"><mask id="a" style="mask-type:alpha" maskUnits="userSpaceOnUse" x="0" y="0" width="1376" height="397"><path d="M0 44C0 19.7 19.7 0 44 0h1288c24.3 0 44 19.7 44 44v309c0 24.301-19.7 44-44 44H44c-24.3 0-44-19.699-44-44V44z" fill="url(#paint0_linear_1_879)"/></mask><g mask="url(#a)"><g filter="url(#filter0_f_1_879)"><circle cx="429" cy="370" r="171" fill="#fff" fill-opacity=".4"/></g><g filter="url(#filter1_f_1_879)"><ellipse cx="1169" cy="61" rx="194" ry="171" fill="#0019FB" fill-opacity=".73"/></g><g opacity=".05" transform="scale(-1 1) rotate(-45 -246.738 1552.512)" fill="#fff"><rect width="420.017" height="420.017" rx="44"/><rect width="420.017" height="420.017" rx="44" fill-opacity=".3"/></g><g opacity=".05" transform="scale(-1 1) rotate(-45 -494.45 984.264)" fill="#fff"><rect width="207.996" height="207.996" rx="44"/><rect width="207.996" height="207.996" rx="44" fill-opacity=".3"/></g></g><defs><filter id="filter0_f_1_879" x="-42" y="-101" width="942" height="942" filterUnits="userSpaceOnUse" color-interpolation-filters="sRGB"><feFlood flood-opacity="0" result="BackgroundImageFix"/><feBlend in="SourceGraphic" in2="BackgroundImageFix" result="shape"/><feGaussianBlur stdDeviation="150" result="effect1_foregroundBlur_1_879"/></filter><filter id="filter1_f_1_879" x="675" y="-410" width="988" height="942" filterUnits="userSpaceOnUse" color-interpolation-filters="sRGB"><feFlood flood-opacity="0" result="BackgroundImageFix"/><feBlend in="SourceGraphic" in2="BackgroundImageFix" result="shape"/><feGaussianBlur stdDeviation="150" result="effect1_foregroundBlur_1_879"/></filter><linearGradient id="paint0_linear_1_879" x1="500.864" y1="0" x2="516.705" y2="403.721" gradientUnits="userSpaceOnUse"><stop stop-color="#E5FAF9"/><stop offset="1" stop-color="#E3E8F8"/></linearGradient></defs></svg>