<svg width="1376" height="158" fill="none" xmlns="http://www.w3.org/2000/svg"><g opacity=".2"><mask id="a" style="mask-type:alpha" maskUnits="userSpaceOnUse" x="0" y="0" width="1376" height="158"><rect width="1376" height="158" rx="12" fill="#434EDC"/></mask><g mask="url(#a)"><path d="M358.5 61.5c-22.5 0-11.5 52.5-68 47-41.992-4.088-74.289 31.498-87.749 53.676L200 196l1146.5-9 4-35.5c3.83-31 2.9-93.7-31.5-96.5-34.4-2.8-79.67 55.833-98 85.5-9.5 4.667-33.1 3.6-51.5-38s-41-41-50-35.5c-8.67 6.5-29.1 18.1-41.5 12.5-12.4-5.6-75.83-82.667-106-120.5-54.8 83.6-98.5 94.167-113.5 89-76.4-21.6-154.833 57-184.5 99-9.2-6.8-27.833-16.833-36-21-56-12.5-54.5 47-67 46s-40 3-73-46c-26.4-39.2-38.667-21-41.5-7-10 8.4-18.167 3.5-21 0-29.5-48-54.5-57.5-77-57.5z" fill="#fff"/></g></g></svg>