<svg width="351" height="146" fill="none" xmlns="http://www.w3.org/2000/svg"><g opacity=".2"><mask id="a" style="mask-type:alpha" maskUnits="userSpaceOnUse" x="0" y="0" width="351" height="146"><rect width="351" height="146" rx="12" fill="#434EDC"/></mask><g mask="url(#a)"><path d="M-54.658 62.063c-15.38 0-7.861 35.886-46.481 32.127-28.704-2.794-50.78 21.53-59.981 36.69L-163 154l783.684-6.152 2.734-24.266c2.62-21.19 1.982-64.048-21.532-65.962-23.514-1.914-54.456 38.165-66.987 58.443-6.494 3.19-22.626 2.461-35.203-25.974-12.577-28.436-28.025-28.026-34.177-24.266-5.924 4.443-19.891 12.372-28.367 8.544C428.676 70.54 385.316 17.861 364.696-8c-37.458 57.144-67.329 64.367-77.582 60.835C234.891 38.071 181.279 91.797 161 120.506c-6.289-4.648-19.025-11.506-24.608-14.354-38.278-8.544-37.253 32.126-45.797 31.443-8.544-.684-27.342 2.051-49.899-31.443-18.045-26.795-26.43-14.355-28.367-4.785-6.835 5.742-12.418 2.392-14.354 0-20.165-32.81-37.254-39.304-52.633-39.304z" fill="#fff"/></g></g></svg>