<svg width="26" height="32" fill="none" xmlns="http://www.w3.org/2000/svg"><path d="M5.255 24.327l3.08 3.075.003-.003-3.08-3.075-.003.003z" fill="url(#paint0_linear_1_1531)"/><path d="M1.087 17.088l11.421 11.399v3.074L1.087 20.162v-3.074z" fill="url(#paint1_linear_1_1531)"/><path d="M1.084 14.01l11.424 11.402v3.075l-11.421-11.4-.003-3.077z" fill="url(#paint2_linear_1_1531)"/><path d="M23.93 17.088v3.074l-11.422 11.4v-3.075l11.422-11.4z" fill="url(#paint3_linear_1_1531)"/><path d="M23.93 14.013v3.075L12.508 28.487v-3.075l11.422-11.4z" fill="url(#paint4_linear_1_1531)"/><path d="M20.849 8.763l3.08 3.075h-3.08V8.763z" fill="url(#paint5_linear_1_1531)"/><path d="M23.93 11.838L12.506 23.24l.002-3.078 8.341-8.324h3.08z" fill="url(#paint6_linear_1_1531)"/><path d="M11.419 16l1.09 1.088v3.074L8.338 16h3.08z" fill="url(#paint7_linear_1_1531)"/><path d="M8.338 16l4.17 4.162-.002 3.078-7.251-7.237L8.338 16z" fill="url(#paint8_linear_1_1531)"/><path d="M12.508.439l7.252 7.237h-3.081l-4.17-4.163V.44z" fill="url(#paint9_linear_1_1531)"/><path d="M12.508 3.513l-.002 3.078-8.338 8.322v-3.075l8.34-8.325z" fill="url(#paint10_linear_1_1531)"/><path d="M12.508.439v3.074l-8.34 8.325H1.087L12.508.438z" fill="url(#paint11_linear_1_1531)"/><path d="M12.508 3.513l4.17 4.163-3.083.002-1.09-1.087.003-3.078z" fill="url(#paint12_linear_1_1531)"/><path d="M16.679 7.676L8.339 16l-3.084.003 8.34-8.325 3.084-.002z" fill="url(#paint13_linear_1_1531)"/><path d="M19.76 7.676L11.418 16h-3.08l8.34-8.324h3.08z" fill="url(#paint14_linear_1_1531)"/><path d="M20.849 8.763v3.075l-8.34 8.324v-3.074l8.34-8.325z" fill="url(#paint15_linear_1_1531)"/><path d="M4.168 11.838v3.075l-.003.002-1.54-1.537.002-.003-1.54-1.537h3.08z" fill="url(#paint16_linear_1_1531)"/><defs><linearGradient id="paint0_linear_1_1531" x1="5.255" y1="25.863" x2="8.338" y2="25.863" gradientUnits="userSpaceOnUse"><stop stop-color="#434EDC"/><stop offset="1" stop-color="#95A3F4"/></linearGradient><linearGradient id="paint1_linear_1_1531" x1="1.309" y1="18.845" x2="12.31" y2="29.867" gradientUnits="userSpaceOnUse"><stop stop-color="#434EDC"/><stop offset="1" stop-color="#95A3F4"/></linearGradient><linearGradient id="paint2_linear_1_1531" x1="12.432" y1="26.872" x2="1.419" y2="15.837" gradientUnits="userSpaceOnUse"><stop stop-color="#434EDC"/><stop offset="1" stop-color="#95A3F4"/></linearGradient><linearGradient id="paint3_linear_1_1531" x1="11.739" y1="30.791" x2="24.675" y2="17.83" gradientUnits="userSpaceOnUse"><stop stop-color="#434EDC"/><stop offset="1" stop-color="#95A3F4"/></linearGradient><linearGradient id="paint4_linear_1_1531" x1="24.859" y1="14.622" x2="11.923" y2="27.583" gradientUnits="userSpaceOnUse"><stop stop-color="#434EDC"/><stop offset="1" stop-color="#95A3F4"/></linearGradient><linearGradient id="paint5_linear_1_1531" x1="19.619" y1="12.94" x2="25.414" y2="7.394" gradientUnits="userSpaceOnUse"><stop stop-color="#E7AEF2"/><stop offset=".135" stop-color="#E2ABF1"/><stop offset=".294" stop-color="#D4A3EF"/><stop offset=".465" stop-color="#BC95EC"/><stop offset=".644" stop-color="#9B82E8"/><stop offset=".828" stop-color="#7169E2"/><stop offset="1" stop-color="#434EDC"/></linearGradient><linearGradient id="paint6_linear_1_1531" x1="11.736" y1="22.47" x2="23.138" y2="11.046" gradientUnits="userSpaceOnUse"><stop stop-color="#E7AEF2"/><stop offset=".135" stop-color="#E2ABF1"/><stop offset=".294" stop-color="#D4A3EF"/><stop offset=".465" stop-color="#BC95EC"/><stop offset=".644" stop-color="#9B82E8"/><stop offset=".828" stop-color="#7169E2"/><stop offset="1" stop-color="#434EDC"/></linearGradient><linearGradient id="paint7_linear_1_1531" x1="13.095" y1="19.209" x2="9.195" y2="15.301" gradientUnits="userSpaceOnUse"><stop stop-color="#E7AEF2"/><stop offset=".135" stop-color="#E2ABF1"/><stop offset=".294" stop-color="#D4A3EF"/><stop offset=".465" stop-color="#BC95EC"/><stop offset=".644" stop-color="#9B82E8"/><stop offset=".828" stop-color="#7169E2"/><stop offset="1" stop-color="#434EDC"/></linearGradient><linearGradient id="paint8_linear_1_1531" x1="6.784" y1="15.987" x2="12.931" y2="22.146" gradientUnits="userSpaceOnUse"><stop stop-color="#E7AEF2"/><stop offset=".135" stop-color="#E2ABF1"/><stop offset=".294" stop-color="#D4A3EF"/><stop offset=".465" stop-color="#BC95EC"/><stop offset=".644" stop-color="#9B82E8"/><stop offset=".828" stop-color="#7169E2"/><stop offset="1" stop-color="#434EDC"/></linearGradient><linearGradient id="paint9_linear_1_1531" x1="18.217" y1="7.672" x2="12.413" y2="1.857" gradientUnits="userSpaceOnUse"><stop stop-color="#E7AEF2"/><stop offset=".135" stop-color="#E2ABF1"/><stop offset=".294" stop-color="#D4A3EF"/><stop offset=".465" stop-color="#BC95EC"/><stop offset=".644" stop-color="#9B82E8"/><stop offset=".828" stop-color="#7169E2"/><stop offset="1" stop-color="#434EDC"/></linearGradient><linearGradient id="paint10_linear_1_1531" x1="3.398" y1="14.143" x2="13.26" y2="4.262" gradientUnits="userSpaceOnUse"><stop stop-color="#E7AEF2"/><stop offset=".135" stop-color="#E2ABF1"/><stop offset=".294" stop-color="#D4A3EF"/><stop offset=".465" stop-color="#BC95EC"/><stop offset=".644" stop-color="#9B82E8"/><stop offset=".828" stop-color="#7169E2"/><stop offset="1" stop-color="#434EDC"/></linearGradient><linearGradient id="paint11_linear_1_1531" x1="13.741" y1=".745" x2="2.077" y2="12.432" gradientUnits="userSpaceOnUse"><stop stop-color="#E7AEF2"/><stop offset=".135" stop-color="#E2ABF1"/><stop offset=".294" stop-color="#D4A3EF"/><stop offset=".465" stop-color="#BC95EC"/><stop offset=".644" stop-color="#9B82E8"/><stop offset=".828" stop-color="#7169E2"/><stop offset="1" stop-color="#434EDC"/></linearGradient><linearGradient id="paint12_linear_1_1531" x1="12.13" y1="4.674" x2="17.599" y2="10.154" gradientUnits="userSpaceOnUse"><stop stop-color="#E7AEF2"/><stop offset=".135" stop-color="#E2ABF1"/><stop offset=".294" stop-color="#D4A3EF"/><stop offset=".465" stop-color="#BC95EC"/><stop offset=".644" stop-color="#9B82E8"/><stop offset=".828" stop-color="#7169E2"/><stop offset="1" stop-color="#434EDC"/></linearGradient><linearGradient id="paint13_linear_1_1531" x1="16.565" y1="6.251" x2="6.7" y2="16.135" gradientUnits="userSpaceOnUse"><stop stop-color="#E7AEF2"/><stop offset=".135" stop-color="#E2ABF1"/><stop offset=".294" stop-color="#D4A3EF"/><stop offset=".465" stop-color="#BC95EC"/><stop offset=".644" stop-color="#9B82E8"/><stop offset=".828" stop-color="#7169E2"/><stop offset="1" stop-color="#434EDC"/></linearGradient><linearGradient id="paint14_linear_1_1531" x1="9.109" y1="16.767" x2="18.971" y2="6.887" gradientUnits="userSpaceOnUse"><stop stop-color="#E7AEF2"/><stop offset=".135" stop-color="#E2ABF1"/><stop offset=".294" stop-color="#D4A3EF"/><stop offset=".465" stop-color="#BC95EC"/><stop offset=".644" stop-color="#9B82E8"/><stop offset=".828" stop-color="#7169E2"/><stop offset="1" stop-color="#434EDC"/></linearGradient><linearGradient id="paint15_linear_1_1531" x1="21.3" y1="9.85" x2="11.438" y2="19.731" gradientUnits="userSpaceOnUse"><stop stop-color="#E7AEF2"/><stop offset=".135" stop-color="#E2ABF1"/><stop offset=".294" stop-color="#D4A3EF"/><stop offset=".465" stop-color="#BC95EC"/><stop offset=".644" stop-color="#9B82E8"/><stop offset=".828" stop-color="#7169E2"/><stop offset="1" stop-color="#434EDC"/></linearGradient><linearGradient id="paint16_linear_1_1531" x1="1.714" y1="14.286" x2="5.007" y2="10.987" gradientUnits="userSpaceOnUse"><stop stop-color="#E7AEF2"/><stop offset=".135" stop-color="#E2ABF1"/><stop offset=".294" stop-color="#D4A3EF"/><stop offset=".465" stop-color="#BC95EC"/><stop offset=".644" stop-color="#9B82E8"/><stop offset=".828" stop-color="#7169E2"/><stop offset="1" stop-color="#434EDC"/></linearGradient></defs></svg>