<svg width="249" height="32" fill="none" xmlns="http://www.w3.org/2000/svg"><path d="M222.578 30V.91h7.898v11.363h10.454V.909h7.898V30h-7.898V18.637h-10.454V30h-7.898zm-28.25-22.727V.909h25.284v6.364h-8.75V30h-7.784V7.273h-8.75zM170.234 30V.91H191.2v6.363h-13.068v5h11.989v6.364h-11.989v5h13.011V30h-20.909zm-8.116.454a3.905 3.905 0 01-2.827-1.15c-.776-.777-1.16-1.719-1.15-2.827-.01-1.08.374-2.003 1.15-2.77a3.905 3.905 0 012.827-1.15c1.042 0 1.96.383 2.756 1.15.805.767 1.212 1.69 1.221 2.77a3.818 3.818 0 01-.582 2.017 4.278 4.278 0 01-1.449 1.435 3.775 3.775 0 01-1.946.525zM146.78 10c-.076-.947-.431-1.686-1.066-2.216-.625-.53-1.576-.795-2.855-.795-.814 0-1.482.099-2.002.298-.512.19-.891.45-1.137.781s-.374.71-.383 1.136c-.019.35.042.668.184.952.152.275.389.526.711.753.322.218.733.417 1.235.597.502.18 1.099.34 1.79.482l2.386.512c1.61.34 2.988.79 4.134 1.35 1.146.558 2.083 1.216 2.812 1.974a7.036 7.036 0 011.606 2.528c.35.938.53 1.96.539 3.068-.009 1.913-.487 3.532-1.434 4.858-.947 1.326-2.301 2.335-4.063 3.026-1.752.691-3.859 1.037-6.321 1.037-2.528 0-4.735-.374-6.619-1.122-1.875-.748-3.333-1.9-4.375-3.452-1.032-1.563-1.553-3.56-1.563-5.994h7.5c.048.89.27 1.638.668 2.244.398.606.956 1.065 1.676 1.378.729.312 1.596.468 2.6.468.842 0 1.548-.104 2.116-.312.568-.208.999-.497 1.293-.866.293-.37.445-.791.454-1.265a1.793 1.793 0 00-.44-1.164c-.275-.341-.729-.644-1.364-.91-.634-.274-1.491-.53-2.571-.767l-2.898-.625c-2.575-.558-4.607-1.491-6.093-2.798-1.478-1.316-2.211-3.11-2.202-5.383-.009-1.847.483-3.462 1.477-4.844 1.004-1.392 2.391-2.476 4.162-3.253 1.781-.777 3.821-1.165 6.122-1.165 2.349 0 4.38.393 6.094 1.18 1.714.785 3.035 1.893 3.963 3.323.938 1.42 1.411 3.082 1.421 4.986h-7.557zm-40.561 20V.91h20.966v6.363h-13.069v5h11.989v6.364h-11.989v5h13.012V30h-20.909zm-24.891 0V.91h20.966v6.363H89.226v5h11.988v6.364H89.226v5h13.011V30H81.328zM53.078 7.273V.909h25.284v6.364h-8.75V30h-7.784V7.273h-8.75zm-22.148.665L21.584.078a.315.315 0 00-.194-.07.314.314 0 00-.194.069.482.482 0 00-.143.19.679.679 0 00-.055.263v6.923a.681.681 0 01-.053.268.481.481 0 01-.147.194.312.312 0 01-.198.067.32.32 0 01-.197-.078L11.09.079a.315.315 0 00-.194-.071.314.314 0 00-.194.069.482.482 0 00-.143.19.679.679 0 00-.054.263v6.923a.68.68 0 01-.054.27.481.481 0 01-.147.194.312.312 0 01-.2.067.321.321 0 01-.196-.08L.595.079A.32.32 0 00.4 0a.312.312 0 00-.2.067.481.481 0 00-.146.194A.68.68 0 000 .53v22.493c0 .275.053.546.153.785.1.24.245.44.419.58l9.334 7.541c.059.046.126.07.194.071a.315.315 0 00.195-.07.484.484 0 00.143-.193.683.683 0 00.053-.264v-6.627c0-.092.019-.183.053-.264a.484.484 0 01.143-.192.315.315 0 01.195-.07c.068 0 .135.024.194.07l9.317 7.526c.059.046.126.07.194.07a.314.314 0 00.195-.07.484.484 0 00.143-.192.68.68 0 00.053-.264v-6.627a.68.68 0 01.053-.264.485.485 0 01.143-.192.315.315 0 01.195-.07c.068 0 .135.024.194.07l9.317 7.526c.059.046.126.07.194.07a.315.315 0 00.195-.07.485.485 0 00.143-.192.68.68 0 00.053-.264V9.29a2.06 2.06 0 00-.14-.77 1.511 1.511 0 00-.395-.582z" fill="#fff"/></svg>