<svg width="114" height="36" fill="none" xmlns="http://www.w3.org/2000/svg"><g clip-path="url(#clip0_1_1239)"><path d="M5.336 30.331l3.943 3.952.003-.003-3.943-3.952-.003.003z" fill="url(#paint0_linear_1_1239)"/><path d="M.003 21.027l14.617 14.65v3.952L.003 24.979v-3.952z" fill="url(#paint1_linear_1_1239)"/><path d="M0 17.071l14.62 14.654v3.952L.004 21.027 0 17.07z" fill="url(#paint2_linear_1_1239)"/><path d="M29.238 21.027v3.951L14.62 39.63v-3.952l14.618-14.65z" fill="url(#paint3_linear_1_1239)"/><path d="M29.238 17.075v3.951L14.62 35.677v-3.952l14.618-14.65z" fill="url(#paint4_linear_1_1239)"/><path d="M25.295 10.328l3.943 3.951h-3.943v-3.951z" fill="url(#paint5_linear_1_1239)"/><path d="M29.238 14.28l-14.62 14.653.003-3.955L25.296 14.28h3.942z" fill="url(#paint6_linear_1_1239)"/><path d="M13.224 19.63l1.395 1.397v3.951L9.282 19.63h3.942z" fill="url(#paint7_linear_1_1239)"/><path d="M9.281 19.63l5.338 5.349-.003 3.955-9.28-9.301 3.945-.004z" fill="url(#paint8_linear_1_1239)"/><path d="M14.62-.371L23.9 8.93h-3.943L14.62 3.58V-.37z" fill="url(#paint9_linear_1_1239)"/><path d="M14.62 3.58l-.003 3.956L3.946 18.23v-3.95L14.62 3.581z" fill="url(#paint10_linear_1_1239)"/><path d="M14.62-.371V3.58L3.945 14.279H.003L14.62-.37z" fill="url(#paint11_linear_1_1239)"/><path d="M14.621 3.58l5.337 5.35-3.946.004-1.394-1.398.003-3.955z" fill="url(#paint12_linear_1_1239)"/><path d="M19.956 8.93L9.28 19.63l-3.945.003L16.01 8.934l3.946-.003z" fill="url(#paint13_linear_1_1239)"/><path d="M23.899 8.93l-10.675 10.7H9.282l10.674-10.7H23.9z" fill="url(#paint14_linear_1_1239)"/><path d="M25.295 10.328v3.951L14.62 24.98v-3.953l10.675-10.698z" fill="url(#paint15_linear_1_1239)"/><path d="M3.945 14.28v3.951l-.003.004-1.971-1.976.003-.004L.003 14.28h3.942z" fill="url(#paint16_linear_1_1239)"/><path d="M42.518 26.629V12.81h2.085v12.023h6.261v1.795h-8.346zm12.597 0h-2.213l4.973-13.818h2.408l4.973 13.818h-2.213L59.136 15.32h-.108l-3.913 11.308zm.371-5.411h7.18v1.754h-7.18v-1.754zm19.19-4.777c-.071-.639-.368-1.134-.89-1.485-.522-.355-1.178-.533-1.97-.533-.567 0-1.057.09-1.47.27-.415.176-.736.418-.966.729a1.72 1.72 0 00-.337 1.046c0 .328.076.611.23.85.157.238.361.438.613.6.257.158.531.29.823.398.293.104.574.19.844.257l1.35.35c.44.109.892.255 1.355.44a5.45 5.45 0 011.29.728c.395.301.714.675.957 1.12.248.445.371.978.371 1.599 0 .783-.202 1.478-.607 2.085-.4.607-.983 1.086-1.747 1.437-.76.35-1.68.526-2.76.526-1.035 0-1.93-.164-2.685-.492-.756-.329-1.348-.794-1.775-1.397-.427-.607-.663-1.327-.708-2.159h2.091c.04.5.203.915.486 1.248.288.329.655.574 1.1.736.45.157.942.236 1.478.236.589 0 1.113-.092 1.572-.277.463-.189.827-.45 1.093-.782.265-.338.398-.731.398-1.181 0-.41-.117-.745-.351-1.006-.23-.26-.542-.476-.938-.647a9.163 9.163 0 00-1.33-.452l-1.632-.446c-1.107-.301-1.984-.744-2.631-1.329-.644-.585-.965-1.358-.965-2.32 0-.797.216-1.492.647-2.086.432-.593 1.017-1.054 1.755-1.383.737-.333 1.57-.5 2.496-.5.936 0 1.761.165 2.476.493.72.329 1.287.78 1.7 1.356.415.572.63 1.228.648 1.97h-2.01zm4.692 10.188V12.81h8.663v1.794h-6.578v4.21h6.126v1.789h-6.126v4.23h6.659v1.795h-8.744zm11.448 0V12.81h4.925c1.07 0 1.96.184 2.665.553.711.369 1.242.88 1.593 1.532.351.647.526 1.396.526 2.246 0 .846-.178 1.59-.533 2.234-.35.638-.882 1.136-1.592 1.49-.706.356-1.595.534-2.665.534h-3.731v-1.795h3.542c.674 0 1.223-.097 1.646-.29.427-.193.74-.475.938-.843.198-.37.297-.812.297-1.33 0-.521-.101-.973-.304-1.356-.198-.382-.51-.675-.938-.877-.422-.207-.978-.31-1.666-.31H92.9v12.03h-2.085zm6.821-6.235l3.414 6.235h-2.375l-3.346-6.235h2.307zm5.236 6.235v-1.512l4.676-4.844c.499-.526.911-.987 1.235-1.383.328-.4.573-.78.735-1.14.162-.36.243-.742.243-1.147 0-.46-.108-.855-.324-1.188a2.114 2.114 0 00-.884-.776 2.81 2.81 0 00-1.261-.276c-.495 0-.927.1-1.296.303a2.08 2.08 0 00-.85.857c-.198.369-.297.8-.297 1.296h-1.99c0-.842.193-1.577.58-2.207a3.946 3.946 0 011.592-1.464c.675-.35 1.442-.526 2.301-.526.868 0 1.633.173 2.294.52a3.895 3.895 0 011.559 1.403c.373.589.56 1.255.56 1.997a4.08 4.08 0 01-.29 1.505c-.189.49-.52 1.036-.992 1.64-.473.597-1.129 1.324-1.97 2.178l-2.747 2.875v.1h6.221v1.789h-9.095z" fill="#4955D3"/></g><defs><linearGradient id="paint0_linear_1_1239" x1="5.336" y1="32.306" x2="9.282" y2="32.306" gradientUnits="userSpaceOnUse"><stop stop-color="#434EDC"/><stop offset="1" stop-color="#95A3F4"/></linearGradient><linearGradient id="paint1_linear_1_1239" x1=".287" y1="23.286" x2="14.425" y2="37.392" gradientUnits="userSpaceOnUse"><stop stop-color="#434EDC"/><stop offset="1" stop-color="#95A3F4"/></linearGradient><linearGradient id="paint2_linear_1_1239" x1="14.523" y1="33.602" x2=".368" y2="19.479" gradientUnits="userSpaceOnUse"><stop stop-color="#434EDC"/><stop offset="1" stop-color="#95A3F4"/></linearGradient><linearGradient id="paint3_linear_1_1239" x1="13.635" y1="38.64" x2="30.261" y2="22.052" gradientUnits="userSpaceOnUse"><stop stop-color="#434EDC"/><stop offset="1" stop-color="#95A3F4"/></linearGradient><linearGradient id="paint4_linear_1_1239" x1="30.426" y1="17.858" x2="13.8" y2="34.447" gradientUnits="userSpaceOnUse"><stop stop-color="#434EDC"/><stop offset="1" stop-color="#95A3F4"/></linearGradient><linearGradient id="paint5_linear_1_1239" x1="23.721" y1="15.697" x2="31.167" y2="8.6" gradientUnits="userSpaceOnUse"><stop stop-color="#E7AEF2"/><stop offset=".135" stop-color="#E2ABF1"/><stop offset=".294" stop-color="#D4A3EF"/><stop offset=".465" stop-color="#BC95EC"/><stop offset=".644" stop-color="#9B82E8"/><stop offset=".828" stop-color="#7169E2"/><stop offset="1" stop-color="#434EDC"/></linearGradient><linearGradient id="paint6_linear_1_1239" x1="13.632" y1="27.945" x2="28.286" y2="13.324" gradientUnits="userSpaceOnUse"><stop stop-color="#E7AEF2"/><stop offset=".135" stop-color="#E2ABF1"/><stop offset=".294" stop-color="#D4A3EF"/><stop offset=".465" stop-color="#BC95EC"/><stop offset=".644" stop-color="#9B82E8"/><stop offset=".828" stop-color="#7169E2"/><stop offset="1" stop-color="#434EDC"/></linearGradient><linearGradient id="paint7_linear_1_1239" x1="15.37" y1="23.754" x2="10.357" y2="18.752" gradientUnits="userSpaceOnUse"><stop stop-color="#E7AEF2"/><stop offset=".135" stop-color="#E2ABF1"/><stop offset=".294" stop-color="#D4A3EF"/><stop offset=".465" stop-color="#BC95EC"/><stop offset=".644" stop-color="#9B82E8"/><stop offset=".828" stop-color="#7169E2"/><stop offset="1" stop-color="#434EDC"/></linearGradient><linearGradient id="paint8_linear_1_1239" x1="7.292" y1="19.613" x2="15.192" y2="27.495" gradientUnits="userSpaceOnUse"><stop stop-color="#E7AEF2"/><stop offset=".135" stop-color="#E2ABF1"/><stop offset=".294" stop-color="#D4A3EF"/><stop offset=".465" stop-color="#BC95EC"/><stop offset=".644" stop-color="#9B82E8"/><stop offset=".828" stop-color="#7169E2"/><stop offset="1" stop-color="#434EDC"/></linearGradient><linearGradient id="paint9_linear_1_1239" x1="21.926" y1="8.926" x2="14.466" y2="1.484" gradientUnits="userSpaceOnUse"><stop stop-color="#E7AEF2"/><stop offset=".135" stop-color="#E2ABF1"/><stop offset=".294" stop-color="#D4A3EF"/><stop offset=".465" stop-color="#BC95EC"/><stop offset=".644" stop-color="#9B82E8"/><stop offset=".828" stop-color="#7169E2"/><stop offset="1" stop-color="#434EDC"/></linearGradient><linearGradient id="paint10_linear_1_1239" x1="2.96" y1="17.242" x2="15.635" y2="4.597" gradientUnits="userSpaceOnUse"><stop stop-color="#E7AEF2"/><stop offset=".135" stop-color="#E2ABF1"/><stop offset=".294" stop-color="#D4A3EF"/><stop offset=".465" stop-color="#BC95EC"/><stop offset=".644" stop-color="#9B82E8"/><stop offset=".828" stop-color="#7169E2"/><stop offset="1" stop-color="#434EDC"/></linearGradient><linearGradient id="paint11_linear_1_1239" x1="16.197" y1=".023" x2="1.206" y2="14.98" gradientUnits="userSpaceOnUse"><stop stop-color="#E7AEF2"/><stop offset=".135" stop-color="#E2ABF1"/><stop offset=".294" stop-color="#D4A3EF"/><stop offset=".465" stop-color="#BC95EC"/><stop offset=".644" stop-color="#9B82E8"/><stop offset=".828" stop-color="#7169E2"/><stop offset="1" stop-color="#434EDC"/></linearGradient><linearGradient id="paint12_linear_1_1239" x1="14.136" y1="5.072" x2="21.166" y2="12.086" gradientUnits="userSpaceOnUse"><stop stop-color="#E7AEF2"/><stop offset=".135" stop-color="#E2ABF1"/><stop offset=".294" stop-color="#D4A3EF"/><stop offset=".465" stop-color="#BC95EC"/><stop offset=".644" stop-color="#9B82E8"/><stop offset=".828" stop-color="#7169E2"/><stop offset="1" stop-color="#434EDC"/></linearGradient><linearGradient id="paint13_linear_1_1239" x1="19.81" y1="7.1" x2="7.132" y2="19.75" gradientUnits="userSpaceOnUse"><stop stop-color="#E7AEF2"/><stop offset=".135" stop-color="#E2ABF1"/><stop offset=".294" stop-color="#D4A3EF"/><stop offset=".465" stop-color="#BC95EC"/><stop offset=".644" stop-color="#9B82E8"/><stop offset=".828" stop-color="#7169E2"/><stop offset="1" stop-color="#434EDC"/></linearGradient><linearGradient id="paint14_linear_1_1239" x1="10.268" y1="20.616" x2="22.942" y2="7.97" gradientUnits="userSpaceOnUse"><stop stop-color="#E7AEF2"/><stop offset=".135" stop-color="#E2ABF1"/><stop offset=".294" stop-color="#D4A3EF"/><stop offset=".465" stop-color="#BC95EC"/><stop offset=".644" stop-color="#9B82E8"/><stop offset=".828" stop-color="#7169E2"/><stop offset="1" stop-color="#434EDC"/></linearGradient><linearGradient id="paint15_linear_1_1239" x1="25.871" y1="11.725" x2="13.197" y2="24.371" gradientUnits="userSpaceOnUse"><stop stop-color="#E7AEF2"/><stop offset=".135" stop-color="#E2ABF1"/><stop offset=".294" stop-color="#D4A3EF"/><stop offset=".465" stop-color="#BC95EC"/><stop offset=".644" stop-color="#9B82E8"/><stop offset=".828" stop-color="#7169E2"/><stop offset="1" stop-color="#434EDC"/></linearGradient><linearGradient id="paint16_linear_1_1239" x1=".805" y1="17.426" x2="5.036" y2="13.205" gradientUnits="userSpaceOnUse"><stop stop-color="#E7AEF2"/><stop offset=".135" stop-color="#E2ABF1"/><stop offset=".294" stop-color="#D4A3EF"/><stop offset=".465" stop-color="#BC95EC"/><stop offset=".644" stop-color="#9B82E8"/><stop offset=".828" stop-color="#7169E2"/><stop offset="1" stop-color="#434EDC"/></linearGradient><clipPath id="clip0_1_1239"><path fill="#fff" d="M0 0h114v36H0z"/></clipPath></defs></svg>