<svg width="126" height="24" fill="none" xmlns="http://www.w3.org/2000/svg"><path d="M26.54 7.636V4.455h12.642v3.181h-4.375V19h-3.892V7.636H26.54zM40.668 19V4.455h10.483v3.181h-6.534v2.5h5.994v3.182h-5.994v2.5h6.506V19H40.668zm12.441 0V4.455h10.483v3.181h-6.534v2.5h5.995v3.182h-5.995v2.5h6.506V19H53.109zM73.392 9c-.038-.473-.216-.843-.533-1.108-.313-.265-.788-.398-1.427-.398-.408 0-.742.05-1.002.15-.256.094-.445.224-.568.39a.965.965 0 00-.192.568.933.933 0 00.092.476c.076.137.195.263.356.377.16.108.367.208.617.298.251.09.55.17.895.241l1.194.256c.804.17 1.493.395 2.066.675.573.28 1.042.608 1.406.987.365.374.633.795.803 1.264.175.469.265.98.27 1.534-.005.957-.244 1.766-.717 2.43-.474.662-1.15 1.166-2.032 1.512-.876.346-1.93.518-3.16.518-1.264 0-2.368-.187-3.31-.56-.937-.375-1.666-.95-2.187-1.726-.516-.782-.777-1.78-.781-2.998h3.75c.023.445.134.82.333 1.123.2.303.478.532.838.688.365.157.798.235 1.3.235.421 0 .774-.052 1.058-.156.284-.105.5-.249.647-.434.146-.184.222-.395.227-.632a.899.899 0 00-.22-.582c-.138-.17-.365-.322-.682-.455-.317-.137-.746-.265-1.286-.383l-1.449-.313c-1.287-.28-2.303-.745-3.046-1.399-.739-.658-1.106-1.555-1.101-2.692-.005-.923.241-1.73.738-2.422.502-.696 1.196-1.238 2.081-1.626.89-.388 1.91-.582 3.061-.582 1.175 0 2.19.196 3.047.59.857.392 1.518.946 1.982 1.661.469.71.705 1.541.71 2.493h-3.778zm7.667 10.227c-.55 0-1.02-.192-1.414-.575a1.9 1.9 0 01-.575-1.413 1.852 1.852 0 01.575-1.385 1.952 1.952 0 011.414-.576c.52 0 .98.192 1.377.576.403.383.606.845.611 1.385a1.908 1.908 0 01-.291 1.008 2.141 2.141 0 01-.724.718 1.887 1.887 0 01-.973.262zM85.12 19V4.455h10.483v3.181H89.07v2.5h5.994v3.182H89.07v2.5h6.506V19H85.12zM97.165 7.636V4.455h12.642v3.181h-4.375V19h-3.892V7.636h-4.375zM111.293 19V4.455h3.949v5.681h5.227V4.455h3.949V19h-3.949v-5.682h-5.227V19h-3.949z" fill="#343434"/><path d="M15.465 7.969l-4.674-3.93a.158.158 0 00-.096-.035.157.157 0 00-.097.034.241.241 0 00-.072.096.338.338 0 00-.027.13v3.462c0 .048-.01.094-.027.135a.24.24 0 01-.073.097.156.156 0 01-.1.033.16.16 0 01-.098-.04L5.545 4.04a.158.158 0 00-.097-.035.157.157 0 00-.097.034.241.241 0 00-.071.096.34.34 0 00-.028.13v3.462a.34.34 0 01-.027.135.24.24 0 01-.073.098.156.156 0 01-.1.033.16.16 0 01-.098-.04L.298 4.039A.16.16 0 00.199 4a.156.156 0 00-.099.034.24.24 0 00-.073.097.34.34 0 00-.027.134V15.51c0 .138.026.273.077.393.05.12.122.22.209.29l4.667 3.77c.03.024.063.036.097.036a.157.157 0 00.097-.035.242.242 0 00.072-.096.34.34 0 00.026-.133v-3.313a.34.34 0 01.027-.132.242.242 0 01.072-.096.157.157 0 01.097-.035c.034 0 .068.012.097.035l4.658 3.763c.03.023.063.035.098.035a.158.158 0 00.097-.035.242.242 0 00.071-.096.34.34 0 00.027-.132v-3.313a.34.34 0 01.027-.132.241.241 0 01.071-.097.158.158 0 01.097-.035.16.16 0 01.098.036l4.658 3.762a.16.16 0 00.097.036.157.157 0 00.097-.035.242.242 0 00.072-.097.339.339 0 00.027-.132V8.645a1.03 1.03 0 00-.07-.385.756.756 0 00-.198-.291z" fill="#434EDC"/></svg>