<svg width="32" height="32" fill="none" xmlns="http://www.w3.org/2000/svg"><path d="M30.93 7.938L21.584.078a.315.315 0 00-.194-.07.314.314 0 00-.194.069.482.482 0 00-.143.19.679.679 0 00-.055.263v6.923a.681.681 0 01-.053.268.481.481 0 01-.147.194.312.312 0 01-.198.067.32.32 0 01-.197-.078L11.09.079a.315.315 0 00-.194-.071.314.314 0 00-.194.069.482.482 0 00-.143.19.679.679 0 00-.054.263v6.923a.68.68 0 01-.054.27.481.481 0 01-.147.194.312.312 0 01-.2.067.321.321 0 01-.196-.08L.595.079A.32.32 0 00.4 0a.312.312 0 00-.2.067.481.481 0 00-.146.194A.68.68 0 000 .53v22.493c0 .275.053.546.153.785.1.24.245.44.419.58l9.334 7.541c.059.046.126.07.194.071a.315.315 0 00.195-.07.484.484 0 00.143-.193.683.683 0 00.053-.264v-6.627c0-.092.019-.183.053-.264a.484.484 0 01.143-.192.315.315 0 01.195-.07c.068 0 .135.024.194.07l9.317 7.526c.059.046.126.07.194.07a.314.314 0 00.195-.07.484.484 0 00.143-.192.68.68 0 00.053-.264v-6.627a.68.68 0 01.053-.264.485.485 0 01.143-.192.315.315 0 01.195-.07c.068 0 .135.024.194.07l9.317 7.526c.059.046.126.07.194.07a.315.315 0 00.195-.07.485.485 0 00.143-.192.68.68 0 00.053-.264V9.29a2.06 2.06 0 00-.14-.77 1.511 1.511 0 00-.395-.582z" fill="#fff"/></svg>