<svg width="36" height="34" fill="none" xmlns="http://www.w3.org/2000/svg"><path d="M33.32 1L20.032 11.003 22.501 5.1 33.319 1z" fill="#E17726" stroke="#E17726" stroke-width=".713" stroke-linecap="round" stroke-linejoin="round"/><path d="M2.682 1l13.165 10.097L13.5 5.101 2.682 1zm25.862 23.188l-3.534 5.496 7.562 2.11 2.162-7.485-6.19-.121zm-27.269.122l2.149 7.485 7.562-2.111-3.521-5.496-6.19.121z" fill="#E27625" stroke="#E27625" stroke-width=".713" stroke-linecap="round" stroke-linejoin="round"/><path d="M10.578 14.901l-2.107 3.236 7.497.339-.254-8.19-5.136 4.615zm14.845 0l-5.216-4.71-.174 8.285 7.497-.339-2.107-3.236zM10.994 29.684l4.523-2.234-3.896-3.086-.627 5.32zm9.492-2.234l4.523 2.234-.627-5.32-3.896 3.086z" fill="#E27625" stroke="#E27625" stroke-width=".713" stroke-linecap="round" stroke-linejoin="round"/><path d="M25.009 29.684l-4.523-2.235.36 2.992-.04 1.259 4.203-2.016zm-14.015 0l4.202 2.016-.026-1.259.347-2.992-4.523 2.235z" fill="#D5BFB2" stroke="#D5BFB2" stroke-width=".713" stroke-linecap="round" stroke-linejoin="round"/><path d="M15.271 22.387l-3.761-1.123 2.654-1.232 1.107 2.355zm5.465 0l1.108-2.355 2.667 1.232-3.775 1.123z" fill="#233447" stroke="#233447" stroke-width=".713" stroke-linecap="round" stroke-linejoin="round"/><path d="M10.992 29.684l.653-5.496-4.174.121 3.52 5.375zm13.369-5.496l.653 5.496 3.535-5.375-4.188-.121zm3.169-6.051l-7.497.339.694 3.91 1.107-2.354 2.668 1.232 3.028-3.127zm-16.018 3.127l2.654-1.232 1.108 2.355.694-3.911-7.497-.339 3.041 3.127z" fill="#CC6228" stroke="#CC6228" stroke-width=".713" stroke-linecap="round" stroke-linejoin="round"/><path d="M8.47 18.137l3.149 6.227-.107-3.1-3.041-3.127zm16.034 3.127l-.12 3.1 3.149-6.227-3.029 3.127zm-8.534-2.788l-.695 3.91.88 4.617.187-6.078-.373-2.449zm4.072 0l-.36 2.436.173 6.09.88-4.615-.693-3.91z" fill="#E27525" stroke="#E27525" stroke-width=".713" stroke-linecap="round" stroke-linejoin="round"/><path d="M20.726 22.387l-.88 4.616.64.447 3.895-3.086.12-3.1-3.775 1.123zm-9.216-1.123l.106 3.1 3.896 3.085.64-.446-.88-4.616-3.762-1.123z" fill="#F5841F" stroke="#F5841F" stroke-width=".713" stroke-linecap="round" stroke-linejoin="round"/><path d="M20.811 31.7l.04-1.259-.333-.297h-5.03l-.318.297.026 1.26-4.202-2.017 1.468 1.217 2.988 2.1h5.108l2.988-2.1 1.467-1.217-4.202 2.016z" fill="#C0AC9D" stroke="#C0AC9D" stroke-width=".713" stroke-linecap="round" stroke-linejoin="round"/><path d="M20.487 27.45l-.64-.447h-3.694l-.64.447-.347 2.992.32-.298h5.029l.332.298-.36-2.992z" fill="#161616" stroke="#161616" stroke-width=".713" stroke-linecap="round" stroke-linejoin="round"/><path d="M33.879 11.653l1.12-5.522L33.32 1l-12.833 9.665 4.936 4.236 6.976 2.072 1.534-1.828-.667-.486 1.067-.99-.813-.649 1.067-.825-.707-.542zM1.002 6.13l1.134 5.523-.72.542 1.067.825-.814.65 1.067.989-.667.486 1.534 1.828 6.976-2.072 4.936-4.236L2.682 1l-1.68 5.13z" fill="#763E1A" stroke="#763E1A" stroke-width=".713" stroke-linecap="round" stroke-linejoin="round"/><path d="M32.4 16.973l-6.975-2.072 2.108 3.236-3.148 6.227 4.16-.055h6.19l-2.334-7.336zm-21.828-2.072l-6.975 2.072-2.322 7.336h6.19l4.148.055-3.148-6.227 2.107-3.236zm9.465 3.575l.453-7.81 2.015-5.564h-9.003l2.014 5.564.453 7.81.174 2.463.013 6.064h3.695l.013-6.064.173-2.463z" fill="#F5841F" stroke="#F5841F" stroke-width=".713" stroke-linecap="round" stroke-linejoin="round"/></svg>