<svg width="23" height="32" fill="none" xmlns="http://www.w3.org/2000/svg"><g clip-path="url(#clip0_7_3925)" fill="#00A3FF"><path d="M2.093 14.4l-.247.37c-2.83 4.43-2.215 10.215 1.6 13.907C5.54 30.892 8.493 32 11.446 32L2.093 14.4z"/><path opacity=".6" d="M11.447 19.692l-9.354-5.415L11.447 32V19.692z"/><path opacity=".6" d="M20.8 14.4l.246.37c2.831 4.43 2.216 10.215-1.6 13.907-2.215 2.215-5.046 3.323-8 3.323L20.8 14.4z"/><path opacity=".2" d="M11.446 19.692l9.354-5.415L11.446 32V19.692zm0-11.938v9.23l8.123-4.553-8.123-4.677z"/><path opacity=".6" d="M11.446 7.754L3.323 12.43l8.123 4.554v-9.23z"/><path d="M11.446 0L3.323 12.43l8.123-4.676V0z"/><path opacity=".6" d="M11.446 7.754l8.123 4.677L11.446 0v7.754z"/></g><defs><clipPath id="clip0_7_3925"><path fill="#fff" d="M0 0h22.892v32H0z"/></clipPath></defs></svg>