<svg width="28" height="28" fill="none" xmlns="http://www.w3.org/2000/svg"><g clip-path="url(#clip0_1_7734)" stroke="#434EDC" stroke-width="1.5" stroke-linecap="round" stroke-linejoin="round"><path d="M5.834 8.4A2.567 2.567 0 018.4 5.833h1.166c.678 0 1.328-.268 1.809-.746l.816-.817a2.566 2.566 0 013.64 0l.817.817c.48.478 1.131.746 1.808.746h1.167A2.567 2.567 0 0122.19 8.4v1.167c0 .676.268 1.327.746 1.808l.817.817a2.567 2.567 0 010 3.64l-.817.816a2.566 2.566 0 00-.747 1.809v1.166a2.567 2.567 0 01-2.566 2.567h-1.167c-.678 0-1.328.269-1.808.747l-.817.816a2.566 2.566 0 01-3.64 0l-.816-.816a2.566 2.566 0 00-1.809-.747H8.401a2.567 2.567 0 01-2.567-2.567v-1.166c0-.678-.269-1.328-.747-1.809l-.816-.816a2.567 2.567 0 010-3.64l.816-.817c.478-.48.746-1.13.747-1.808V8.4z"/><path d="M10.5 14l2.333 2.333 4.667-4.666"/></g><defs><clipPath id="clip0_1_7734"><path fill="#fff" d="M0 0h28v28H0z"/></clipPath></defs></svg>