<svg width="16" height="17" fill="none" xmlns="http://www.w3.org/2000/svg"><circle cx="8" cy="8.5" fill="#26A17B" r="8"/><path d="M8.884 9.176c-.056.003-.345.02-.989.02-.514 0-.875-.014-1.003-.02-1.978-.086-3.454-.424-3.454-.83 0-.406 1.477-.746 3.454-.832V8.84c.13.009.5.03 1.012.03.615 0 .922-.025.98-.03V7.515c1.974.088 3.446.426 3.446.832 0 .405-1.473.743-3.446.83zm0-1.798V6.193h2.754V4.386h-7.5v1.807h2.755v1.185c-2.239.101-3.921.538-3.921 1.06 0 .524 1.684.96 3.921 1.063V13.3h1.992V9.5c2.235-.1 3.915-.537 3.915-1.06 0-.522-1.68-.96-3.915-1.06" fill="#fff"/></svg>