<svg width="53" height="54" fill="none" xmlns="http://www.w3.org/2000/svg"><g clip-path="url(#clip0_1_1321)"><path d="M40.894 10.072a1.927 1.927 0 00-.13-.04L8.293 1.68l-.003.01c-1.697-.435-4.353 2.783-6.008 7.33-1.655 4.546-1.689 8.718-.108 9.475l-.002.01 30.243 14.473s.081.037.126.053c2.112.769 5.696-3.747 8.004-10.086 2.304-6.34 2.462-12.102.349-12.872z" fill="#C4C9C8"/><path d="M33.83 14.52c-.142 0-.284-.021-.42-.062l-13.62-4.074a1.472 1.472 0 01.842-2.82l13.618 4.073a1.472 1.472 0 01-.42 2.883z" fill="#fff"/><path d="M34.42 20.715c2.316-6.361 5.215-9.086 5.978-9.098.46.458.93 4.409-1.386 10.769s-5.214 9.087-5.977 9.098c-.462-.456-.93-4.408 1.385-10.769z" fill="#AEB3B2"/><path d="M9.017 11.469c1.439-3.954 1.44-7.584.002-8.107-1.438-.523-3.77 2.258-5.21 6.212-1.439 3.954-1.44 7.583-.002 8.107 1.438.523 3.77-2.258 5.21-6.212z" fill="#D9DDDC"/><path d="M45.492 49.136c-.601-5.868-1.714-12.253-5.822-16.864-1.495-1.687-3.542-2.878-5.647-3.65l-22.76-9.35c-.89-.428-1.5.925-.637 1.328a642.56 642.56 0 0111.1 5.263c.631.292 12.315 5.959 12.434 6.003 6.002 3.355 6.899 10.78 7.165 17.272-4.27.222-7.464 1.101-7.464 2.154 0 1.219 4.284 2.208 9.57 2.208 5.285 0 9.569-.99 9.569-2.208 0-1.056-3.215-1.938-7.508-2.156z" fill="#50A5E6"/><path d="M33.035 31.486c-.46-.458-.93-4.41 1.386-10.77 2.316-6.36 5.214-9.086 5.977-9.098l.496-1.544c-2.113-.769-5.696 3.747-8.004 10.086-2.307 6.34-2.465 12.102-.352 12.87l.497-1.544z" fill="#C4C9C8"/><path d="M35.497 29.849c3.377 1.615 5.422 5.123 6.89 8.443a.501.501 0 01-.47.701.5.5 0 01-.458-.335c-.615-1.697-1.397-3.341-2.389-4.839-.986-1.473-2.204-2.843-3.742-3.643-.208-.103-.042-.438.169-.327z" fill="#BF6952"/></g><defs><clipPath id="clip0_1_1321"><path fill="#fff" transform="translate(0 .5)" d="M0 0h53v53H0z"/></clipPath></defs></svg>