<svg width="53" height="54" fill="none" xmlns="http://www.w3.org/2000/svg"><g clip-path="url(#clip0_1_1336)"><path d="M21.44 21.72L37.498 5.66l10.248 10.25-16.06 16.059L21.44 21.72z" fill="#CCD6DD"/><path d="M11.93 51.143c-8.25-.587-9.722-6.385-9.523-9.52.474-7.465 22.968-24.368 22.968-24.368l18.428 2.842c.001 0-25.6 31.493-31.874 31.046z" fill="#68E090"/><path d="M47.591 5.959c-4.3-4.3-9.16-6.415-10.853-4.72-.02.02-.032.046-.05.065-.009.009-.022.012-.03.02L3.378 34.603a10.94 10.94 0 00-3.224 7.785c0 2.94 1.145 5.705 3.224 7.783a10.94 10.94 0 007.785 3.224 10.932 10.932 0 007.784-3.222l33.278-33.278c.01-.01.013-.024.022-.034.02-.018.044-.03.063-.049 1.695-1.693-.42-6.553-4.72-10.853zM15.827 47.05a6.547 6.547 0 01-4.661 1.93 6.551 6.551 0 01-4.663-1.931 6.55 6.55 0 01-1.932-4.663c0-1.76.687-3.415 1.93-4.66l30.911-30.91c.916 1.684 2.297 3.524 4.047 5.276 1.751 1.75 3.593 3.132 5.277 4.047L15.826 47.05z" fill="#8899A6"/><path d="M42.983 19.85c-.085.559-3.868 1.106-8.379.506-4.509-.6-8.07-1.8-7.954-2.68.118-.878 3.867-1.105 8.378-.505 4.511.601 8.09 1.802 7.955 2.68zM15.959 34.726a1.168 1.168 0 01-1.907-1.276 1.172 1.172 0 011.08-.721 1.17 1.17 0 01.827 1.997zm4.883 3.85a1.912 1.912 0 11-2.737-2.67 1.912 1.912 0 012.737 2.67zm2.469-7.839a1.799 1.799 0 01-2.541-2.54 1.797 1.797 0 112.541 2.54zM13.2 43.778a2.192 2.192 0 11-3.148-3.05 2.192 2.192 0 013.148 3.05zm16.777-13.482a1.557 1.557 0 11-2.202-2.203 1.557 1.557 0 012.202 2.203zM28.2 23.982a1.022 1.022 0 01-1.69-.315 1.022 1.022 0 01.963-1.402 1.02 1.02 0 01.727 1.717z" fill="#17BF63"/><path d="M50.415 13.235c.68-.68-1.026-3.492-3.813-6.278-2.787-2.787-5.598-4.494-6.279-3.813-.68.68 1.027 3.491 3.814 6.278 2.786 2.787 5.597 4.494 6.278 3.813z" fill="#CCD6DD"/></g><defs><clipPath id="clip0_1_1336"><path fill="#fff" transform="translate(0 .5)" d="M0 0h53v53H0z"/></clipPath></defs></svg>