<svg width="53" height="54" fill="none" xmlns="http://www.w3.org/2000/svg"><g clip-path="url(#clip0_1_1305)"><path d="M23.556 51.108a1.472 1.472 0 11-2.945 0v-12.33a1.472 1.472 0 112.945 0v12.33z" fill="#67757F"/><path d="M22.687 43.928c11.28 0 20.424-9.145 20.424-20.424 0-11.28-9.144-20.425-20.424-20.425S2.263 12.223 2.263 23.503s9.144 20.425 20.424 20.425z" fill="#fff"/><path d="M5.288 24.26c.342 9.325 7.99 16.787 17.399 16.787s17.057-7.462 17.399-16.787H5.288z" fill="#50A5E6"/><path d="M44.167 35.833a2.944 2.944 0 01-2.945 2.945H4.417a2.944 2.944 0 110-5.89h36.805a2.944 2.944 0 012.945 2.945z" fill="#67757F"/><path d="M3.86 52.333a1.472 1.472 0 01-2.772-.991L5.97 37.706a1.472 1.472 0 112.772.99L3.86 52.334zm37.92 0a1.473 1.473 0 002.77-.991l-4.944-13.758a1.472 1.472 0 10-2.771.99l4.945 13.759z" fill="#67757F"/><path d="M27.981 3.836S47.641 10.73 49.73 11.4c5.484 1.765 3.215 7.691-.567 6.746-7.483-1.871-21.18-5.989-22.694-5.989-1.514 0 1.513-8.32 1.513-8.32z" fill="#fff"/><path d="M42.694 34.361a1.472 1.472 0 01-1.472 1.472H4.417a1.472 1.472 0 110-2.944h36.805a1.472 1.472 0 011.472 1.472z" fill="#9AAAB4"/><path d="M22.687 26.658c9.609 0 17.399-1.073 17.399-2.398 0-1.324-7.79-2.398-17.4-2.398-9.608 0-17.398 1.074-17.398 2.398 0 1.325 7.79 2.398 17.399 2.398z" fill="#3B94D9"/><path d="M51.507 15.581c.294-1.05-.086-2.074-.849-2.288-.762-.213-1.619.465-1.913 1.515-.293 1.05.087 2.074.85 2.288.762.213 1.618-.465 1.912-1.515z" fill="#AAB8C2"/></g><defs><clipPath id="clip0_1_1305"><path fill="#fff" transform="translate(0 .5)" d="M0 0h53v53H0z"/></clipPath></defs></svg>