<svg width="16" height="17" fill="none" xmlns="http://www.w3.org/2000/svg"><path d="M13.635 14.195A7.85 7.85 0 017.952 16.5a7.692 7.692 0 01-5.64-2.304 7.655 7.655 0 01-2.31-5.65c0-2.299.77-4.214 2.31-5.746A7.701 7.701 0 017.952.502a7.842 7.842 0 015.683 2.297C15.211 4.33 16 6.246 16 8.545a7.589 7.589 0 01-2.364 5.65z" fill="#26A17B"/><path d="M8.963 13.468a.386.386 0 01-.101.25.356.356 0 01-.236.115h-.677a.356.356 0 01-.232-.11.385.385 0 01-.105-.244v-1.042c-1.353-.18-2.027-.972-2.279-2.119 0-.174.088-.351.25-.351h.761c.168 0 .25.088.337.26.168.618.5 1.147 1.603 1.15.844 0 1.435-.439 1.438-1.142.002-.703-.337-.97-1.518-1.149-1.775-.26-2.619-.797-2.616-2.293 0-1.144.849-2.024 2.032-2.196V3.518a.383.383 0 01.104-.242.353.353 0 01.233-.11h.676c.088.006.17.045.233.11.062.065.099.15.104.242v1.058c1.014.177 1.688.795 1.855 1.764 0 .174-.085.352-.25.352h-.671c-.17 0-.25-.089-.337-.26-.167-.618-.59-.884-1.35-.884-.844 0-1.269.438-1.269 1.042 0 .605.25.97 1.518 1.149 1.772.26 2.616.797 2.614 2.293 0 1.144-.847 2.11-2.115 2.373l-.002 1.063z" fill="#fff"/></svg>