<svg width="16" height="17" fill="none" xmlns="http://www.w3.org/2000/svg"><path d="M15.987 8.515a7.99 7.99 0 00-7.974-8 7.983 7.983 0 00-8 7.97 7.99 7.99 0 007.974 8 7.983 7.983 0 008-7.97z" fill="#3574B9"/><path d="M6.706 13.487c0 .18-.117.243-.293.243a5.275 5.275 0 01-2.657-1.994 5.654 5.654 0 01-1.013-3.248 5.652 5.652 0 011.024-3.245A5.273 5.273 0 016.43 3.258c.173-.06.294.061.292.245v.434a.347.347 0 01-.045.178.327.327 0 01-.128.127 4.37 4.37 0 00-2.08 1.655 4.671 4.671 0 00-.792 2.6 4.668 4.668 0 00.782 2.605 4.373 4.373 0 002.073 1.664.326.326 0 01.128.127c.03.054.046.115.045.178l.001.416z" fill="#fff"/><path d="M8.46 11.973a.267.267 0 01-.07.173.246.246 0 01-.163.08H7.76a.246.246 0 01-.16-.077.267.267 0 01-.073-.168v-.721c-.935-.124-1.401-.672-1.576-1.465 0-.12.06-.243.173-.243h.526c.116 0 .173.061.233.18.116.427.346.793 1.109.795.583 0 .992-.303.994-.79.002-.486-.233-.67-1.05-.794-1.227-.18-1.81-.551-1.809-1.586 0-.79.587-1.4 1.405-1.519v-.746a.265.265 0 01.073-.167.244.244 0 01.16-.076h.468a.24.24 0 01.161.076.265.265 0 01.072.167v.732c.701.122 1.167.55 1.283 1.22 0 .12-.059.243-.173.243h-.464c-.117 0-.173-.061-.233-.18-.116-.427-.407-.611-.934-.611-.583 0-.877.303-.877.72 0 .419.173.671 1.05.795 1.225.18 1.809.552 1.807 1.586 0 .79-.585 1.46-1.462 1.641l-.002.736z" fill="#fff"/><path d="M9.275 13.498c0 .182.12.304.292.243a5.28 5.28 0 002.664-1.985 5.66 5.66 0 001.026-3.244c.004-2.434-1.569-4.508-3.67-5.243-.176 0-.293.063-.293.243v.427a.346.346 0 00.045.178.32.32 0 00.128.127c.838.319 1.562.9 2.072 1.664a4.67 4.67 0 01.782 2.605 4.671 4.671 0 01-.793 2.6 4.37 4.37 0 01-2.08 1.655.325.325 0 00-.128.126.343.343 0 00-.045.177v.427z" fill="#fff"/></svg>