<svg width="335" height="555" fill="none" xmlns="http://www.w3.org/2000/svg"><mask id="a" style="mask-type:alpha" maskUnits="userSpaceOnUse" x="0" y="0" width="335" height="555"><path d="M327 0a8 8 0 018 8v531c0 8.837-7.163 16-16 16H16c-8.837 0-16-7.163-16-16V16C0 7.163 7.163 0 16 0h311z" fill="#434EDC"/></mask><g mask="url(#a)" fill="#525DE3"><path d="M362.484 439.029l25.323 22.494-185.93 143.623-25.323-22.495zm-20.257-17.994l13.506 11.997-185.93 143.623-13.506-11.998zM160.711-22.33L186.034.165.104 143.787l-25.323-22.494zm-20.258-17.995l13.506 11.997-185.93 143.622-13.506-11.997z" opacity=".4"/></g></svg>