<svg width="16" height="17" fill="none" xmlns="http://www.w3.org/2000/svg"><path d="M11.428 14.214c0 .63-.875 1.34-2.259 1.6H7.44c-3.1 0-5.612-.716-5.612-1.6 0-.883 2.513-1.6 5.612-1.6 3.1 0 3.988.717 3.988 1.6z" fill="#000"/><path d="M15.543 7.839c0 3.903-3.457 7.747-7.384 7.747-3.927 0-7.93-4.116-7.93-8.019C.229 3.664 3.412.5 7.339.5c3.927 0 8.204 3.436 8.204 7.339z" fill="#F61F7D"/><path fill-rule="evenodd" clip-rule="evenodd" d="M12.791 12.677c1.247-1.333 2.022-3.097 2.022-4.838 0-1.68-.926-3.328-2.376-4.58C10.988 2.008 9.101 1.23 7.34 1.23 3.809 1.23.958 4.072.958 7.567c0 1.712.887 3.542 2.283 4.961 1.395 1.419 3.201 2.328 4.918 2.328 1.723 0 3.386-.846 4.632-2.179zM8.16 15.586c3.927 0 7.384-3.844 7.384-7.747S11.266.5 7.339.5C3.412.5.229 3.664.229 7.567s4.003 8.019 7.93 8.019z" fill="#000"/><path d="M16 8.614a7.2 7.2 0 11-14.4 0 7.2 7.2 0 0114.4 0z" fill="#fff"/><path fill-rule="evenodd" clip-rule="evenodd" d="M8.8 15.082a6.468 6.468 0 100-12.935 6.468 6.468 0 000 12.935zm0 .732a7.2 7.2 0 100-14.4 7.2 7.2 0 000 14.4z" fill="#000"/><path fill-rule="evenodd" clip-rule="evenodd" d="M2.015 7.586L.457 6.334l.499-.577L2.514 7.01l-.499.577z" fill="#000"/><path d="M3.886 7.129h.66l.209 1.997.265-1.993h.517l.278 1.98.213-1.984h.652l-.422 3.428H5.58l-.3-2.07-.282 2.07h-.686L3.886 7.13zm3.39 0h1.582v.516h-.804v.85h.613v.526h-.613v1.024h.813v.512h-1.59V7.13zm2.483.562h-.54V7.13h1.857v.563h-.535v2.865h-.782V7.691zm1.852-.562h.778v1.388h.543V7.129h.782v3.428h-.782V9.06h-.543v1.498h-.778V7.13z" fill="#000"/></svg>