<svg width="394" height="396" fill="none" xmlns="http://www.w3.org/2000/svg"><path d="M393.484 203.463l-15.241-.648 1.982-1.864-.546 12.861-3.822-.163.647-15.24 17.163.729-.183 4.325zm-19.402 23.092l4.775.106 1.681.866 1.833-.361 4.635 1.243-.628 4.376-6.348-1.721-6.575-.134.627-4.375zm6.312 1.97c-1.343-.424-2.482-1.027-3.419-1.81-.922-.78-1.6-1.695-2.036-2.745-.42-1.047-.544-2.176-.37-3.385.182-1.27.63-2.347 1.343-3.232a6.147 6.147 0 012.702-1.903c1.106-.396 2.339-.497 3.7-.302 1.36.195 2.508.638 3.442 1.327.95.692 1.644 1.555 2.081 2.589.436 1.05.563 2.21.381 3.48-.174 1.209-.617 2.256-1.33 3.141-.699.887-1.599 1.575-2.703 2.065-1.106.504-2.37.763-3.791.775zm1.308-9.115c-.695-.099-1.335-.045-1.921.164-.57.212-1.05.544-1.439.997-.376.471-.611 1.039-.707 1.704a4.111 4.111 0 00.184 1.947c.23.65.578 1.239 1.042 1.769.479.531 1.05.96 1.712 1.287a5.372 5.372 0 001.983-.757 4.966 4.966 0 001.498-1.405c.402-.544.65-1.148.746-1.813.095-.665.021-1.278-.223-1.837a3.215 3.215 0 00-1.1-1.361c-.488-.363-1.08-.595-1.775-.695zm-8.132 29.209c-.95-.23-1.69-.709-2.221-1.435-.52-.707-.821-1.636-.903-2.788-.082-1.151.062-2.491.433-4.019.378-1.558.902-2.877 1.573-3.955.67-1.079 1.433-1.86 2.289-2.344.856-.484 1.749-.636 2.68-.457l-1.021 4.207c-.392-.001-.769.127-1.13.385-.365.273-.687.659-.965 1.157-.263.502-.483 1.116-.659 1.843-.238.98-.314 1.747-.228 2.302.085.555.335.883.751.983.311.076.594-.052.847-.383.25-.317.525-.933.826-1.85l.74-2.272c.471-1.425.982-2.527 1.532-3.305.565-.774 1.167-1.28 1.807-1.518a3.414 3.414 0 011.977-.086c.934.227 1.636.704 2.104 1.43.479.745.748 1.674.808 2.789.074 1.118-.058 2.374-.396 3.769s-.825 2.589-1.458 3.582c-.638 1.008-1.362 1.759-2.174 2.254-.815.509-1.671.702-2.568.579l1.021-4.207c.311.013.625-.084.942-.29.314-.191.604-.513.871-.967.279-.435.512-1.039.699-1.81.212-.876.278-1.567.197-2.074-.082-.507-.308-.805-.679-.895-.282-.069-.546.017-.792.255-.232.243-.473.75-.723 1.522l-.952 2.951c-.464 1.396-.964 2.453-1.5 3.171-.524.737-1.095 1.211-1.712 1.423-.617.212-1.289.229-2.016.053zm-7.485 7.99c.509-1.472 1.24-2.698 2.192-3.678.947-.965 2.026-1.61 3.237-1.935 1.211-.324 2.473-.26 3.786.194 1.285.444 2.301 1.15 3.049 2.119.747.969 1.203 2.104 1.368 3.405.159 1.315-.005 2.68-.494 4.095-.499 1.443-1.245 2.574-2.239 3.394-.994.82-2.166 1.312-3.515 1.476-1.349.164-2.803-.024-4.362-.562l3.845-11.128 2.533.875-3.082 8.92-.408-1.765c.693.191 1.321.222 1.882.093a2.908 2.908 0 001.464-.73c.42-.372.739-.876.958-1.511.24-.693.31-1.339.21-1.939-.1-.6-.345-1.129-.736-1.587-.396-.444-.919-.778-1.568-1.002-.823-.284-1.585-.346-2.287-.184-.707.175-1.332.557-1.874 1.145-.548.603-.996 1.409-1.345 2.42a11.338 11.338 0 00-.589 2.898 9.993 9.993 0 00.222 2.863l-2.62-.905c-.288-1.036-.403-2.151-.347-3.343.052-1.177.292-2.387.72-3.628zm9.509 13.094l-1.722 3.947-4.615-1.163-7.663-3.343 1.703-3.905 7.999 3.489 4.298.975zm-4.356 10.445l-3.359-1.466a11.716 11.716 0 001.186-2.031 4.302 4.302 0 00.376-2.01c-.033-.648-.274-1.261-.721-1.839-.454-.564-1.15-1.051-2.087-1.46l1.304-.356c.811.471 1.546.983 2.204 1.536a7.73 7.73 0 011.591 1.794c.417.648.668 1.333.754 2.053.08.734-.061 1.515-.421 2.34a7.982 7.982 0 01-.372.738 6.779 6.779 0 01-.455.701zm-2.763 1.039c1.122.718 1.918 1.649 2.388 2.794.484 1.152.646 2.416.486 3.79-.153 1.395-.622 2.81-1.406 4.243-.748 1.367-1.607 2.446-2.579 3.237-.972.791-1.991 1.269-3.056 1.435-1.066.166-2.087-.018-3.065-.553a4.57 4.57 0 01-1.801-1.768c-.423-.754-.718-1.742-.885-2.964-.167-1.223-.224-2.742-.171-4.557l.094-5.614 1.094.337-5.978 10.933-3.014-1.649 8.044-14.71 2.653 1.45.179 8.504c.025 1.354.088 2.433.189 3.236.106.824.274 1.456.504 1.895.23.439.552.772.968.999.428.234.876.322 1.343.264.459-.044.911-.25 1.355-.616.444-.366.86-.905 1.249-1.615.461-.844.715-1.61.761-2.299.059-.681-.046-1.269-.315-1.764a3.524 3.524 0 00-1.103-1.229l2.066-3.779zm-23.068 26.799a3.24 3.24 0 011.302-1.058 2.992 2.992 0 011.588-.217c.556.071 1.067.28 1.533.627a3.14 3.14 0 011.04 1.288c.228.512.31 1.04.248 1.584a3.247 3.247 0 01-.64 1.55 3.13 3.13 0 01-1.288 1.04 3.041 3.041 0 01-1.57.231c-.553-.05-1.075-.257-1.565-.622a3.09 3.09 0 01-1.026-1.307 2.995 2.995 0 01-.249-1.584 3.129 3.129 0 01.627-1.532zm-6.051 25.472l-10.942-10.629 2.72-.072-8.969 9.234-2.743-2.665 10.628-10.943 12.323 11.97-3.017 3.105zm-29.609 4.089l3.499 3.251.681 1.764 1.611.948 2.638 4.008-3.376 2.854-3.602-5.503-4.827-4.468 3.376-2.854zm3.41 5.666c-.722-1.209-1.173-2.417-1.354-3.624-.171-1.196-.07-2.33.302-3.404.381-1.063 1.038-1.988 1.971-2.777.98-.828 2.03-1.336 3.151-1.524a6.147 6.147 0 013.284.373c1.09.438 2.079 1.182 2.966 2.231.888 1.05 1.452 2.143 1.692 3.279.251 1.148.196 2.254-.164 3.318-.372 1.074-1.047 2.025-2.027 2.853-.933.789-1.96 1.277-3.081 1.465-1.111.199-2.241.115-3.392-.252-1.162-.357-2.278-1.004-3.348-1.938zm7.032-5.945c-.454-.536-.969-.921-1.545-1.153a3.442 3.442 0 00-1.738-.211c-.593.102-1.147.37-1.66.804a4.112 4.112 0 00-1.156 1.577 5.419 5.419 0 00-.396 2.015c.005.715.147 1.415.425 2.099.629.389 1.29.639 1.985.752a4.969 4.969 0 002.053-.056 3.945 3.945 0 001.762-.86c.513-.433.864-.94 1.054-1.52a3.225 3.225 0 00.081-1.749c-.123-.595-.412-1.161-.865-1.698zm-25.922 16.689c-.554-.805-.788-1.655-.7-2.55.084-.874.479-1.767 1.186-2.68.706-.913 1.706-1.816 3.001-2.708 1.321-.91 2.59-1.543 3.809-1.901 1.218-.357 2.308-.431 3.268-.222.961.21 1.728.692 2.303 1.446l-3.565 2.456c-.292-.263-.658-.418-1.099-.466-.454-.04-.951.033-1.49.219-.531.199-1.104.511-1.72.935-.83.572-1.398 1.093-1.704 1.564-.307.47-.339.882-.096 1.234.182.264.478.357.887.279.398-.07 1.014-.346 1.849-.829l2.066-1.201c1.301-.748 2.416-1.229 3.345-1.442.937-.201 1.723-.177 2.358.071a3.427 3.427 0 011.532 1.254c.545.792.751 1.615.615 2.468-.139.875-.557 1.748-1.256 2.618-.689.883-1.625 1.732-2.807 2.546-1.182.815-2.34 1.381-3.475 1.699-1.147.327-2.187.404-3.122.232-.947-.163-1.714-.59-2.3-1.28l3.564-2.456c.224.217.523.354.896.412.361.066.793.02 1.294-.141.498-.138 1.074-.433 1.727-.884.742-.511 1.252-.982 1.529-1.414.277-.432.307-.806.091-1.12-.165-.239-.419-.352-.761-.338-.335.026-.852.244-1.553.653l-2.677 1.566c-1.276.731-2.353 1.186-3.232 1.364-.882.2-1.623.173-2.224-.08-.602-.253-1.114-.688-1.539-1.304zm-10.565.789c1.359-.762 2.719-1.193 4.082-1.292 1.349-.092 2.584.142 3.705.704 1.12.562 2.021 1.448 2.701 2.66.665 1.185.955 2.388.87 3.609-.085 1.221-.498 2.373-1.24 3.454-.754 1.089-1.784 2-3.089 2.732-1.331.748-2.641 1.097-3.929 1.05-1.287-.048-2.49-.459-3.607-1.233-1.117-.773-2.079-1.879-2.886-3.317l10.266-5.763 1.312 2.337-8.23 4.619.868-1.59c.391.603.839 1.043 1.345 1.32.5.297 1.026.44 1.579.427.561 0 1.134-.164 1.72-.493.639-.358 1.121-.795 1.445-1.31a3.207 3.207 0 00.504-1.675c-.001-.595-.17-1.192-.506-1.791-.426-.759-.955-1.311-1.587-1.657-.645-.338-1.366-.468-2.162-.389-.809.087-1.68.392-2.612.915a11.36 11.36 0 00-2.366 1.775 10.018 10.018 0 00-1.737 2.288l-1.356-2.417c.473-.966 1.127-1.876 1.961-2.73.821-.846 1.804-1.59 2.949-2.233zm-1.698 16.149l-3.907 1.81-2.68-3.934-3.513-7.586 3.866-1.79 3.667 7.918 2.567 3.582zm-10.19 4.921l-1.54-3.325a11.587 11.587 0 002.235-.733c.665-.308 1.204-.725 1.616-1.253.405-.507.632-1.125.681-1.855.035-.723-.162-1.548-.592-2.477l1.212.6c.294.89.504 1.761.628 2.612.125.851.125 1.65 0 2.398a4.797 4.797 0 01-.799 2.036c-.427.602-1.05 1.092-1.868 1.47a7.565 7.565 0 01-1.573.527zm-2.628-1.121c.362 1.281.338 2.506-.071 3.674-.403 1.183-1.121 2.235-2.154 3.156-1.042.941-2.332 1.687-3.87 2.238-1.466.525-2.825.76-4.077.706-1.252-.054-2.332-.373-3.238-.957-.907-.583-1.548-1.4-1.924-2.449a4.572 4.572 0 01-.172-2.518c.184-.844.62-1.779 1.307-2.804.688-1.024 1.654-2.198 2.9-3.52l3.799-4.134.594.979-11.731 4.202-1.158-3.234 15.784-5.654 1.02 2.846-5.515 6.476c-.88 1.029-1.55 1.877-2.008 2.545-.468.686-.762 1.27-.881 1.751-.12.48-.1.944.059 1.389.165.46.441.824.829 1.09.373.272.847.419 1.422.44.575.021 1.244-.105 2.006-.378.906-.324 1.604-.729 2.096-1.213.496-.47.809-.979.937-1.528a3.53 3.53 0 00-.008-1.651l4.054-1.452zm-35.075 4.703a3.268 3.268 0 011.676.075 3 3 0 011.331.894c.368.423.61.919.728 1.487.12.583.094 1.135-.08 1.654-.17.534-.459.983-.867 1.348a3.256 3.256 0 01-1.509.733 3.135 3.135 0 01-1.654-.079 3.04 3.04 0 01-1.326-.872c-.38-.405-.632-.906-.755-1.505a3.07 3.07 0 01.102-1.658c.17-.534.459-.984.867-1.348a3.141 3.141 0 011.487-.729zm-21.489 14.98l-1.117-15.213 2.081 1.753-12.838.943-.28-3.815 15.214-1.117 1.257 17.132-4.317.317zm-25.541-16.671l.444 4.755-.666 1.769.57 1.78-.701 4.747-4.419-.12.978-6.503-.625-6.547 4.419.119zm-1.23 6.497c.267-1.383.735-2.585 1.404-3.605.668-1.006 1.499-1.785 2.492-2.339.992-.538 2.099-.791 3.32-.758 1.282.035 2.404.355 3.365.962a6.149 6.149 0 012.202 2.465c.521 1.053.763 2.266.726 3.64-.037 1.374-.344 2.565-.921 3.572-.578 1.024-1.355 1.812-2.333 2.366-.992.554-2.13.813-3.412.779-1.221-.033-2.312-.353-3.273-.959-.962-.592-1.75-1.407-2.363-2.447-.629-1.041-1.031-2.266-1.207-3.676zm9.205.249c.019-.702-.11-1.332-.385-1.89a3.431 3.431 0 00-1.156-1.314c-.51-.319-1.102-.488-1.773-.506a4.113 4.113 0 00-1.913.406 5.417 5.417 0 00-1.637 1.239 5.626 5.626 0 00-1.081 1.85c.21.708.536 1.336.98 1.882a4.969 4.969 0 001.568 1.326 3.947 3.947 0 001.887.532c.672.018 1.272-.126 1.799-.432a3.223 3.223 0 001.225-1.25c.305-.527.467-1.141.486-1.843zm-30.403-4.865c.124-.969.518-1.758 1.18-2.366.646-.594 1.536-.996 2.671-1.205 1.135-.209 2.483-.214 4.043-.015 1.591.204 2.959.579 4.105 1.126 1.146.546 2.007 1.218 2.583 2.015.575.798.825 1.669.751 2.613l-4.294-.549c-.043-.39-.212-.75-.509-1.081-.311-.332-.73-.609-1.256-.83-.528-.206-1.163-.356-1.905-.451-1-.128-1.77-.119-2.313.027-.542.147-.84.432-.894.856-.041.318.118.585.475.8.342.213.986.418 1.93.616l2.34.484c1.469.311 2.62.696 3.454 1.157.832.476 1.402 1.018 1.709 1.627.291.607.393 1.259.304 1.956-.122.954-.518 1.704-1.188 2.249-.688.559-1.582.929-2.683 1.112-1.102.198-2.366.205-3.789.023-1.424-.182-2.665-.533-3.722-1.053-1.072-.522-1.899-1.158-2.481-1.91-.596-.754-.882-1.583-.859-2.488l4.294.549c.022.31.153.612.392.904.225.291.577.543 1.058.759.463.228 1.089.393 1.876.494.894.114 1.588.103 2.083-.034.495-.137.766-.395.815-.774.036-.287-.077-.54-.342-.759-.267-.203-.797-.387-1.592-.55l-3.038-.619c-1.439-.307-2.545-.687-3.318-1.14-.791-.44-1.325-.955-1.604-1.545-.279-.589-.371-1.255-.276-1.998zm-8.362-6.466c1.521.339 2.821.926 3.903 1.761 1.066.831 1.829 1.83 2.289 2.997.46 1.166.539 2.427.237 3.783-.295 1.327-.882 2.416-1.76 3.269-.878.853-1.954 1.435-3.227 1.746-1.289.307-2.664.298-4.124-.027-1.491-.331-2.7-.945-3.627-1.839-.927-.895-1.549-2.003-1.865-3.325-.316-1.322-.294-2.788.064-4.397l11.492 2.557-.583 2.616-9.211-2.05 1.707-.606c-.111.711-.071 1.338.121 1.881.174.555.471 1.012.892 1.372.417.374.953.634 1.609.78.716.16 1.366.156 1.95-.011a3.208 3.208 0 001.494-.912c.396-.443.669-1.001.818-1.671.189-.85.163-1.614-.076-2.293-.255-.683-.706-1.26-1.351-1.732-.661-.476-1.513-.83-2.556-1.062a11.398 11.398 0 00-2.947-.257 10.04 10.04 0 00-2.82.546l.602-2.706c.998-.403 2.092-.645 3.283-.724 1.176-.082 2.404.019 3.686.304zm-12.073 10.885l-4.116-1.267.638-4.717 2.46-7.99 4.072 1.254-2.568 8.34-.486 4.38zm-10.868-3.154l1.078-3.503a11.621 11.621 0 002.152.95c.701.216 1.381.266 2.04.149.64-.106 1.222-.415 1.746-.924.51-.514.915-1.26 1.216-2.238l.5 1.257a15.48 15.48 0 01-1.278 2.362 7.724 7.724 0 01-1.604 1.783 4.809 4.809 0 01-1.955.98c-.721.161-1.512.109-2.373-.156a7.903 7.903 0 01-.774-.286 6.773 6.773 0 01-.748-.374zm-1.131-2.579c-.584 1.196-1.418 2.094-2.501 2.693-1.089.613-2.325.919-3.709.918-1.404.008-2.863-.295-4.377-.909-1.443-.585-2.614-1.315-3.511-2.19-.898-.875-1.49-1.832-1.777-2.871-.288-1.039-.222-2.075.197-3.108a4.56 4.56 0 011.549-1.992c.7-.507 1.648-.914 2.843-1.22 1.195-.306 2.698-.537 4.507-.693l5.588-.553-.21 1.127-11.547-4.682 1.291-3.184 15.538 6.3-1.136 2.801-8.427 1.156c-1.343.181-2.407.367-3.193.559-.806.201-1.414.44-1.824.719a2.359 2.359 0 00-.881 1.076c-.184.453-.22.908-.109 1.365.098.451.354.877.769 1.275.415.399.997.751 1.747 1.055.891.361 1.682.525 2.371.492.684-.02 1.256-.191 1.717-.515a3.55 3.55 0 001.094-1.237l3.991 1.618zm-29.249-19.896c.515.299.914.69 1.199 1.173.271.475.403.993.395 1.554a3.207 3.207 0 01-.449 1.593 3.134 3.134 0 01-1.161 1.18 3.002 3.002 0 01-1.546.426 3.253 3.253 0 01-1.613-.46 3.13 3.13 0 01-1.18-1.162 3.043 3.043 0 01-.406-1.534c-.014-.555.133-1.097.44-1.625a3.09 3.09 0 011.182-1.168 3.001 3.001 0 011.545-.426c.548 0 1.079.15 1.594.449zm-25.96-3.151l9.329-12.069.377 2.695-10.184-7.873 2.34-3.026 12.069 9.33-10.507 13.591-3.425-2.648zm-7.349-28.937l-2.837 3.842-1.676.875-.76 1.707-3.686 3.072-3.216-3.033 5.063-4.198 3.897-5.298 3.215 3.033zm-5.246 4.025c1.12-.853 2.27-1.438 3.449-1.753 1.168-.304 2.307-.331 3.416-.083 1.099.26 2.092.809 2.981 1.647.933.88 1.556 1.867 1.868 2.96a6.143 6.143 0 010 3.305c-.314 1.133-.941 2.199-1.885 3.198-.943 1-1.965 1.683-3.067 2.05-1.113.378-2.218.448-3.316.21-1.109-.249-2.13-.813-3.063-1.694-.888-.838-1.489-1.803-1.801-2.896-.323-1.082-.367-2.215-.132-3.399.225-1.195.741-2.376 1.55-3.545zm6.697 6.319c.482-.511.806-1.066.973-1.665.156-.588.16-1.171.014-1.75-.168-.578-.497-1.098-.985-1.559a4.115 4.115 0 00-1.698-.972 5.412 5.412 0 00-2.046-.167c-.71.085-1.39.305-2.039.659a5.378 5.378 0 00-.523 2.057 4.965 4.965 0 00.286 2.033 3.949 3.949 0 001.053 1.654c.488.461 1.031.753 1.63.876a3.217 3.217 0 001.746-.115c.577-.19 1.107-.54 1.59-1.051zm-19.461-23.847c.737-.642 1.555-.969 2.455-.983.877-.015 1.81.277 2.797.875.986.599 1.996 1.491 3.029 2.678 1.053 1.209 1.825 2.399 2.318 3.569.493 1.171.689 2.245.589 3.223-.1.978-.492 1.795-1.176 2.451l-2.843-3.265c.228-.319.341-.701.34-1.145-.013-.456-.141-.941-.387-1.456-.258-.504-.632-1.039-1.123-1.603-.662-.76-1.244-1.266-1.746-1.517-.502-.251-.914-.237-1.237.044-.242.211-.3.515-.177.913.114.387.458.968 1.032 1.744l1.426 1.917c.89 1.209 1.494 2.262 1.811 3.161.305.909.37 1.692.195 2.351a3.414 3.414 0 01-1.073 1.663c-.726.632-1.52.929-2.383.89-.885-.039-1.8-.357-2.743-.952-.955-.586-1.904-1.42-2.847-2.502-.942-1.083-1.635-2.17-2.08-3.261-.454-1.103-.648-2.129-.582-3.077.055-.959.393-1.769 1.012-2.43l2.843 3.265c-.19.247-.293.559-.309.937-.025.366.07.789.286 1.27.194.478.552 1.017 1.073 1.616.592.68 1.118 1.133 1.578 1.359.46.227.835.215 1.123-.036.219-.19.302-.455.25-.794-.064-.329-.339-.819-.824-1.469l-1.858-2.483c-.87-1.186-1.443-2.205-1.72-3.057-.298-.854-.355-1.594-.171-2.22.184-.626.558-1.185 1.122-1.676zm-1.971-10.406c.911 1.262 1.494 2.565 1.747 3.908.245 1.33.152 2.583-.28 3.761-.43 1.177-1.209 2.172-2.335 2.985-1.102.796-2.265 1.221-3.487 1.275-1.223.054-2.414-.226-3.573-.84-1.167-.626-2.189-1.546-3.065-2.759-.893-1.238-1.39-2.5-1.488-3.784-.099-1.285.173-2.526.815-3.724.642-1.198 1.631-2.279 2.968-3.245l6.89 9.546-2.172 1.569-5.523-7.652 1.678.681c-.555.458-.941.953-1.159 1.487a2.903 2.903 0 00-.245 1.617c.063.557.291 1.108.685 1.653.429.594.917 1.023 1.465 1.287a3.208 3.208 0 001.722.31c.59-.068 1.165-.304 1.722-.706.706-.509 1.194-1.097 1.466-1.764.263-.68.31-1.41.14-2.192-.177-.795-.579-1.625-1.204-2.492a11.377 11.377 0 00-2.032-2.149 10.044 10.044 0 00-2.47-1.466l2.247-1.622c1.014.361 1.992.907 2.934 1.639.934.72 1.785 1.612 2.554 2.677zm-16.313.034l-2.23-3.683 3.612-3.099 7.15-4.331 2.208 3.644-7.464 4.521-3.276 2.948zm-6.019-9.583l3.135-1.899a11.583 11.583 0 00.975 2.141c.38.627.855 1.116 1.424 1.467.55.346 1.189.503 1.92.471.722-.045 1.52-.332 2.396-.862l-.462 1.27c-.852.392-1.694.696-2.526.914a7.703 7.703 0 01-2.384.266 4.812 4.812 0 01-2.111-.569c-.646-.358-1.202-.923-1.67-1.694a7.91 7.91 0 01-.387-.729 6.594 6.594 0 01-.31-.776zm.962-2.464c-1.23.507-2.45.625-3.658.354-1.221-.264-2.349-.856-3.383-1.775-1.055-.926-1.945-2.121-2.67-3.586-.69-1.395-1.082-2.718-1.172-3.968-.091-1.25.101-2.359.576-3.327s1.212-1.699 2.211-2.194a4.563 4.563 0 012.48-.461c.861.085 1.84.41 2.937.974 1.097.565 2.374 1.389 3.831 2.474l4.546 3.296-.905.703-5.528-11.167 3.08-1.524 7.438 15.026-2.71 1.341-7.07-4.73c-1.123-.755-2.043-1.322-2.758-1.701-.736-.385-1.35-.609-1.841-.673-.492-.063-.95.01-1.374.22a2.178 2.178 0 00-.987.949c-.227.402-.318.89-.272 1.464.045.573.248 1.223.607 1.948.427.862.909 1.51 1.447 1.942.524.439 1.066.691 1.625.754a3.53 3.53 0 001.64-.198l1.91 3.859zm-8.72-34.369c.187.565.225 1.123.117 1.673a2.995 2.995 0 01-.738 1.424 3.209 3.209 0 01-1.394.892 3.126 3.126 0 01-1.652.109 2.989 2.989 0 01-1.438-.708 3.267 3.267 0 01-.9-1.416 3.134 3.134 0 01-.109-1.652 3.044 3.044 0 01.716-1.417c.359-.423.829-.73 1.409-.921a3.086 3.086 0 011.659-.087c.55.108 1.03.344 1.438.708.41.364.707.829.893 1.395zM2.28 236.462l14.996-2.801-1.512 2.263-2.363-12.654 3.76-.702 2.8 14.995-16.886 3.154-.795-4.255zm13.734-26.677l-4.676.973-1.833-.465-1.704.766-4.796-.167-.375-4.405 6.573.246 6.436-1.352.375 4.404zm-6.594-.496c1.404.11 2.65.441 3.74.992 1.073.552 1.94 1.291 2.601 2.215.646.926 1.02 1.998 1.125 3.215.108 1.278-.085 2.428-.58 3.451a6.149 6.149 0 01-2.205 2.464c-.988.635-2.166 1.011-3.536 1.128-1.369.116-2.587-.056-3.653-.517-1.08-.46-1.951-1.144-2.611-2.054-.661-.924-1.046-2.026-1.155-3.304-.103-1.217.093-2.337.588-3.36.48-1.021 1.203-1.895 2.168-2.621.964-.741 2.136-1.277 3.518-1.609zm.78 9.174c.7-.059 1.312-.257 1.835-.593.508-.334.9-.766 1.177-1.295.26-.543.362-1.15.305-1.819a4.107 4.107 0 00-.617-1.855 5.397 5.397 0 00-1.414-1.489 5.633 5.633 0 00-1.96-.868 5.38 5.38 0 00-1.76 1.184 4.967 4.967 0 00-1.143 1.706 3.953 3.953 0 00-.318 1.935c.057.67.267 1.25.63 1.74.348.476.808.835 1.38 1.078.557.244 1.185.336 1.885.276zm1.376-31.347c.978.015 1.805.318 2.483.909.663.575 1.162 1.415 1.496 2.52.334 1.104.49 2.443.465 4.016-.025 1.603-.245 3.004-.66 4.204-.416 1.2-.988 2.131-1.716 2.791-.728.661-1.565 1.007-2.513 1.038l.067-4.328c.383-.086.722-.294 1.018-.626.295-.347.524-.794.685-1.341.146-.547.224-1.195.236-1.943.015-1.008-.08-1.773-.285-2.295-.206-.523-.523-.787-.95-.794-.32-.005-.568.182-.742.561-.174.364-.306 1.026-.397 1.987l-.22 2.379c-.145 1.494-.4 2.682-.765 3.562-.38.88-.856 1.506-1.427 1.879a3.414 3.414 0 01-1.909.52c-.962-.015-1.751-.324-2.368-.93-.632-.62-1.1-1.467-1.404-2.541-.32-1.074-.468-2.329-.446-3.764.022-1.435.233-2.707.632-3.816.399-1.123.94-2.016 1.622-2.678.682-.676 1.475-1.053 2.377-1.131l-.067 4.328c-.306.057-.591.22-.855.491-.264.256-.476.634-.636 1.136-.176.486-.27 1.126-.282 1.919-.014.901.075 1.59.266 2.066.191.477.478.718.86.724.29.004.528-.137.716-.425.172-.287.295-.835.369-1.643l.277-3.088c.145-1.464.399-2.606.763-3.425.349-.834.8-1.423 1.356-1.766.555-.342 1.206-.508 1.954-.496zm5.426-8.757c-.162 1.549-.595 2.908-1.301 4.078-.704 1.155-1.609 2.027-2.715 2.618-1.105.591-2.35.814-3.731.67-1.352-.142-2.502-.6-3.45-1.374-.947-.775-1.648-1.777-2.103-3.006-.454-1.245-.603-2.612-.447-4.1.159-1.519.63-2.79 1.412-3.814.782-1.023 1.812-1.768 3.089-2.233 1.276-.466 2.735-.613 4.375-.441l-1.223 11.709-2.665-.279.98-9.385.797 1.626c-.718-.029-1.336.083-1.854.336a2.903 2.903 0 00-1.26 1.043c-.325.457-.522 1.02-.591 1.688-.076.729.002 1.375.235 1.936a3.205 3.205 0 001.076 1.379c.487.343 1.071.55 1.755.621.866.091 1.622-.022 2.27-.338.648-.332 1.17-.845 1.565-1.541.397-.711.65-1.598.761-2.661.102-.972.075-1.957-.082-2.956a10.032 10.032 0 00-.865-2.739l2.756.288c.515.944.88 2.003 1.096 3.177.216 1.159.257 2.391.12 3.698zM4.806 167.436l.79-4.233 4.759.096 8.218 1.535-.782 4.188-8.579-1.602-4.406.016zm1.897-11.157l3.602.673a11.658 11.658 0 00-.699 2.246c-.134.721-.106 1.402.085 2.043.178.624.55 1.167 1.116 1.63.57.448 1.357.766 2.362.954l-1.191.64a15.51 15.51 0 01-2.493-1.002 7.707 7.707 0 01-1.954-1.39 4.814 4.814 0 01-1.195-1.831c-.243-.698-.281-1.49-.116-2.375.048-.255.113-.523.196-.802.084-.28.18-.542.287-.786zm2.386-1.392c-1.255-.446-2.24-1.173-2.958-2.182-.732-1.013-1.176-2.206-1.33-3.581-.167-1.394-.03-2.878.41-4.452.418-1.5 1.012-2.745 1.78-3.736.768-.99 1.652-1.687 2.652-2.089 1-.403 2.037-.454 3.11-.154a4.568 4.568 0 012.154 1.314c.583.638 1.094 1.534 1.533 2.687.44 1.153.838 2.62 1.197 4.401l1.179 5.489-1.143-.081 3.35-12.001 3.31.923-4.508 16.149-2.912-.813-2.099-8.243c-.33-1.313-.636-2.349-.915-3.109-.29-.778-.597-1.355-.92-1.731a2.346 2.346 0 00-1.169-.754 2.175 2.175 0 00-1.368.046c-.438.147-.831.45-1.18.907-.35.457-.634 1.075-.852 1.855-.258.927-.332 1.73-.22 2.411.096.677.33 1.226.704 1.648.374.421.825.737 1.353.948l-1.158 4.148zm16.569-31.7c-.24.545-.584.986-1.033 1.322a2.994 2.994 0 01-1.5.565 3.209 3.209 0 01-1.634-.269 3.136 3.136 0 01-1.3-1.024 2.998 2.998 0 01-.596-1.489 3.258 3.258 0 01.278-1.654c.24-.545.582-.979 1.024-1.301a3.042 3.042 0 011.48-.575c.55-.074 1.104.012 1.663.258a3.08 3.08 0 011.292 1.045c.336.448.535.945.595 1.489a3.13 3.13 0 01-.269 1.633zm.269-26.283l13.018 7.951-2.637.671 6.71-10.986 3.264 1.994-7.951 13.018-14.66-8.954 2.256-3.694zm27.382-9.784l-4.137-2.387-1.058-1.567-1.782-.563-3.468-3.316 2.652-3.537 4.742 4.558 5.703 3.275-2.652 3.537zm-4.59-4.76c.974 1.017 1.684 2.094 2.13 3.23.433 1.127.589 2.255.467 3.385-.135 1.12-.568 2.17-1.301 3.147-.77 1.026-1.68 1.756-2.73 2.19a6.144 6.144 0 01-3.285.371c-1.16-.183-2.29-.687-3.39-1.512-1.1-.824-1.893-1.763-2.382-2.817-.5-1.063-.695-2.153-.582-3.27.122-1.13.568-2.209 1.338-3.235.733-.977 1.625-1.683 2.675-2.116 1.038-.443 2.16-.614 3.363-.513 1.212.088 2.444.468 3.696 1.14zm-5.525 7.367c.562.42 1.15.68 1.764.778a3.437 3.437 0 001.74-.183c.556-.232 1.035-.617 1.439-1.154a4.109 4.109 0 00.774-1.796 5.407 5.407 0 00-.064-2.052 5.63 5.63 0 00-.885-1.952 5.38 5.38 0 00-2.102-.288 4.964 4.964 0 00-1.988.513 3.95 3.95 0 00-1.526 1.232c-.403.537-.632 1.11-.687 1.718a3.22 3.22 0 00.312 1.722c.253.553.66 1.04 1.223 1.462zM64.697 67.61c.72.66 1.138 1.437 1.252 2.329.114.87-.071 1.83-.555 2.877-.484 1.048-1.257 2.152-2.32 3.311-1.083 1.182-2.178 2.084-3.286 2.705s-2.153.937-3.136.948c-.983.01-1.84-.288-2.568-.894l2.925-3.191c.343.19.735.26 1.176.208.451-.063.919-.246 1.403-.548.472-.312.962-.744 1.467-1.296.68-.743 1.118-1.378 1.311-1.905.193-.527.132-.935-.183-1.224-.236-.217-.545-.241-.927-.073-.372.157-.91.564-1.617 1.221l-1.744 1.633c-1.101 1.02-2.08 1.739-2.938 2.154-.868.406-1.64.558-2.314.458a3.419 3.419 0 01-1.773-.879c-.71-.65-1.094-1.406-1.153-2.268-.06-.884.153-1.828.639-2.832.474-1.015 1.196-2.052 2.166-3.11.97-1.058 1.972-1.87 3.006-2.433 1.045-.576 2.042-.884 2.991-.925.96-.053 1.803.191 2.529.732L58.123 67.8c-.266-.161-.588-.228-.965-.201-.367.016-.777.158-1.23.426-.454.247-.949.663-1.485 1.249-.609.664-1 1.237-1.173 1.72-.174.484-.12.854.161 1.112.214.196.487.25.818.159.32-.1.776-.428 1.367-.984l2.258-2.125c1.08-.998 2.03-1.682 2.845-2.053.815-.392 1.544-.532 2.187-.42.642.113 1.24.422 1.79.927zm10.15-3.243c-1.152 1.048-2.38 1.773-3.686 2.176-1.294.393-2.55.442-3.769.146-1.218-.295-2.295-.957-3.23-1.984-.914-1.006-1.467-2.113-1.659-3.322-.191-1.209-.047-2.423.432-3.644.49-1.23 1.29-2.35 2.396-3.356 1.13-1.028 2.327-1.663 3.593-1.906 1.265-.243 2.529-.113 3.791.39 1.263.503 2.45 1.364 3.559 2.584l-8.709 7.923-1.803-1.983 6.98-6.35-.488 1.744c-.516-.5-1.052-.828-1.607-.983a2.903 2.903 0 00-1.635-.062c-.546.126-1.068.415-1.565.867-.542.493-.913 1.027-1.113 1.601a3.212 3.212 0 00-.115 1.746c.135.579.433 1.123.896 1.631.586.644 1.225 1.063 1.918 1.258.705.185 1.436.15 2.194-.107.77-.266 1.55-.759 2.34-1.478a11.375 11.375 0 001.907-2.261c.538-.861.93-1.734 1.178-2.62l1.865 2.05c-.245 1.048-.677 2.081-1.298 3.1-.61 1.01-1.4 1.956-2.372 2.84zM73.11 48.004l3.406-2.633 3.488 3.238 5.113 6.615-3.37 2.605-5.338-6.904-3.3-2.92zm8.84-7.065l2.24 2.9a11.618 11.618 0 00-2.016 1.211c-.58.448-1.012.975-1.296 1.581-.282.585-.365 1.238-.251 1.96.126.713.502 1.474 1.128 2.283l-1.315-.315a15.468 15.468 0 01-1.194-2.406 7.715 7.715 0 01-.533-2.338 4.809 4.809 0 01.325-2.162c.284-.683.782-1.3 1.495-1.85a7.9 7.9 0 01.68-.468c.248-.154.494-.285.736-.396zm2.996.34c-.64-1.168-.892-2.367-.756-3.597.128-1.243.591-2.43 1.39-3.56.805-1.15 1.894-2.166 3.27-3.048 1.31-.841 2.582-1.376 3.815-1.604 1.232-.228 2.355-.16 3.37.206 1.014.365 1.822 1.017 2.424 1.955.47.733.714 1.538.733 2.415.01.864-.205 1.873-.645 3.025-.44 1.153-1.118 2.514-2.035 4.082l-2.774 4.88-.799-.82 10.488-6.727 1.855 2.892L91.17 50.43l-1.633-2.545 3.92-7.549c.627-1.2 1.09-2.177 1.386-2.93.302-.774.457-1.408.466-1.904a2.35 2.35 0 00-.37-1.34 2.178 2.178 0 00-1.052-.877c-.425-.181-.92-.217-1.485-.109-.565.109-1.188.381-1.87.818-.81.52-1.4 1.07-1.77 1.653-.378.57-.568 1.136-.57 1.699-.001.563.125 1.1.379 1.608l-3.625 2.325zm33.072-12.47a3.258 3.258 0 01-1.65.303 2.999 2.999 0 01-1.498-.573 3.22 3.22 0 01-1.043-1.286 3.131 3.131 0 01-.293-1.63 2.992 2.992 0 01.543-1.508 3.256 3.256 0 011.306-1.053 3.132 3.132 0 011.629-.293 3.043 3.043 0 011.488.552c.461.31.819.742 1.074 1.297.241.527.332 1.074.272 1.639a3 3 0 01-.542 1.509 3.14 3.14 0 01-1.286 1.043zm16.78-19.215l4.49 14.58-2.42-1.245 12.302-3.788 1.126 3.656-14.579 4.49-5.056-16.419 4.137-1.274zm27.712 10.622l-1.502-4.533.251-1.874-.957-1.605-.384-4.783 4.332-.878.511 6.557 2.082 6.238-4.333.878zm-.263-6.607c.051 1.408-.134 2.684-.557 3.829-.425 1.13-1.059 2.076-1.902 2.839-.845.748-1.867 1.243-3.064 1.486-1.257.254-2.422.194-3.495-.18a6.145 6.145 0 01-2.7-1.907c-.745-.908-1.254-2.036-1.527-3.383-.273-1.347-.242-2.576.094-3.688.333-1.127.913-2.07 1.74-2.83.843-.763 1.893-1.272 3.15-1.526 1.197-.243 2.332-.177 3.405.198 1.07.36 2.021.977 2.853 1.852.846.873 1.514 1.976 2.003 3.31zm-9.025 1.829c.14.688.406 1.273.8 1.754.39.466.864.807 1.422 1.02.569.197 1.183.228 1.842.095a4.11 4.11 0 001.772-.827 5.41 5.41 0 001.317-1.575 5.63 5.63 0 00.637-2.046 5.384 5.384 0 00-1.379-1.613 4.965 4.965 0 00-1.826-.939 3.952 3.952 0 00-1.959-.094c-.658.134-1.21.41-1.655.827a3.23 3.23 0 00-.913 1.493c-.178.582-.197 1.216-.058 1.905zm31.09-2.267c.097.973-.108 1.83-.617 2.571-.495.725-1.271 1.318-2.33 1.777-1.059.46-2.371.768-3.936.925-1.595.16-3.012.104-4.252-.17-1.24-.275-2.231-.735-2.971-1.382-.74-.647-1.181-1.439-1.321-2.376l4.307-.434c.13.371.376.684.739.939.379.253.849.429 1.411.526.561.081 1.214.085 1.958.01 1.003-.101 1.752-.284 2.247-.549.495-.264.721-.61.679-1.035-.033-.319-.247-.543-.644-.671-.381-.131-1.054-.186-2.019-.166l-2.388.056c-1.502.029-2.71-.088-3.627-.348-.917-.276-1.595-.676-2.031-1.2a3.417 3.417 0 01-.737-1.837c-.096-.957.12-1.777.65-2.46.544-.699 1.331-1.261 2.363-1.687 1.03-.442 2.259-.734 3.687-.878 1.428-.143 2.716-.081 3.863.187 1.162.267 2.112.701 2.847 1.302.751.6 1.217 1.343 1.399 2.23l-4.308.434c-.091-.298-.286-.562-.586-.793-.284-.232-.685-.4-1.201-.5-.503-.119-1.15-.138-1.94-.059-.896.09-1.57.258-2.021.503-.451.245-.658.557-.619.937.029.289.197.51.504.663.305.138.864.197 1.675.177l3.099-.082c1.471-.025 2.634.096 3.49.363.869.25 1.506.63 1.911 1.143.404.511.644 1.14.719 1.884zm9.15 4.346c-1.558.018-2.958-.256-4.202-.822-1.228-.566-2.199-1.364-2.914-2.394-.714-1.03-1.079-2.24-1.095-3.63-.016-1.359.306-2.553.966-3.584.66-1.031 1.575-1.843 2.743-2.437 1.185-.594 2.525-.9 4.021-.917 1.527-.018 2.844.303 3.951.962 1.107.659 1.966 1.596 2.575 2.81.61 1.215.924 2.647.944 4.296l-11.773.136-.031-2.68 9.436-.109-1.523.98c-.054-.717-.237-1.318-.548-1.803a2.901 2.901 0 00-1.181-1.132c-.492-.27-1.074-.4-1.745-.392-.733.008-1.365.16-1.896.457a3.21 3.21 0 00-1.246 1.229c-.284.522-.422 1.127-.414 1.814.01.87.209 1.609.598 2.215.404.606.975 1.065 1.711 1.377.752.312 1.662.462 2.731.45a11.385 11.385 0 002.927-.423 10.042 10.042 0 002.621-1.176l.032 2.771c-.879.621-1.888 1.106-3.03 1.455-1.126.35-2.345.532-3.658.547zm11.053-13.343l4.295.315.432 4.74-.612 8.338-4.249-.312.64-8.703-.506-4.378zm11.298.646l-.268 3.655a11.637 11.637 0 00-2.31-.445 4.31 4.31 0 00-2.021.31c-.6.247-1.099.678-1.496 1.292-.382.615-.61 1.432-.685 2.453l-.768-1.113a15.49 15.49 0 01.718-2.589 7.696 7.696 0 011.165-2.096 4.805 4.805 0 011.686-1.392c.667-.318 1.449-.445 2.348-.379.259.02.532.055.819.106.287.052.558.118.812.198zm.817 2.096c.3-1.298.91-2.36 1.83-3.188.923-.843 2.058-1.42 3.406-1.73 1.366-.325 2.856-.358 4.469-.101 1.539.245 2.843.692 3.915 1.342 1.072.65 1.865 1.449 2.379 2.396.514.948.683 1.972.508 3.073a4.567 4.567 0 01-1.06 2.29c-.568.652-1.4 1.261-2.495 1.83-1.095.567-2.507 1.13-4.235 1.69l-5.319 1.798-.05-1.144 12.305 1.959-.54 3.392-16.558-2.635.476-2.986 7.949-3.025c1.267-.479 2.262-.9 2.985-1.265.74-.377 1.278-.747 1.615-1.111.336-.364.541-.78.616-1.247a2.18 2.18 0 00-.202-1.354c-.197-.418-.542-.775-1.036-1.07-.494-.295-1.141-.506-1.94-.633-.95-.152-1.757-.133-2.421.055-.662.173-1.18.47-1.556.889-.376.42-.639.903-.788 1.452l-4.253-.677zm32.997 12.641a3.26 3.26 0 01-1.433-.873 3 3 0 01-.735-1.424 3.21 3.21 0 01.078-1.654 3.13 3.13 0 01.865-1.411 3 3 0 011.41-.764 3.261 3.261 0 011.676.084 3.138 3.138 0 011.411.866c.371.402.619.87.742 1.403.138.538.117 1.099-.063 1.682a3.076 3.076 0 01-.887 1.405 3 3 0 01-1.41.764 3.136 3.136 0 01-1.654-.078zm31.835-.235l-6.818 13.646-.892-2.57 11.515 5.753-1.71 3.422-13.646-6.819 7.679-15.367 3.872 1.935zm13.145 27.098l2.047-4.316 1.476-1.18.418-1.822 3.027-3.723 3.739 2.36-4.162 5.092-2.806 5.948-3.739-2.36zm4.375-4.959c-.935 1.053-1.951 1.848-3.047 2.383-1.089.523-2.201.77-3.337.739-1.128-.044-2.209-.392-3.242-1.044-1.084-.685-1.885-1.533-2.402-2.546a6.145 6.145 0 01-.634-3.244c.089-1.171.501-2.338 1.234-3.5.734-1.162 1.606-2.03 2.617-2.601 1.019-.585 2.09-.866 3.213-.843 1.136.031 2.247.389 3.331 1.073 1.034.652 1.808 1.484 2.325 2.497.525 1 .786 2.102.782 3.31.009 1.215-.271 2.474-.84 3.776zm-7.786-4.914c-.375.594-.587 1.201-.635 1.82-.04.608.068 1.181.323 1.721.276.535.698.983 1.266 1.341a4.113 4.113 0 001.853.627 5.406 5.406 0 002.04-.229 5.63 5.63 0 001.874-1.038 5.387 5.387 0 00.119-2.119 4.956 4.956 0 00-.672-1.94 3.949 3.949 0 00-1.351-1.422c-.568-.358-1.157-.54-1.767-.547a3.224 3.224 0 00-1.692.45c-.531.297-.983.742-1.358 1.336zm23.877 19.75c-.6.77-1.341 1.249-2.221 1.434-.858.183-1.829.075-2.912-.323-1.083-.399-2.245-1.081-3.486-2.047-1.265-.986-2.251-2.006-2.959-3.06-.708-1.055-1.106-2.071-1.195-3.05-.089-.98.139-1.856.684-2.631l3.416 2.66c-.163.357-.2.753-.114 1.189.099.444.318.896.658 1.354.35.446.819.9 1.41 1.36.795.618 1.463 1.003 2.004 1.154.541.15.942.056 1.205-.28.197-.254.197-.564-.001-.93-.186-.359-.635-.863-1.347-1.515l-1.767-1.608c-1.105-1.016-1.899-1.934-2.382-2.756-.474-.833-.688-1.59-.642-2.27a3.416 3.416 0 01.735-1.838c.591-.759 1.314-1.202 2.168-1.33.876-.13 1.834.006 2.875.41 1.049.392 2.14 1.028 3.273 1.91 1.132.882 2.021 1.816 2.666 2.803.657.995 1.044 1.964 1.161 2.907.129.952-.047 1.812-.528 2.58l-3.416-2.66c.14-.28.181-.605.124-.98-.046-.363-.22-.76-.524-1.19-.282-.434-.736-.894-1.363-1.382-.711-.553-1.314-.897-1.809-1.032-.496-.134-.861-.05-1.095.25-.178.23-.209.506-.093.828.126.311.489.74 1.09 1.285l2.299 2.08c1.081.998 1.839 1.888 2.274 2.672.456.781.654 1.496.593 2.146-.061.65-.321 1.27-.781 1.86zm4.085 9.925c-1.137-1.065-1.958-2.232-2.464-3.5-.495-1.26-.644-2.508-.447-3.745.197-1.238.771-2.365 1.721-3.379.929-.992 1.988-1.631 3.178-1.919 1.19-.287 2.412-.24 3.667.14 1.266.39 2.445 1.097 3.537 2.12 1.114 1.044 1.843 2.187 2.186 3.429.343 1.242.315 2.512-.086 3.81-.4 1.3-1.164 2.55-2.291 3.754l-8.593-8.048 1.832-1.956 6.887 6.451-1.777-.347c.457-.555.741-1.115.852-1.68a2.906 2.906 0 00-.069-1.635c-.169-.535-.499-1.031-.989-1.49-.535-.502-1.097-.83-1.685-.983a3.21 3.21 0 00-1.749.025c-.567.18-1.085.522-1.555 1.023-.595.636-.962 1.306-1.101 2.013-.128.717-.034 1.444.282 2.179.327.745.88 1.483 1.661 2.214a11.386 11.386 0 002.405 1.72c.902.467 1.803.79 2.706.965l-1.895 2.023c-1.064-.16-2.128-.509-3.194-1.047-1.054-.527-2.061-1.24-3.019-2.137zm15.345-3.882l2.909 3.174-2.936 3.747-6.163 5.648-2.879-3.14 6.434-5.897 2.635-3.532zm7.779 8.218l-2.702 2.476a11.545 11.545 0 00-1.375-1.908 4.305 4.305 0 00-1.684-1.16c-.606-.232-1.264-.26-1.974-.086-.7.186-1.427.624-2.181 1.315l.204-1.336a15.474 15.474 0 012.298-1.392 7.71 7.71 0 012.285-.727 4.808 4.808 0 012.182.144c.704.225 1.36.67 1.968 1.334.176.192.35.405.524.64.173.234.325.467.455.7zm-.098 2.971c1.11-.736 2.284-1.088 3.521-1.056 1.249.023 2.47.386 3.663 1.087 1.214.705 2.318 1.705 3.313 3.001.948 1.236 1.588 2.458 1.918 3.667.331 1.21.357 2.334.079 3.376-.279 1.041-.861 1.901-1.745 2.58-.691.53-1.472.84-2.345.932-.86.083-1.883-.046-3.069-.388-1.185-.34-2.598-.903-4.237-1.685l-5.098-2.354.751-.865 7.585 9.886-2.726 2.091L333.588 80.5l2.399-1.84 7.851 3.272c1.249.524 2.261.902 3.036 1.135.797.236 1.443.337 1.937.304a2.353 2.353 0 001.305-.481 2.18 2.18 0 00.785-1.122c.145-.439.139-.935-.016-1.489-.156-.554-.48-1.152-.973-1.794-.585-.764-1.184-1.305-1.795-1.625-.599-.33-1.18-.471-1.741-.426a3.53 3.53 0 00-1.57.512l-2.622-3.416zm15.196 31.82a3.262 3.262 0 01-.443-1.619 2.996 2.996 0 01.444-1.541c.29-.48.687-.862 1.192-1.148a3.138 3.138 0 011.598-.432 2.996 2.996 0 011.55.413c.48.29.867.694 1.16 1.212.293.518.437 1.051.431 1.598a3.038 3.038 0 01-.424 1.53c-.269.486-.669.879-1.2 1.18a3.081 3.081 0 01-1.61.411 2.998 2.998 0 01-1.55-.412 3.137 3.137 0 01-1.148-1.192z" fill="#434EDC"/></svg>