<svg width="405" height="408" fill="none" xmlns="http://www.w3.org/2000/svg"><path d="M21.323 177.763l-.112 1.422-15.205-6.069.44-4.632 16.936 7.126-.532 5.609-15.676 3.844.174-1.839 14.676 6.7-.534 5.633-17.975 3.813.441-4.655 16.053-3.103-.156 1.394-15.093-6.763.442-4.655 16.12-3.825zM6.955 165.891l.965-4.216 17.548 4.016-.965 4.216-17.548-4.016zm6.275-8.134c.281-1.23.772-2.221 1.472-2.973a5.041 5.041 0 012.578-1.52c1.005-.266 2.137-.254 3.398.034l7.247 1.659-.97 4.239-6.609-1.513c-1.079-.247-1.952-.167-2.621.24-.68.388-1.136 1.083-1.365 2.086-.16.699-.147 1.341.038 1.927.174.568.502 1.058.983 1.472.469.395 1.076.678 1.82.849l-1.014 1.183c-1.341-.499-2.416-1.145-3.226-1.938-.81-.793-1.359-1.678-1.647-2.655-.3-.996-.328-2.026-.084-3.09zm20.704-7.714c-.294.888-.667 1.643-1.12 2.265a8.312 8.312 0 01-1.66 1.666l-2.907-.963c.65-.524 1.159-1.045 1.528-1.563a6.55 6.55 0 00.928-1.835c.206-.621.252-1.206.137-1.752-.11-.562-.468-1.116-1.075-1.662l-10.085-8.957 1.448-4.372 10.998 10.515c.75.709 1.296 1.44 1.638 2.193.341.754.51 1.507.507 2.262a6.506 6.506 0 01-.337 2.203zm-4.853-2.15l-13.468 1.622 1.5-4.528 13.284-1.066-1.316 3.972zm12.185-27.054l-4.616-1.567-1.37-1.358-1.897-.21-4.131-2.63 1.952-4.068 5.653 3.62 6.361 2.145-1.952 4.068zm-5.542-3.852c1.178.824 2.103 1.761 2.775 2.809.658 1.042 1.039 2.141 1.141 3.297.088 1.149-.137 2.285-.676 3.409-.567 1.181-1.333 2.092-2.298 2.735a6.272 6.272 0 01-3.215 1.025c-1.198.047-2.43-.232-3.694-.839-1.265-.607-2.247-1.389-2.946-2.347-.712-.965-1.123-2.017-1.232-3.159-.103-1.156.13-2.324.696-3.504.54-1.124 1.292-2.008 2.257-2.651.952-.65 2.04-1.044 3.264-1.182 1.232-.152 2.541-.017 3.928.407zm-4.066 8.473c.646.31 1.287.453 1.92.429a3.5 3.5 0 001.707-.53c.51-.342.914-.823 1.21-1.441a4.197 4.197 0 00.419-1.952 5.519 5.519 0 00-.473-2.042 5.748 5.748 0 00-1.273-1.778 5.51 5.51 0 00-2.163.129 5.073 5.073 0 00-1.888.909 4.04 4.04 0 00-1.282 1.537c-.297.619-.412 1.237-.346 1.857a3.28 3.28 0 00.654 1.662c.364.503.869.91 1.515 1.22zm3.996-22.269l2.371-3.617 4.815 2.123 6.803 4.461-2.384 3.637-7.351-4.821-4.254-1.783zm5.264-8.71c.7-1.069 1.51-1.833 2.427-2.294a5.04 5.04 0 012.947-.528c1.034.1 2.091.505 3.173 1.214l6.217 4.077-2.385 3.637-5.669-3.718c-.925-.607-1.772-.837-2.54-.688-.782.14-1.45.633-2.006 1.48-.393.6-.605 1.207-.635 1.821a2.94 2.94 0 00.409 1.722c.302.534.773 1.01 1.411 1.429l-1.362.756c-1.092-.921-1.88-1.895-2.363-2.92-.475-1.038-.677-2.066-.607-3.082a5.9 5.9 0 01.983-2.906zm21.067-4.929c-.99 1.244-2.109 2.176-3.358 2.796-1.24.607-2.498.861-3.774.763-1.275-.099-2.468-.59-3.578-1.473-1.086-.863-1.824-1.888-2.214-3.075-.39-1.187-.444-2.434-.16-3.742.292-1.32.914-2.578 1.865-3.773.97-1.22 2.073-2.056 3.308-2.507 1.236-.452 2.53-.527 3.885-.227 1.354.3 2.69.975 4.007 2.023l-7.48 9.405-2.14-1.703L58.34 80.5l-.207 1.837c-.602-.419-1.195-.662-1.78-.728a2.965 2.965 0 00-1.657.205c-.53.216-1.008.592-1.435 1.129-.466.585-.753 1.184-.86 1.795a3.278 3.278 0 00.169 1.778c.23.561.62 1.06 1.169 1.497.695.553 1.408.871 2.139.954.74.071 1.47-.084 2.193-.466.731-.394 1.437-1.018 2.116-1.872.62-.78 1.138-1.644 1.551-2.59.402-.955.655-1.899.76-2.831l2.213 1.76c-.075 1.096-.342 2.208-.8 3.337-.45 1.116-1.093 2.198-1.927 3.247zm15.781-21.217l-.979.973-4.895-10.529 3.084-3.066 5.797 13.027-3.15 3.132-10.996-4.958 1.062-1.055 4.844 11.074-3.15 3.132-12.977-5.89 3.1-3.083 10.517 4.94-1.011 1.006-4.78-10.644 2.968-2.95 10.566 4.891zm5.409-24.227l9.307 12.484-2.753-.368 10.534-7.854 2.333 3.13-12.483 9.307-10.48-14.058 3.542-2.64zm13.651-2.29c-.619-1.21-.841-2.44-.667-3.692.167-1.264.674-2.461 1.523-3.59.854-1.151 1.995-2.156 3.424-3.017 1.362-.82 2.675-1.328 3.939-1.525 1.264-.197 2.408-.094 3.432.308 1.025.402 1.83 1.09 2.417 2.065a4.66 4.66 0 01.677 2.485c-.015.882-.263 1.905-.745 3.069-.482 1.163-1.214 2.531-2.195 4.105l-2.972 4.9-.791-.861 10.896-6.56 1.809 3.005-14.663 8.826-1.591-2.644 4.219-7.588c.674-1.207 1.174-2.19 1.499-2.95.331-.78.507-1.424.531-1.929a2.404 2.404 0 00-.339-1.379 2.225 2.225 0 00-1.048-.924c-.428-.197-.932-.249-1.512-.154-.58.094-1.223.354-1.931.78-.841.507-1.459 1.052-1.854 1.635-.403.57-.613 1.142-.631 1.717a3.606 3.606 0 00.339 1.651l-3.766 2.267zm33.501-11.372a3.325 3.325 0 01-1.691.267 3.061 3.061 0 01-1.514-.623 3.28 3.28 0 01-1.031-1.338 3.188 3.188 0 01-.258-1.67 3.05 3.05 0 01.592-1.526 3.33 3.33 0 011.359-1.04 3.2 3.2 0 011.67-.259 3.111 3.111 0 011.505.602c.462.327.816.777 1.062 1.35a3.16 3.16 0 01.237 1.68 3.068 3.068 0 01-.592 1.525c-.334.448-.78.792-1.339 1.032zm38.77-8.226l-1.381.356.808-16.353 4.524-1.086-1.246 18.332-5.479 1.317-8.721-13.582 1.796-.431-1.576 16.055-5.502 1.322-9.438-15.766 4.546-1.092 8.143 14.177-1.369.305 1.501-16.47 4.546-1.092 8.848 14.008zm6.406-17.392l4.301-.457 1.902 17.901-4.301.457-1.902-17.9zm9.731 3.292c1.255-.133 2.352.009 3.289.426a5.039 5.039 0 012.276 1.945c.578.864.935 1.938 1.071 3.225l.786 7.393-4.324.46-.717-6.743c-.116-1.1-.476-1.9-1.078-2.4-.587-.518-1.393-.723-2.416-.614-.713.076-1.316.297-1.81.663-.48.348-.838.818-1.073 1.407-.222.572-.292 1.238-.211 1.997l-1.449-.575c.037-1.43.298-2.657.785-3.68.487-1.024 1.146-1.83 1.976-2.42a5.947 5.947 0 012.895-1.084zm14.003 17.091c-.935.013-1.771-.093-2.506-.317a8.307 8.307 0 01-2.118-1.024l-.041-3.062c.707.442 1.366.753 1.976.932a6.547 6.547 0 002.038.277c.655-.01 1.221-.157 1.701-.444.495-.287.901-.807 1.218-1.56l5.164-12.461 4.605-.062-6.338 13.833c-.423.942-.935 1.697-1.536 2.266-.6.569-1.257.975-1.971 1.219a6.512 6.512 0 01-2.192.403zm.443-5.29l-5.939-12.195 4.769-.064 5.355 12.203-4.185.056zm30.284 2.766l-.012-4.875.841-1.736-.416-1.862 1.152-4.76 4.481.53-1.595 6.52.03 6.713-4.481-.53zm1.85-6.49c-.398 1.38-.985 2.559-1.76 3.535-.772.96-1.689 1.675-2.749 2.146-1.058.456-2.207.61-3.445.464-1.3-.154-2.411-.583-3.332-1.288a6.279 6.279 0 01-2.01-2.71c-.433-1.119-.567-2.374-.402-3.767.165-1.393.587-2.575 1.267-3.547.682-.986 1.545-1.716 2.589-2.189 1.061-.47 2.241-.63 3.541-.476 1.238.147 2.318.572 3.239 1.278.923.69 1.648 1.591 2.175 2.705.543 1.116.839 2.399.887 3.848zm-9.333-1.104c-.084.712-.012 1.364.216 1.956a3.51 3.51 0 001.053 1.443c.49.372 1.075.598 1.757.678a4.19 4.19 0 001.981-.236 5.51 5.51 0 001.779-1.108 5.729 5.729 0 001.27-1.78 5.497 5.497 0 00-.822-2.005 5.057 5.057 0 00-1.472-1.492 4.03 4.03 0 00-1.869-.715c-.681-.081-1.304.01-1.869.273a3.292 3.292 0 00-1.361 1.157c-.358.507-.579 1.117-.663 1.829zm22.021-3.517l4.193 1.062-.435 5.243-1.996 7.888-4.216-1.067 2.157-8.522.297-4.604zm9.951 2.133c1.239.314 2.226.829 2.961 1.545a5.043 5.043 0 011.461 2.613c.243 1.01.205 2.142-.112 3.396l-1.824 7.208-4.216-1.067 1.664-6.573c.271-1.073.211-1.948-.18-2.626-.387-.693-1.072-1.164-2.054-1.412-.695-.176-1.338-.178-1.928-.006a2.944 2.944 0 00-1.494.948c-.406.46-.702 1.06-.89 1.801l-1.159-1.041c.514-1.333 1.177-2.395 1.988-3.187.827-.787 1.732-1.314 2.715-1.58a5.901 5.901 0 013.068-.019zm11.667 18.374c-1.498-.534-2.741-1.292-3.732-2.274-.975-.977-1.622-2.085-1.942-3.324-.319-1.239-.24-2.526.236-3.862.466-1.307 1.197-2.337 2.194-3.09.997-.753 2.16-1.207 3.489-1.362 1.344-.15 2.736.032 4.174.546 1.468.523 2.616 1.296 3.442 2.32.827 1.022 1.317 2.223 1.471 3.602.153 1.378-.052 2.86-.618 4.446l-11.318-4.037.918-2.576 9.073 3.235-1.805.399c.202-.706.24-1.346.114-1.92a2.97 2.97 0 00-.731-1.502c-.375-.432-.886-.763-1.532-.993-.705-.252-1.364-.33-1.977-.234a3.275 3.275 0 00-1.627.735c-.457.4-.803.93-1.039 1.591-.299.837-.369 1.614-.211 2.332.172.724.555 1.365 1.15 1.925.609.565 1.428 1.03 2.456 1.397.939.335 1.923.545 2.952.63a10.24 10.24 0 002.925-.197l-.95 2.664c-1.061.284-2.2.39-3.416.321-1.202-.064-2.434-.322-3.696-.772zm25.019 7.981l-1.237-.61 8.376-8.042 3.9 1.925-10.449 9.704-3.983-1.967 1.131-12.008 1.342.662-8.909 8.169-3.983-1.966 1.371-14.185 3.92 1.935-1.269 11.55-1.279-.632 8.523-7.968 3.753 1.852-1.207 11.58zm24.72-2.681l-8.824 12.83-.537-2.726 10.825 7.446-2.212 3.217-12.829-8.824 9.936-14.447 3.641 2.504zm6.416 12.09c.943-.98 2.034-1.59 3.274-1.833 1.25-.254 2.547-.163 3.891.271 1.365.433 2.688 1.185 3.966 2.256 1.218 1.02 2.127 2.097 2.724 3.228.598 1.131.873 2.246.827 3.346-.047 1.1-.436 2.085-1.167 2.957a4.656 4.656 0 01-2.129 1.45c-.839.272-1.887.37-3.144.293-1.257-.077-2.789-.323-4.596-.74l-5.6-1.215.556-1.028 9.749 8.168-2.252 2.688-13.118-10.99 1.982-2.366 8.548 1.52c1.36.244 2.453.397 3.277.457.846.058 1.511.016 1.997-.126a2.398 2.398 0 001.193-.77 2.22 2.22 0 00.533-1.291c.047-.469-.068-.962-.346-1.48-.278-.517-.734-1.041-1.367-1.572-.752-.63-1.469-1.038-2.149-1.221-.67-.195-1.279-.208-1.829-.038a3.607 3.607 0 00-1.451.858l-3.369-2.822zm21.659 28.039a3.32 3.32 0 01-.801-1.514 3.065 3.065 0 01.098-1.633 3.288 3.288 0 01.932-1.41c.451-.408.949-.67 1.496-.786a3.057 3.057 0 011.635.066 3.329 3.329 0 011.426.948c.407.451.669.95.785 1.496a3.109 3.109 0 01-.081 1.618c-.16.544-.471 1.025-.933 1.443a3.145 3.145 0 01-1.512.769 3.057 3.057 0 01-1.635-.066 3.201 3.201 0 01-1.41-.931zm20.397 33.987l-.786-1.19 15.723-4.562 2.501 3.923-17.739 4.793-3.028-4.751 10-12.67.993 1.558-15.694 3.739-3.041-4.77 11.832-14.06 2.513 3.943-10.752 12.317-.734-1.195 16.061-3.946 2.514 3.943-10.363 12.928zm18.491.269l1.837 3.916-16.299 7.644-1.836-3.916 16.298-7.644zm.066 10.272c.536 1.143.76 2.226.672 3.249a5.044 5.044 0 01-1.095 2.786c-.628.828-1.527 1.516-2.698 2.065l-6.731 3.157-1.847-3.937 6.139-2.879c1.002-.47 1.641-1.071 1.917-1.803.297-.724.227-1.552-.209-2.484-.305-.649-.711-1.147-1.218-1.495a3.124 3.124 0 00-1.68-.554c-.613-.023-1.265.128-1.957.453l.071-1.557c1.363-.433 2.608-.586 3.734-.46 1.127.125 2.104.485 2.933 1.077.85.6 1.506 1.394 1.969 2.382zm-11.647 18.607c-.316-.88-.489-1.704-.517-2.473a8.333 8.333 0 01.278-2.336l2.882-1.036c-.188.813-.267 1.537-.237 2.172.02.655.154 1.328.402 2.017.222.616.546 1.104.974 1.464.433.374 1.057.588 1.871.643l13.464.822 1.559 4.334-15.143-1.485c-1.028-.094-1.909-.332-2.643-.714-.733-.382-1.331-.871-1.794-1.467a6.51 6.51 0 01-1.096-1.941zm5.146-1.304l9.595-9.588 1.615 4.488-9.794 9.038-1.416-3.938zm7.089 28.786l4.601-1.612 1.916.224 1.623-1.004 4.874-.475.971 4.407-6.683.634-6.331 2.232-.971-4.406zm6.739-.383c-1.436.076-2.741-.091-3.917-.502-1.161-.415-2.138-1.046-2.931-1.892-.777-.851-1.3-1.884-1.569-3.102-.281-1.279-.24-2.469.124-3.57a6.271 6.271 0 011.899-2.789c.915-.776 2.057-1.315 3.427-1.616 1.37-.302 2.625-.291 3.765.032 1.156.32 2.129.896 2.918 1.728.793.846 1.331 1.909 1.612 3.188.268 1.217.221 2.377-.143 3.478-.349 1.099-.963 2.08-1.842 2.944-.875.879-1.99 1.579-3.343 2.101zm-2.022-9.179c-.7.154-1.292.436-1.777.846a3.516 3.516 0 00-1.017 1.469c-.19.585-.212 1.212-.064 1.882.147.669.439 1.268.874 1.794.454.539.997.978 1.631 1.317a5.74 5.74 0 002.098.615 5.495 5.495 0 001.623-1.435 5.066 5.066 0 00.927-1.88 4.035 4.035 0 00.062-2c-.148-.67-.438-1.229-.872-1.676a3.284 3.284 0 00-1.54-.905c-.596-.172-1.245-.181-1.945-.027zm10.537 19.583l.374 4.309-5.096 1.311-8.105.704-.376-4.333 8.757-.76 4.446-1.231zm1.253 10.099c.11 1.274-.052 2.375-.488 3.305a5.035 5.035 0 01-1.988 2.237c-.874.561-1.956.898-3.245 1.01l-7.406.643-.377-4.332 6.755-.587c1.102-.096 1.91-.44 2.421-1.032.528-.593.747-1.394.66-2.404-.062-.714-.271-1.322-.628-1.822a2.94 2.94 0 00-1.386-1.1c-.568-.233-1.232-.316-1.993-.25l.603-1.437c1.428.048 2.648.326 3.662.832 1.016.522 1.81 1.204 2.384 2.046.591.856.933 1.82 1.026 2.891zm-13.507 16.906c.009-1.59.314-3.014.913-4.273.6-1.243 1.432-2.221 2.496-2.931 1.064-.711 2.305-1.062 3.723-1.054 1.388.008 2.601.358 3.641 1.05 1.041.692 1.853 1.64 2.439 2.844.585 1.219.873 2.592.864 4.119-.009 1.559-.36 2.897-1.052 4.016-.693 1.118-1.664 1.977-2.915 2.578-1.25.6-2.717.895-4.4.886l.07-12.017 2.736.016-.057 9.632-.973-1.572c.733-.043 1.35-.218 1.85-.527a2.955 2.955 0 001.176-1.186c.284-.497.428-1.088.432-1.774.004-.748-.14-1.396-.433-1.943a3.282 3.282 0 00-1.232-1.293c-.528-.299-1.143-.451-1.844-.455-.888-.005-1.645.185-2.271.571-.626.402-1.105.976-1.436 1.722-.332.762-.501 1.688-.508 2.779-.006.997.121 1.996.38 2.995a10.26 10.26 0 001.153 2.695l-2.829-.016c-.618-.908-1.095-1.947-1.431-3.118-.336-1.156-.5-2.404-.492-3.744zm.618 27.427l.173-1.369 10.338 5.286-.544 4.314-12.587-6.7.556-4.407 11.718-2.859-.187 1.485-10.634-5.747.556-4.408 13.853-3.343-.547 4.337-11.329 2.578.178-1.415 10.318 5.448-.524 4.152-11.338 2.648zm10.635 22.46l-15.004-4.164 2.401-1.396-3.513 12.661-3.762-1.044 4.163-15.004 16.896 4.689-1.181 4.258zm-9.388 10.257c1.231.576 2.161 1.412 2.79 2.507.644 1.101.977 2.358.999 3.77.031 1.433-.254 2.927-.856 4.482-.573 1.483-1.298 2.69-2.176 3.62-.878.931-1.845 1.551-2.901 1.862-1.055.31-2.114.26-3.175-.15a4.663 4.663 0 01-2.059-1.548c-.529-.706-.96-1.666-1.292-2.881-.333-1.215-.594-2.744-.783-4.589l-.656-5.693 1.153.195-4.587 11.863-3.271-1.265 6.171-15.962 2.879 1.113 1.319 8.581c.207 1.367.415 2.45.624 3.249.218.82.473 1.436.764 1.85.291.413.662.707 1.113.881.465.18.93.209 1.395.088.459-.106.888-.375 1.289-.805.4-.43.749-1.03 1.047-1.801.354-.916.508-1.725.462-2.428-.031-.697-.216-1.278-.554-1.743a3.607 3.607 0 00-1.28-1.097l1.585-4.099zm-19.457 29.451a3.32 3.32 0 011.174-1.247 3.06 3.06 0 011.578-.435 3.28 3.28 0 011.635.427c.531.295.94.682 1.227 1.162.3.487.455 1.01.466 1.569a3.327 3.327 0 01-.438 1.655 3.2 3.2 0 01-1.162 1.227c-.48.286-.999.435-1.558.445-.566.025-1.122-.114-1.667-.417a3.138 3.138 0 01-1.215-1.182 3.062 3.062 0 01-.466-1.569 3.194 3.194 0 01.426-1.635zm-25.027 29.658l.87-1.131 9.429 13.384-2.896 3.642-10.304-15.215 3.508-4.41 15.233 5.335-1.15 1.446-8.641-13.624 3.522-4.428 17.143 6.615-2.91 3.659-15.145-6.16.892-1.083 8.955 13.903-2.91 3.66-15.596-5.593zm5.322 18.113l-3.112 3.004-12.505-12.949 3.111-3.005 12.506 12.95zm-9.699 3.385c-.908.877-1.86 1.439-2.857 1.686a5.046 5.046 0 01-2.99-.134c-.986-.326-1.929-.954-2.827-1.885l-5.165-5.348 3.128-3.021 4.71 4.877c.769.796 1.544 1.207 2.326 1.231.782.047 1.543-.287 2.283-1.001.516-.498.856-1.044 1.021-1.636a3.13 3.13 0 00-.019-1.77c-.177-.587-.531-1.155-1.062-1.705l1.496-.436c.851 1.15 1.399 2.278 1.644 3.385.245 1.106.222 2.148-.071 3.123-.293.998-.832 1.876-1.617 2.634zm-21.726-4.666c.731-.583 1.456-1.012 2.174-1.286a8.326 8.326 0 012.301-.49l1.91 2.394c-.83.084-1.541.243-2.132.476a6.536 6.536 0 00-1.78 1.031c-.512.408-.869.872-1.072 1.393-.215.53-.217 1.19-.006 1.979l3.561 13.01-3.6 2.873-3.475-14.814c-.242-1.003-.3-1.914-.175-2.731.125-.818.395-1.542.81-2.172a6.496 6.496 0 011.484-1.663zm2.893 4.451l12.169 5.993-3.728 2.975-11.712-6.358 3.271-2.61zm-24.192 15.601l3.025 3.823.414 1.885 1.478 1.206 2.04 4.452-3.849 2.356-2.78-6.111-4.176-5.256 3.848-2.355zm2.561 6.245c-.541-1.332-.809-2.621-.803-3.867.013-1.232.29-2.361.832-3.387.55-1.013 1.356-1.844 2.42-2.495 1.117-.684 2.255-1.033 3.415-1.049a6.27 6.27 0 013.255.886c1.032.611 1.914 1.515 2.647 2.711.732 1.197 1.131 2.387 1.198 3.57.074 1.197-.152 2.304-.681 3.322-.541 1.026-1.371 1.881-2.487 2.564-1.064.651-2.176.984-3.336 1-1.151.029-2.279-.231-3.383-.78-1.116-.541-2.142-1.366-3.077-2.475zm8.017-4.906c-.375-.612-.834-1.08-1.38-1.404a3.518 3.518 0 00-1.72-.482c-.615.011-1.215.195-1.8.553a4.198 4.198 0 00-1.411 1.412 5.52 5.52 0 00-.712 1.971 5.739 5.739 0 00.103 2.184 5.48 5.48 0 001.886 1.066 5.068 5.068 0 002.079.263 4.031 4.031 0 001.912-.594c.585-.358 1.018-.815 1.299-1.371a3.281 3.281 0 00.353-1.751c-.032-.62-.235-1.236-.609-1.847zm-16.032 16.899l-3.956 1.749-2.889-4.397-3.29-7.442 3.977-1.758 3.554 8.04 2.604 3.808zm-9.15 4.454c-1.169.517-2.264.72-3.284.609a5.04 5.04 0 01-2.761-1.157c-.814-.646-1.482-1.56-2.005-2.744l-3.006-6.799 3.977-1.759 2.741 6.202c.448 1.012 1.034 1.664 1.76 1.957.732.307 1.561.255 2.488-.154.656-.29 1.163-.685 1.522-1.184a2.943 2.943 0 00.592-1.668c.036-.612-.101-1.268-.409-1.966l1.554.105c.417 1.366.55 2.611.399 3.735-.166 1.129-.554 2.102-1.165 2.917a5.897 5.897 0 01-2.403 1.906zm-20.079-7.4c1.507-.504 2.954-.676 4.339-.514 1.37.166 2.563.638 3.58 1.416 1.016.777 1.749 1.839 2.198 3.184.44 1.316.501 2.577.182 3.785-.32 1.208-.954 2.283-1.905 3.225-.965.948-2.172 1.664-3.62 2.148-1.478.494-2.858.594-4.14.3-1.282-.295-2.409-.937-3.381-1.927-.972-.989-1.725-2.282-2.258-3.879l11.396-3.811.868 2.594-9.135 3.055 1.174-1.428c.276.68.642 1.207 1.096 1.581.443.394.944.637 1.501.731.562.107 1.168.053 1.819-.165.709-.237 1.276-.583 1.699-1.037a3.27 3.27 0 00.826-1.583c.113-.596.058-1.227-.164-1.892-.282-.843-.706-1.498-1.274-1.965-.582-.463-1.279-.731-2.093-.804-.828-.068-1.759.071-2.794.417-.946.316-1.85.758-2.712 1.326a10.244 10.244 0 00-2.179 1.961l-.897-2.683c.66-.878 1.489-1.665 2.489-2.361.985-.691 2.113-1.249 3.385-1.674zm-23.926 9.08l1.35-.286-1.598 11.5-4.254.903 2.196-14.089 4.345-.922 6.548 10.13-1.464.31 1.937-11.931 4.345-.922 7.707 11.987-4.277.908-6.155-9.855 1.395-.296-1.757 11.534-4.094.869-6.224-9.84zm-17.939 17.516l-.989-15.539 2.106 1.81-13.112.834-.248-3.896 15.539-.989 1.113 17.499-4.409.281zm-13.784-5.456c-.143 1.352-.63 2.504-1.461 3.456-.831.968-1.91 1.692-3.238 2.174-1.344.496-2.849.714-4.516.652-1.588-.058-2.966-.35-4.132-.877-1.166-.526-2.068-1.238-2.705-2.135-.638-.896-.936-1.913-.894-3.05a4.667 4.667 0 01.792-2.451c.495-.731 1.262-1.451 2.302-2.161 1.04-.711 2.401-1.456 4.083-2.237l5.167-2.477.192 1.154-12.71-.468.129-3.504 17.102.629-.113 3.084-7.682 4.045c-1.225.642-2.181 1.191-2.868 1.65-.704.473-1.204.914-1.499 1.325-.296.41-.453.856-.471 1.339-.018.499.106.948.372 1.347.25.4.644.718 1.181.956s1.219.373 2.044.403c.981.036 1.797-.082 2.446-.355.649-.256 1.138-.621 1.468-1.092.329-.471.535-.994.619-1.568l4.392.161zm-33.615-8.613c.599.104 1.12.337 1.564.698.428.359.738.808.929 1.348.191.539.237 1.1.135 1.684a3.203 3.203 0 01-.693 1.541 3.066 3.066 0 01-1.329.956 3.326 3.326 0 01-1.707.131 3.195 3.195 0 01-1.541-.694 3.102 3.102 0 01-.933-1.324c-.209-.526-.261-1.097-.154-1.711.101-.584.34-1.096.717-1.537a3.058 3.058 0 011.328-.956 3.205 3.205 0 011.684-.136zm-37.754-14.367l1.351.457-9.615 13.25-4.382-1.562 11.065-14.67 5.307 1.892-.122 16.141-1.74-.621 10.097-12.583 5.329 1.901-.715 18.361-4.404-1.571.932-16.323 1.313.494-10.261 12.971-4.404-1.571.249-16.566zm-14.999 11.069l-3.85-1.972 8.208-16.022 3.85 1.972-8.208 16.022zm-6.341-8.082c-1.124-.576-1.964-1.295-2.52-2.158a5.033 5.033 0 01-.839-2.873c-.011-1.039.278-2.134.868-3.285l3.39-6.617 3.87 1.983-3.091 6.034c-.505.985-.642 1.851-.412 2.6.208.754.77 1.366 1.686 1.835.638.327 1.264.473 1.878.437a3.127 3.127 0 001.668-.59c.498-.358.922-.876 1.27-1.556l.897 1.274c-.813 1.177-1.703 2.06-2.671 2.65-.968.59-1.961.905-2.979.944-1.039.045-2.044-.181-3.015-.678zm-1.78-21.554c.79.501 1.431 1.047 1.924 1.637.48.582.884 1.254 1.212 2.016l-1.641 2.585c-.35-.757-.732-1.378-1.144-1.861a6.514 6.514 0 00-1.555-1.347c-.552-.351-1.108-.538-1.666-.56-.571-.03-1.196.182-1.873.638l-11.142 7.603-3.888-2.469 12.875-8.108c.87-.556 1.712-.907 2.526-1.055.814-.148 1.586-.128 2.317.059a6.505 6.505 0 012.055.862zm-3.266 4.185l-1.705 13.457-4.026-2.557 2.198-13.144 3.533 2.244zm-23.671-18.604l-2.645 4.094-1.652.999-.666 1.787-3.558 3.365-3.47-2.885 4.89-4.599 3.632-5.647 3.469 2.886zm-5.088 4.435c1.087-.941 2.22-1.61 3.402-2.006 1.17-.384 2.33-.485 3.475-.303 1.136.195 2.183.691 3.141 1.488 1.007.837 1.705 1.802 2.093 2.895a6.274 6.274 0 01.21 3.368c-.247 1.174-.818 2.3-1.715 3.378-.897 1.079-1.895 1.84-2.995 2.284-1.109.456-2.23.598-3.364.425-1.145-.182-2.221-.692-3.228-1.529-.959-.797-1.632-1.743-2.02-2.836-.399-1.081-.516-2.232-.351-3.454.152-1.231.603-2.468 1.352-3.71zm7.226 6.01c.459-.552.754-1.138.885-1.758a3.507 3.507 0 00-.098-1.784c-.208-.579-.576-1.087-1.103-1.526a4.198 4.198 0 00-1.79-.881 5.507 5.507 0 00-2.096-.04 5.733 5.733 0 00-2.035.801 5.494 5.494 0 00-.402 2.129c0 .73.141 1.415.421 2.053.258.64.65 1.18 1.178 1.618.527.439 1.1.702 1.716.789a3.292 3.292 0 001.772-.229c.576-.231 1.094-.621 1.552-1.172zm-20.884-9.473l-2.935-3.176 3.224-4.159 5.974-5.522 2.952 3.193-6.455 5.967-2.76 3.697zm-7.178-7.214c-.867-.939-1.414-1.909-1.64-2.91a5.042 5.042 0 01.2-2.987c.348-.979.997-1.908 1.947-2.786l5.459-5.046 2.952 3.193-4.979 4.602c-.812.751-1.24 1.518-1.281 2.299-.053.792.264 1.56.952 2.304.486.526 1.024.878 1.612 1.056a2.941 2.941 0 001.77.02c.591-.164 1.167-.506 1.728-1.024l.404 1.505c-1.158.837-2.293 1.366-3.404 1.587-1.123.209-2.168.157-3.138-.157a5.9 5.9 0 01-2.582-1.656zm.704-21.116c.968 1.26 1.603 2.571 1.902 3.933.29 1.35.234 2.632-.17 3.846s-1.168 2.254-2.292 3.118c-1.1.845-2.273 1.314-3.519 1.407-1.246.092-2.47-.157-3.67-.748-1.21-.603-2.281-1.51-3.212-2.721-.95-1.236-1.494-2.508-1.634-3.815-.14-1.308.099-2.583.717-3.825.618-1.241 1.595-2.375 2.93-3.401l7.322 9.529-2.169 1.667-5.87-7.638 1.734.644c-.553.483-.931 1-1.137 1.551a2.966 2.966 0 00-.2 1.658c.081.567.33 1.122.749 1.665.456.594.967 1.016 1.534 1.268a3.276 3.276 0 001.766.265c.6-.088 1.18-.346 1.735-.773.705-.542 1.185-1.157 1.442-1.846.248-.701.273-1.448.077-2.24-.206-.805-.641-1.64-1.306-2.505a11.595 11.595 0 00-2.139-2.131 10.266 10.266 0 00-2.565-1.42l2.243-1.723c1.046.337 2.06.864 3.044 1.582.975.706 1.87 1.59 2.688 2.653zm-17.188-20.978l.707 1.185-11.4 2.204-2.229-3.734 14.043-2.475 2.277 3.814-7.47 9.47-.768-1.284 11.917-2.023 2.277 3.814-8.854 11.167-2.24-3.754 7.337-9.009.73 1.225-11.483 2.063-2.145-3.593 7.301-9.07zm-22.121-10.935l14.378-5.976-1.03 2.58-5.042-12.133 3.605-1.498 5.976 14.378-16.192 6.729-1.695-4.08zm1.102-13.754c-1.325.307-2.573.223-3.744-.25-1.186-.469-2.224-1.252-3.113-2.35-.909-1.108-1.606-2.459-2.094-4.054-.464-1.52-.638-2.918-.522-4.192.117-1.274.494-2.359 1.133-3.255.64-.895 1.503-1.51 2.591-1.842a4.666 4.666 0 012.575-.053c.852.229 1.784.719 2.795 1.469 1.012.75 2.161 1.793 3.449 3.127l4.03 4.074-1.027.558-3.715-12.164 3.355-1.024 4.997 16.368-2.951.901-6.335-5.937c-1.007-.948-1.839-1.671-2.497-2.171-.677-.51-1.258-.838-1.742-.984a2.404 2.404 0 00-1.42-.006 2.22 2.22 0 00-1.152.792c-.295.367-.467.843-.516 1.429-.05.585.046 1.273.287 2.063.287.939.665 1.671 1.135 2.196.455.529.96.872 1.512 1.029a3.606 3.606 0 001.685.072l1.283 4.204zm-2.849-34.959a3.328 3.328 0 01-.151 1.706 3.06 3.06 0 01-.972 1.317 3.282 3.282 0 01-1.55.675c-.6.097-1.16.045-1.682-.155a3.062 3.062 0 01-1.336-.945 3.329 3.329 0 01-.68-1.572 3.2 3.2 0 01.156-1.683c.2-.522.517-.959.95-1.313.43-.369.952-.603 1.568-.702a3.15 3.15 0 011.686.178c.537.198.982.513 1.336.946.354.432.579.948.675 1.548z" fill="#434EDC"/><path d="M19.795 193.644l.01 1.426-15.666-4.759.046-4.652 17.48 5.665-.055 5.634-15.294 5.158.018-1.847 15.19 5.432-.054 5.658-17.587 5.323.045-4.676 15.732-4.452-.037 1.402-15.612-5.459.046-4.676 15.738-5.177z" fill="#434EDC"/></svg>